<svg width="23" height="23" viewBox="0 0 23 23" fill="none" xmlns="http://www.w3.org/2000/svg">
<path d="M19.25 0H3.74999C1.68214 0 0 1.68214 0 3.74999V19.25C0 21.3179 1.68214 23 3.74999 23H19.25C21.3179 23 23 21.3179 23 19.25V3.74999C23 1.68214 21.3179 0 19.25 0ZM5.50001 19.75C4.25931 19.75 3.25001 18.7407 3.25001 17.5C3.25001 16.2593 4.25931 15.25 5.50001 15.25C6.74071 15.25 7.75001 16.2593 7.75001 17.5C7.75001 18.7407 6.74071 19.75 5.50001 19.75ZM11.5 19C10.6729 19 10 18.3272 10 17.5C10 15.0188 7.98145 13 5.50001 13C4.67286 13 4.00002 12.3272 4.00002 11.5C4.00002 10.6729 4.67286 10.0001 5.50001 10.0001C9.63574 10.0001 13 13.3646 13 17.5C13 18.3271 12.3271 19 11.5 19ZM17.5 19C16.6728 19 16 18.3272 16 17.5C16 11.7102 11.2895 7.00004 5.50001 7.00004C4.67286 7.00004 4.00002 6.3272 4.00002 5.50005C4.00002 4.67291 4.67286 4.00007 5.50001 4.00007C12.9439 4.00007 19 10.0562 19 17.5001C19 18.3271 18.3271 19 17.5 19Z" fill="url(#paint0_linear)"/>
<defs>
<linearGradient id="paint0_linear" x1="11.5" y1="0" x2="11.5" y2="24.0786" gradientUnits="userSpaceOnUse">
<stop stop-color="#FEBD9C"/>
<stop offset="1" stop-color="#FFDCB0"/>
</linearGradient>
</defs>
</svg>
