<svg width="1371" height="445" viewBox="0 0 1371 445" fill="none" xmlns="http://www.w3.org/2000/svg">
<path d="M540.08 87.24C538.027 87.24 536.213 87.04 534.64 86.64C533.093 86.24 531.8 85.5067 530.76 84.44C529.72 83.3733 528.933 81.8533 528.4 79.88C527.867 77.9067 527.6 75.3333 527.6 72.16C527.6 69.0133 527.867 66.4533 528.4 64.48C528.933 62.48 529.72 60.9467 530.76 59.88C531.8 58.8133 533.093 58.08 534.64 57.68C536.213 57.2533 538.027 57.04 540.08 57.04C542.133 57.04 543.933 57.2533 545.48 57.68C547.053 58.08 548.36 58.8133 549.4 59.88C550.44 60.9467 551.227 62.48 551.76 64.48C552.293 66.4533 552.56 69.0133 552.56 72.16C552.56 75.3333 552.293 77.9067 551.76 79.88C551.227 81.8533 550.44 83.3733 549.4 84.44C548.36 85.5067 547.053 86.24 545.48 86.64C543.933 87.04 542.133 87.24 540.08 87.24ZM540.08 81.04C541.52 81.04 542.64 80.8133 543.44 80.36C544.267 79.88 544.84 79.0133 545.16 77.76C545.48 76.48 545.64 74.6133 545.64 72.16C545.64 70.2667 545.547 68.7333 545.36 67.56C545.2 66.3867 544.907 65.4933 544.48 64.88C544.08 64.24 543.52 63.8133 542.8 63.6C542.08 63.36 541.173 63.24 540.08 63.24C539.013 63.24 538.12 63.36 537.4 63.6C536.68 63.8133 536.107 64.24 535.68 64.88C535.28 65.4933 534.987 66.3867 534.8 67.56C534.613 68.7333 534.52 70.2667 534.52 72.16C534.52 74.6133 534.68 76.48 535 77.76C535.32 79.0133 535.88 79.88 536.68 80.36C537.48 80.8133 538.613 81.04 540.08 81.04ZM579.018 87L569.978 57.32H577.138L583.378 79.52L589.618 57.32H596.698L587.658 87H579.018ZM622.061 87.24C621.394 87.24 620.634 87.1733 619.781 87.04C618.927 86.9067 618.101 86.6267 617.301 86.2C616.501 85.7467 615.834 85.0667 615.301 84.16C614.767 83.2267 614.501 81.9733 614.501 80.4V64.44C614.501 62.5733 614.861 61.1333 615.581 60.12C616.327 59.08 617.247 58.36 618.341 57.96C619.434 57.5333 620.527 57.32 621.621 57.32C624.794 57.3467 627.381 57.4133 629.381 57.52C631.381 57.6267 633.114 57.7467 634.581 57.88V63.72H623.701C622.181 63.72 621.421 64.4133 621.421 65.8V69.08L632.621 69.48V74.92L621.421 75.28V78.4C621.421 79.28 621.621 79.8933 622.021 80.24C622.421 80.5867 622.914 80.76 623.501 80.76H634.581V86.56C633.407 86.6933 632.101 86.8133 630.661 86.92C629.221 87.0267 627.754 87.0933 626.261 87.12C624.767 87.1733 623.367 87.2133 622.061 87.24ZM654.524 87V57.32H667.004C668.657 57.32 670.137 57.6 671.444 58.16C672.777 58.72 673.817 59.7067 674.564 61.12C675.337 62.5333 675.724 64.52 675.724 67.08C675.724 68.8133 675.524 70.2267 675.124 71.32C674.724 72.3867 674.191 73.2267 673.524 73.84C672.857 74.4533 672.151 74.9467 671.404 75.32L676.724 87H669.684L665.244 76.44C664.684 76.44 664.057 76.44 663.364 76.44C662.671 76.4133 662.031 76.4 661.444 76.4V87H654.524ZM661.444 70.92H665.764C666.724 70.92 667.471 70.6533 668.004 70.12C668.537 69.56 668.804 68.56 668.804 67.12C668.804 65.7067 668.537 64.76 668.004 64.28C667.471 63.7733 666.724 63.52 665.764 63.52H661.444V70.92ZM702.956 87L693.916 57.32H701.076L707.316 79.52L713.556 57.32H720.636L711.596 87H702.956ZM739.454 87V57.32H746.374V87H739.454ZM774.654 87.24C773.988 87.24 773.228 87.1733 772.374 87.04C771.521 86.9067 770.694 86.6267 769.894 86.2C769.094 85.7467 768.428 85.0667 767.894 84.16C767.361 83.2267 767.094 81.9733 767.094 80.4V64.44C767.094 62.5733 767.454 61.1333 768.174 60.12C768.921 59.08 769.841 58.36 770.934 57.96C772.028 57.5333 773.121 57.32 774.214 57.32C777.388 57.3467 779.974 57.4133 781.974 57.52C783.974 57.6267 785.708 57.7467 787.174 57.88V63.72H776.294C774.774 63.72 774.014 64.4133 774.014 65.8V69.08L785.214 69.48V74.92L774.014 75.28V78.4C774.014 79.28 774.214 79.8933 774.614 80.24C775.014 80.5867 775.508 80.76 776.094 80.76H787.174V86.56C786.001 86.6933 784.694 86.8133 783.254 86.92C781.814 87.0267 780.348 87.0933 778.854 87.12C777.361 87.1733 775.961 87.2133 774.654 87.24ZM812.118 87L805.158 57.32H812.318L816.518 76.72L821.478 57.32H827.718L832.638 76.72L836.838 57.32H843.998L837.038 87H830.078L824.598 67.56L819.078 87H812.118Z" fill="url(#paint0_linear)"/>
<rect x="656" y="100" width="60" height="16" fill="url(#paint1_linear)"/>
<rect x="495.5" y="158.5" width="380" height="285" rx="21.5" fill="url(#paint2_linear)" stroke="#00ABFE" stroke-width="3"/>
<rect x="989.5" y="158.5" width="380" height="285" rx="21.5" fill="url(#paint3_linear)" stroke="#00ABFE" stroke-width="3"/>
<path d="M418.59 332.66L441.9 293.42L418.59 254.18H436.5L459.18 293.42L436.41 332.66H418.59Z" fill="url(#paint4_linear)"/>
<path d="M917.59 332.66L940.9 293.42L917.59 254.18H935.5L958.18 293.42L935.41 332.66H917.59Z" fill="url(#paint5_linear)"/>
<path d="M1041.69 390.064C1040.69 390.064 1039.92 389.803 1039.39 389.28C1038.86 388.757 1038.59 388 1038.59 387.008V381.248C1038.59 380.224 1038.86 379.44 1039.41 378.896C1039.96 378.341 1040.73 378.064 1041.71 378.064H1044.17C1045.16 378.064 1045.9 378.341 1046.41 378.896C1046.93 379.451 1047.18 380.235 1047.18 381.248V387.008C1047.18 387.989 1046.92 388.747 1046.38 389.28C1045.86 389.803 1045.12 390.064 1044.17 390.064H1041.69ZM1043.53 387.936C1044.39 387.936 1044.81 387.509 1044.81 386.656V381.472C1044.81 380.619 1044.42 380.192 1043.63 380.192H1042.17C1041.78 380.192 1041.48 380.304 1041.26 380.528C1041.06 380.741 1040.96 381.056 1040.96 381.472V386.64C1040.96 387.504 1041.39 387.936 1042.25 387.936H1043.53ZM1053.21 390.096C1051.53 390.096 1050.02 389.984 1048.68 389.76V387.856H1052.31C1052.98 387.856 1053.46 387.776 1053.75 387.616C1054.05 387.456 1054.2 387.168 1054.2 386.752V386.256C1054.2 385.509 1053.68 385.115 1052.65 385.072L1049.73 384.96V383.136L1052.55 382.976C1053.05 382.955 1053.43 382.864 1053.69 382.704C1053.94 382.544 1054.07 382.293 1054.07 381.952V381.552C1054.07 381.125 1053.93 380.811 1053.64 380.608C1053.35 380.405 1052.88 380.304 1052.23 380.304H1048.93V378.416C1050.56 378.16 1051.97 378.043 1053.17 378.064C1054.22 378.075 1055.02 378.331 1055.57 378.832C1056.13 379.323 1056.41 380.043 1056.41 380.992V381.872C1056.41 382.459 1056.27 382.933 1056.01 383.296C1055.74 383.648 1055.38 383.899 1054.93 384.048C1055.4 384.187 1055.79 384.48 1056.1 384.928C1056.42 385.376 1056.58 385.925 1056.58 386.576V387.184C1056.58 388.123 1056.28 388.843 1055.69 389.344C1055.1 389.845 1054.27 390.096 1053.21 390.096ZM1061.99 384.704H1066.74V386.016H1061.99V384.704ZM1076.81 390.096C1075.37 390.096 1074.27 389.819 1073.51 389.264C1072.76 388.699 1072.39 387.712 1072.39 386.304V378.208H1074.01V386.288C1074.01 387.152 1074.24 387.76 1074.71 388.112C1075.18 388.464 1075.88 388.64 1076.81 388.64C1077.75 388.64 1078.45 388.464 1078.92 388.112C1079.39 387.76 1079.62 387.152 1079.62 386.288V378.208H1081.24V386.304C1081.24 387.712 1080.86 388.699 1080.1 389.264C1079.35 389.819 1078.25 390.096 1076.81 390.096ZM1086.82 390.096C1086.27 390.096 1085.64 390.064 1084.91 390C1084.2 389.947 1083.63 389.872 1083.22 389.776V388.528C1084.1 388.613 1085.28 388.656 1086.75 388.656C1087.51 388.656 1088.1 388.544 1088.51 388.32C1088.93 388.085 1089.14 387.664 1089.14 387.056V386.368C1089.14 385.376 1088.61 384.88 1087.55 384.88H1086.35C1085.3 384.88 1084.5 384.651 1083.95 384.192C1083.41 383.723 1083.14 382.96 1083.14 381.904V381.248C1083.14 380.16 1083.43 379.365 1084.02 378.864C1084.62 378.363 1085.5 378.112 1086.67 378.112C1087.19 378.112 1087.77 378.149 1088.43 378.224C1089.1 378.299 1089.66 378.379 1090.13 378.464V379.712L1089.79 379.696C1088.43 379.6 1087.45 379.552 1086.85 379.552C1086.12 379.552 1085.58 379.68 1085.22 379.936C1084.86 380.192 1084.67 380.656 1084.67 381.328V381.808C1084.67 382.363 1084.82 382.757 1085.11 382.992C1085.4 383.227 1085.85 383.344 1086.43 383.344H1087.73C1088.69 383.344 1089.42 383.605 1089.92 384.128C1090.42 384.64 1090.67 385.323 1090.67 386.176V387.008C1090.67 388.171 1090.34 388.976 1089.67 389.424C1088.99 389.872 1088.04 390.096 1086.82 390.096ZM1095.25 390.064C1094.55 390.064 1093.95 389.904 1093.46 389.584C1092.97 389.264 1092.72 388.629 1092.72 387.68V380.672C1092.72 379.808 1092.96 379.184 1093.43 378.8C1093.9 378.405 1094.46 378.208 1095.12 378.208C1096.39 378.208 1097.83 378.251 1099.43 378.336L1100.15 378.368V379.696H1095.6C1094.76 379.696 1094.34 380.117 1094.34 380.96V383.408L1099.43 383.504V384.752L1094.34 384.864V387.28C1094.34 387.781 1094.46 388.123 1094.69 388.304C1094.93 388.475 1095.24 388.56 1095.63 388.56H1100.15V389.888C1098.31 390.005 1096.68 390.064 1095.25 390.064ZM1106 378.128H1111.13C1112.69 378.128 1113.79 378.651 1114.41 379.696C1115.04 380.731 1115.36 382.192 1115.36 384.08C1115.36 386.107 1115.01 387.6 1114.32 388.56C1113.63 389.52 1112.56 390 1111.13 390H1106V378.128ZM1110.86 387.52C1111.5 387.52 1111.95 387.248 1112.21 386.704C1112.47 386.16 1112.61 385.285 1112.61 384.08C1112.61 383.131 1112.54 382.405 1112.4 381.904C1112.27 381.403 1112.08 381.061 1111.84 380.88C1111.59 380.699 1111.27 380.608 1110.86 380.608H1108.77V387.52H1110.86ZM1119.98 390.096C1117.96 390.096 1116.95 389.184 1116.95 387.36V380.976C1116.95 379.963 1117.23 379.237 1117.78 378.8C1118.35 378.352 1119.02 378.128 1119.8 378.128C1121.57 378.139 1123.3 378.213 1124.98 378.352V380.688H1120.63C1120.34 380.688 1120.12 380.757 1119.96 380.896C1119.8 381.035 1119.72 381.243 1119.72 381.52V382.832L1124.2 382.992V385.168L1119.72 385.312V386.56C1119.72 386.88 1119.79 387.12 1119.94 387.28C1120.1 387.429 1120.31 387.504 1120.55 387.504H1124.98V389.824C1123.7 389.984 1122.03 390.075 1119.98 390.096ZM1125.78 378.128H1128.64L1131.14 387.008L1133.63 378.128H1136.47L1132.85 390H1129.39L1125.78 378.128ZM1145.32 390.096C1144.66 390.096 1143.99 390.059 1143.32 389.984C1142.66 389.909 1142.07 389.803 1141.54 389.664V387.472C1142.56 387.568 1143.77 387.616 1145.17 387.616C1145.77 387.616 1146.21 387.547 1146.5 387.408C1146.79 387.259 1146.93 386.997 1146.93 386.624V386.32C1146.93 386.043 1146.84 385.829 1146.66 385.68C1146.48 385.52 1146.24 385.44 1145.94 385.44H1145.01C1143.79 385.44 1142.87 385.173 1142.26 384.64C1141.67 384.096 1141.37 383.221 1141.37 382.016V381.456C1141.37 380.304 1141.7 379.445 1142.37 378.88C1143.05 378.315 1144.03 378.032 1145.33 378.032C1146.45 378.032 1147.67 378.181 1148.98 378.48V380.656C1147.5 380.56 1146.4 380.512 1145.67 380.512C1145.11 380.512 1144.68 380.592 1144.41 380.752C1144.13 380.901 1143.99 381.184 1143.99 381.6V381.824C1143.99 382.485 1144.39 382.816 1145.19 382.816H1146.29C1147.35 382.816 1148.16 383.104 1148.71 383.68C1149.28 384.256 1149.56 385.013 1149.56 385.952V386.544C1149.56 387.493 1149.39 388.229 1149.05 388.752C1148.72 389.264 1148.25 389.616 1147.64 389.808C1147.03 390 1146.26 390.096 1145.32 390.096ZM1154.18 390.096C1152.16 390.096 1151.15 389.184 1151.15 387.36V380.976C1151.15 379.963 1151.43 379.237 1151.99 378.8C1152.55 378.352 1153.22 378.128 1154 378.128C1155.77 378.139 1157.5 378.213 1159.19 378.352V380.688H1154.83C1154.55 380.688 1154.32 380.757 1154.16 380.896C1154 381.035 1153.92 381.243 1153.92 381.52V382.832L1158.4 382.992V385.168L1153.92 385.312V386.56C1153.92 386.88 1154 387.12 1154.15 387.28C1154.31 387.429 1154.51 387.504 1154.75 387.504H1159.19V389.824C1157.91 389.984 1156.24 390.075 1154.18 390.096ZM1160.76 378.128H1165.76C1166.85 378.128 1167.71 378.421 1168.32 379.008C1168.93 379.584 1169.24 380.592 1169.24 382.032C1169.24 382.992 1169.09 383.712 1168.78 384.192C1168.48 384.672 1168.06 385.051 1167.52 385.328L1169.64 390H1166.83L1165.05 385.776C1164.75 385.765 1164.25 385.76 1163.53 385.76V390H1160.76V378.128ZM1165.26 383.568C1165.67 383.568 1165.97 383.456 1166.17 383.232C1166.37 382.997 1166.48 382.603 1166.48 382.048C1166.48 381.504 1166.37 381.131 1166.17 380.928C1165.97 380.715 1165.67 380.608 1165.26 380.608H1163.53V383.568H1165.26ZM1170.12 378.128H1172.98L1175.48 387.008L1177.98 378.128H1180.81L1177.19 390H1173.74L1170.12 378.128ZM1181.94 378.128H1184.7V390H1181.94V378.128ZM1190.62 390.096C1189.64 390.096 1188.84 389.936 1188.22 389.616C1187.61 389.296 1187.13 388.699 1186.78 387.824C1186.45 386.939 1186.29 385.675 1186.29 384.032C1186.29 382.443 1186.46 381.211 1186.8 380.336C1187.15 379.461 1187.64 378.859 1188.27 378.528C1188.9 378.187 1189.69 378.016 1190.64 378.016C1191.45 378.016 1192.18 378.075 1192.83 378.192C1193.48 378.309 1194.02 378.453 1194.45 378.624V380.768C1193.47 380.587 1192.4 380.496 1191.23 380.496C1190.66 380.496 1190.22 380.587 1189.92 380.768C1189.62 380.939 1189.4 381.275 1189.26 381.776C1189.13 382.277 1189.06 383.035 1189.06 384.048C1189.06 385.04 1189.12 385.787 1189.23 386.288C1189.35 386.779 1189.56 387.125 1189.87 387.328C1190.18 387.52 1190.64 387.616 1191.25 387.616C1192.69 387.616 1193.76 387.563 1194.45 387.456V389.6C1193.54 389.931 1192.27 390.096 1190.62 390.096ZM1198.87 390.096C1196.85 390.096 1195.84 389.184 1195.84 387.36V380.976C1195.84 379.963 1196.12 379.237 1196.67 378.8C1197.24 378.352 1197.91 378.128 1198.69 378.128C1200.46 378.139 1202.19 378.213 1203.87 378.352V380.688H1199.52C1199.23 380.688 1199.01 380.757 1198.85 380.896C1198.69 381.035 1198.61 381.243 1198.61 381.52V382.832L1203.09 382.992V385.168L1198.61 385.312V386.56C1198.61 386.88 1198.69 387.12 1198.83 387.28C1198.99 387.429 1199.2 387.504 1199.44 387.504H1203.87V389.824C1202.59 389.984 1200.93 390.075 1198.87 390.096ZM1209.12 390.096C1208.45 390.096 1207.79 390.059 1207.12 389.984C1206.45 389.909 1205.86 389.803 1205.34 389.664V387.472C1206.35 387.568 1207.56 387.616 1208.97 387.616C1209.57 387.616 1210.01 387.547 1210.3 387.408C1210.59 387.259 1210.73 386.997 1210.73 386.624V386.32C1210.73 386.043 1210.64 385.829 1210.46 385.68C1210.28 385.52 1210.04 385.44 1209.74 385.44H1208.81C1207.59 385.44 1206.67 385.173 1206.06 384.64C1205.46 384.096 1205.16 383.221 1205.16 382.016V381.456C1205.16 380.304 1205.5 379.445 1206.17 378.88C1206.84 378.315 1207.83 378.032 1209.13 378.032C1210.25 378.032 1211.47 378.181 1212.78 378.48V380.656C1211.3 380.56 1210.19 380.512 1209.47 380.512C1208.9 380.512 1208.48 380.592 1208.2 380.752C1207.93 380.901 1207.79 381.184 1207.79 381.6V381.824C1207.79 382.485 1208.19 382.816 1208.99 382.816H1210.09C1211.15 382.816 1211.95 383.104 1212.51 383.68C1213.07 384.256 1213.36 385.013 1213.36 385.952V386.544C1213.36 387.493 1213.19 388.229 1212.84 388.752C1212.51 389.264 1212.04 389.616 1211.44 389.808C1210.83 390 1210.05 390.096 1209.12 390.096ZM1226.11 379.648H1222.59V378.208H1231.25V379.648H1227.73V390H1226.11V379.648ZM1236.95 390.096C1235.83 390.096 1234.94 389.947 1234.29 389.648C1233.64 389.349 1233.15 388.773 1232.81 387.92C1232.48 387.067 1232.31 385.808 1232.31 384.144C1232.31 382.48 1232.48 381.216 1232.82 380.352C1233.16 379.477 1233.66 378.885 1234.31 378.576C1234.96 378.267 1235.84 378.112 1236.95 378.112C1238.08 378.112 1238.97 378.267 1239.62 378.576C1240.27 378.885 1240.76 379.477 1241.09 380.352C1241.44 381.216 1241.61 382.48 1241.61 384.144C1241.61 385.808 1241.44 387.067 1241.09 387.92C1240.76 388.773 1240.27 389.349 1239.62 389.648C1238.97 389.947 1238.08 390.096 1236.95 390.096ZM1236.95 388.656C1237.74 388.656 1238.35 388.544 1238.77 388.32C1239.2 388.096 1239.51 387.664 1239.7 387.024C1239.89 386.384 1239.99 385.424 1239.99 384.144C1239.99 382.811 1239.89 381.819 1239.7 381.168C1239.51 380.517 1239.2 380.085 1238.77 379.872C1238.36 379.659 1237.75 379.552 1236.95 379.552C1236.18 379.552 1235.58 379.664 1235.16 379.888C1234.74 380.101 1234.43 380.533 1234.21 381.184C1234.01 381.835 1233.91 382.821 1233.91 384.144C1233.91 385.435 1234 386.4 1234.18 387.04C1234.37 387.669 1234.68 388.096 1235.09 388.32C1235.52 388.544 1236.14 388.656 1236.95 388.656ZM1251.81 390.096C1250.8 390.096 1250 389.941 1249.4 389.632C1248.81 389.312 1248.37 388.72 1248.07 387.856C1247.77 386.981 1247.62 385.717 1247.62 384.064C1247.62 382.496 1247.78 381.28 1248.09 380.416C1248.4 379.552 1248.85 378.955 1249.46 378.624C1250.07 378.283 1250.88 378.112 1251.88 378.112C1252.43 378.112 1253.03 378.16 1253.67 378.256C1254.31 378.341 1254.88 378.448 1255.37 378.576V379.792C1255.02 379.739 1254.56 379.685 1253.96 379.632C1253.36 379.579 1252.76 379.552 1252.17 379.552C1251.41 379.552 1250.82 379.675 1250.41 379.92C1250 380.155 1249.7 380.597 1249.51 381.248C1249.32 381.888 1249.22 382.832 1249.22 384.08C1249.22 385.36 1249.31 386.325 1249.49 386.976C1249.68 387.616 1249.97 388.059 1250.37 388.304C1250.78 388.539 1251.37 388.656 1252.15 388.656C1253.44 388.656 1254.51 388.592 1255.37 388.464V389.696C1254.3 389.963 1253.12 390.096 1251.81 390.096ZM1261.42 390.096C1260.3 390.096 1259.41 389.947 1258.76 389.648C1258.11 389.349 1257.62 388.773 1257.27 387.92C1256.94 387.067 1256.78 385.808 1256.78 384.144C1256.78 382.48 1256.95 381.216 1257.29 380.352C1257.63 379.477 1258.13 378.885 1258.78 378.576C1259.43 378.267 1260.31 378.112 1261.42 378.112C1262.55 378.112 1263.44 378.267 1264.09 378.576C1264.74 378.885 1265.23 379.477 1265.56 380.352C1265.9 381.216 1266.07 382.48 1266.07 384.144C1266.07 385.808 1265.9 387.067 1265.56 387.92C1265.23 388.773 1264.74 389.349 1264.09 389.648C1263.44 389.947 1262.55 390.096 1261.42 390.096ZM1261.42 388.656C1262.21 388.656 1262.82 388.544 1263.24 388.32C1263.67 388.096 1263.98 387.664 1264.17 387.024C1264.36 386.384 1264.46 385.424 1264.46 384.144C1264.46 382.811 1264.36 381.819 1264.17 381.168C1263.98 380.517 1263.67 380.085 1263.24 379.872C1262.83 379.659 1262.22 379.552 1261.42 379.552C1260.65 379.552 1260.05 379.664 1259.63 379.888C1259.21 380.101 1258.9 380.533 1258.68 381.184C1258.48 381.835 1258.38 382.821 1258.38 384.144C1258.38 385.435 1258.47 386.4 1258.65 387.04C1258.84 387.669 1259.15 388.096 1259.56 388.32C1259.99 388.544 1260.61 388.656 1261.42 388.656ZM1268.29 378.208H1269.6L1275.38 387.248V378.208H1276.98V390H1275.68L1269.91 380.96V390H1268.29V378.208ZM1281.75 379.648H1278.23V378.208H1286.89V379.648H1283.37V390H1281.75V379.648ZM1288.32 378.208H1293.04C1294 378.208 1294.76 378.464 1295.32 378.976C1295.9 379.477 1296.19 380.411 1296.19 381.776C1296.19 382.875 1295.99 383.659 1295.58 384.128C1295.19 384.597 1294.68 384.917 1294.06 385.088L1296.41 390H1294.78L1292.6 385.312L1290.41 385.28C1290.3 385.269 1290.14 385.264 1289.93 385.264V390H1288.32V378.208ZM1292.78 384.016C1293.36 384.016 1293.8 383.856 1294.11 383.536C1294.43 383.216 1294.59 382.629 1294.59 381.776C1294.59 380.955 1294.43 380.395 1294.11 380.096C1293.79 379.797 1293.35 379.648 1292.78 379.648H1289.93V384.016H1292.78ZM1298.14 378.208H1299.76V390H1298.14V378.208ZM1302.1 378.208H1306.48C1308.57 378.208 1309.62 379.221 1309.62 381.248C1309.62 381.952 1309.46 382.533 1309.15 382.992C1308.86 383.451 1308.46 383.744 1307.97 383.872C1308.51 384.011 1308.99 384.315 1309.41 384.784C1309.83 385.253 1310.03 385.904 1310.03 386.736C1310.03 387.92 1309.75 388.763 1309.19 389.264C1308.62 389.755 1307.78 390 1306.66 390H1302.1V378.208ZM1306.53 383.328C1307 383.328 1307.37 383.152 1307.65 382.8C1307.94 382.448 1308.08 381.973 1308.08 381.376C1308.08 380.224 1307.54 379.648 1306.47 379.648H1303.71V383.328H1306.53ZM1306.61 388.56C1307.22 388.56 1307.68 388.405 1308 388.096C1308.33 387.776 1308.5 387.232 1308.5 386.464C1308.5 385.877 1308.32 385.419 1307.95 385.088C1307.6 384.747 1307.15 384.576 1306.61 384.576H1303.71V388.56H1306.61ZM1316.13 390.096C1314.69 390.096 1313.6 389.819 1312.84 389.264C1312.09 388.699 1311.72 387.712 1311.72 386.304V378.208H1313.33V386.288C1313.33 387.152 1313.57 387.76 1314.04 388.112C1314.51 388.464 1315.21 388.64 1316.13 388.64C1317.07 388.64 1317.78 388.464 1318.25 388.112C1318.72 387.76 1318.95 387.152 1318.95 386.288V378.208H1320.57V386.304C1320.57 387.712 1320.19 388.699 1319.43 389.264C1318.67 389.819 1317.57 390.096 1316.13 390.096ZM1325.35 379.648H1321.83V378.208H1330.48V379.648H1326.96V390H1325.35V379.648ZM1334.28 390.064C1333.58 390.064 1332.98 389.904 1332.49 389.584C1332 389.264 1331.75 388.629 1331.75 387.68V380.672C1331.75 379.808 1331.99 379.184 1332.46 378.8C1332.93 378.405 1333.49 378.208 1334.15 378.208C1335.42 378.208 1336.86 378.251 1338.46 378.336L1339.18 378.368V379.696H1334.63C1333.79 379.696 1333.37 380.117 1333.37 380.96V383.408L1338.46 383.504V384.752L1333.37 384.864V387.28C1333.37 387.781 1333.49 388.123 1333.72 388.304C1333.96 388.475 1334.27 388.56 1334.67 388.56H1339.18V389.888C1337.34 390.005 1335.71 390.064 1334.28 390.064ZM1098.73 411.096C1097.61 411.096 1096.73 410.947 1096.07 410.648C1095.42 410.349 1094.93 409.773 1094.59 408.92C1094.26 408.067 1094.09 406.808 1094.09 405.144C1094.09 403.48 1094.26 402.216 1094.6 401.352C1094.94 400.477 1095.44 399.885 1096.09 399.576C1096.74 399.267 1097.62 399.112 1098.73 399.112C1099.86 399.112 1100.75 399.267 1101.4 399.576C1102.05 399.885 1102.54 400.477 1102.87 401.352C1103.22 402.216 1103.39 403.48 1103.39 405.144C1103.39 406.808 1103.22 408.067 1102.87 408.92C1102.54 409.773 1102.05 410.349 1101.4 410.648C1100.75 410.947 1099.86 411.096 1098.73 411.096ZM1098.73 409.656C1099.52 409.656 1100.13 409.544 1100.55 409.32C1100.98 409.096 1101.29 408.664 1101.48 408.024C1101.67 407.384 1101.77 406.424 1101.77 405.144C1101.77 403.811 1101.67 402.819 1101.48 402.168C1101.29 401.517 1100.98 401.085 1100.55 400.872C1100.14 400.659 1099.53 400.552 1098.73 400.552C1097.96 400.552 1097.37 400.664 1096.94 400.888C1096.52 401.101 1096.21 401.533 1095.99 402.184C1095.79 402.835 1095.69 403.821 1095.69 405.144C1095.69 406.435 1095.78 407.4 1095.96 408.04C1096.15 408.669 1096.46 409.096 1096.87 409.32C1097.3 409.544 1097.92 409.656 1098.73 409.656ZM1105.43 399.208H1110.15C1111.11 399.208 1111.87 399.464 1112.43 399.976C1113.01 400.477 1113.3 401.411 1113.3 402.776C1113.3 403.875 1113.1 404.659 1112.69 405.128C1112.3 405.597 1111.79 405.917 1111.17 406.088L1113.52 411H1111.89L1109.71 406.312L1107.52 406.28C1107.4 406.269 1107.24 406.264 1107.04 406.264V411H1105.43V399.208ZM1109.89 405.016C1110.47 405.016 1110.91 404.856 1111.22 404.536C1111.54 404.216 1111.7 403.629 1111.7 402.776C1111.7 401.955 1111.54 401.395 1111.22 401.096C1110.9 400.797 1110.46 400.648 1109.89 400.648H1107.04V405.016H1109.89ZM1119.52 399.208H1123.9C1125.99 399.208 1127.04 400.221 1127.04 402.248C1127.04 402.952 1126.88 403.533 1126.58 403.992C1126.28 404.451 1125.88 404.744 1125.39 404.872C1125.94 405.011 1126.42 405.315 1126.83 405.784C1127.25 406.253 1127.46 406.904 1127.46 407.736C1127.46 408.92 1127.17 409.763 1126.61 410.264C1126.04 410.755 1125.2 411 1124.08 411H1119.52V399.208ZM1123.95 404.328C1124.42 404.328 1124.79 404.152 1125.07 403.8C1125.36 403.448 1125.5 402.973 1125.5 402.376C1125.5 401.224 1124.96 400.648 1123.89 400.648H1121.14V404.328H1123.95ZM1124.03 409.56C1124.64 409.56 1125.1 409.405 1125.42 409.096C1125.75 408.776 1125.92 408.232 1125.92 407.464C1125.92 406.877 1125.74 406.419 1125.38 406.088C1125.02 405.747 1124.58 405.576 1124.03 405.576H1121.14V409.56H1124.03ZM1133.56 411.096C1132.12 411.096 1131.02 410.819 1130.26 410.264C1129.51 409.699 1129.14 408.712 1129.14 407.304V399.208H1130.76V407.288C1130.76 408.152 1130.99 408.76 1131.46 409.112C1131.93 409.464 1132.63 409.64 1133.56 409.64C1134.5 409.64 1135.2 409.464 1135.67 409.112C1136.14 408.76 1136.37 408.152 1136.37 407.288V399.208H1137.99V407.304C1137.99 408.712 1137.61 409.699 1136.85 410.264C1136.1 410.819 1135 411.096 1133.56 411.096ZM1140.16 399.208H1141.78V411H1140.16V399.208ZM1146.61 411C1145.8 411 1145.18 410.808 1144.75 410.424C1144.33 410.04 1144.11 409.4 1144.11 408.504V399.208H1145.73V408.264C1145.73 408.744 1145.84 409.075 1146.07 409.256C1146.29 409.437 1146.6 409.528 1146.99 409.528H1151.07V411H1146.61ZM1152.64 399.208H1157.41C1158.83 399.208 1159.84 399.704 1160.45 400.696C1161.06 401.688 1161.36 403.16 1161.36 405.112C1161.36 407.021 1161.03 408.483 1160.36 409.496C1159.7 410.499 1158.71 411 1157.41 411H1152.64V399.208ZM1157.27 409.56C1158.92 409.56 1159.75 408.077 1159.75 405.112C1159.75 403.992 1159.66 403.107 1159.48 402.456C1159.31 401.805 1159.04 401.341 1158.68 401.064C1158.32 400.787 1157.86 400.648 1157.27 400.648H1154.26V409.56H1157.27ZM1170.67 407.192L1166.99 399.208H1168.67L1171.5 405.56L1174.35 399.208H1175.96L1172.28 407.192V411H1170.67V407.192ZM1181.73 411.096C1180.61 411.096 1179.73 410.947 1179.07 410.648C1178.42 410.349 1177.93 409.773 1177.59 408.92C1177.26 408.067 1177.09 406.808 1177.09 405.144C1177.09 403.48 1177.26 402.216 1177.6 401.352C1177.94 400.477 1178.44 399.885 1179.09 399.576C1179.74 399.267 1180.62 399.112 1181.73 399.112C1182.86 399.112 1183.75 399.267 1184.4 399.576C1185.05 399.885 1185.54 400.477 1185.87 401.352C1186.22 402.216 1186.39 403.48 1186.39 405.144C1186.39 406.808 1186.22 408.067 1185.87 408.92C1185.54 409.773 1185.05 410.349 1184.4 410.648C1183.75 410.947 1182.86 411.096 1181.73 411.096ZM1181.73 409.656C1182.52 409.656 1183.13 409.544 1183.55 409.32C1183.98 409.096 1184.29 408.664 1184.48 408.024C1184.67 407.384 1184.77 406.424 1184.77 405.144C1184.77 403.811 1184.67 402.819 1184.48 402.168C1184.29 401.517 1183.98 401.085 1183.55 400.872C1183.14 400.659 1182.53 400.552 1181.73 400.552C1180.96 400.552 1180.37 400.664 1179.94 400.888C1179.52 401.101 1179.21 401.533 1178.99 402.184C1178.79 402.835 1178.69 403.821 1178.69 405.144C1178.69 406.435 1178.78 407.4 1178.96 408.04C1179.15 408.669 1179.46 409.096 1179.87 409.32C1180.3 409.544 1180.92 409.656 1181.73 409.656ZM1192.68 411.096C1191.24 411.096 1190.14 410.819 1189.39 410.264C1188.64 409.699 1188.27 408.712 1188.27 407.304V399.208H1189.88V407.288C1189.88 408.152 1190.12 408.76 1190.59 409.112C1191.06 409.464 1191.75 409.64 1192.68 409.64C1193.62 409.64 1194.32 409.464 1194.79 409.112C1195.26 408.76 1195.5 408.152 1195.5 407.288V399.208H1197.11V407.304C1197.11 408.712 1196.74 409.699 1195.98 410.264C1195.22 410.819 1194.12 411.096 1192.68 411.096ZM1199.29 399.208H1204.01C1204.97 399.208 1205.73 399.464 1206.29 399.976C1206.87 400.477 1207.16 401.411 1207.16 402.776C1207.16 403.875 1206.95 404.659 1206.55 405.128C1206.15 405.597 1205.65 405.917 1205.03 406.088L1207.38 411H1205.75L1203.57 406.312L1201.38 406.28C1201.26 406.269 1201.1 406.264 1200.9 406.264V411H1199.29V399.208ZM1203.75 405.016C1204.33 405.016 1204.77 404.856 1205.08 404.536C1205.4 404.216 1205.56 403.629 1205.56 402.776C1205.56 401.955 1205.4 401.395 1205.08 401.096C1204.76 400.797 1204.31 400.648 1203.75 400.648H1200.9V405.016H1203.75ZM1222 411.096C1220.88 411.096 1219.99 410.947 1219.34 410.648C1218.69 410.349 1218.19 409.773 1217.85 408.92C1217.52 408.067 1217.36 406.808 1217.36 405.144C1217.36 403.48 1217.53 402.216 1217.87 401.352C1218.21 400.477 1218.71 399.885 1219.36 399.576C1220.01 399.267 1220.89 399.112 1222 399.112C1223.13 399.112 1224.02 399.267 1224.67 399.576C1225.32 399.885 1225.81 400.477 1226.14 401.352C1226.48 402.216 1226.65 403.48 1226.65 405.144C1226.65 406.808 1226.48 408.067 1226.14 408.92C1225.81 409.773 1225.32 410.349 1224.67 410.648C1224.02 410.947 1223.13 411.096 1222 411.096ZM1222 409.656C1222.79 409.656 1223.39 409.544 1223.82 409.32C1224.25 409.096 1224.56 408.664 1224.75 408.024C1224.94 407.384 1225.04 406.424 1225.04 405.144C1225.04 403.811 1224.94 402.819 1224.75 402.168C1224.56 401.517 1224.25 401.085 1223.82 400.872C1223.4 400.659 1222.8 400.552 1222 400.552C1221.23 400.552 1220.63 400.664 1220.2 400.888C1219.79 401.101 1219.47 401.533 1219.26 402.184C1219.06 402.835 1218.96 403.821 1218.96 405.144C1218.96 406.435 1219.05 407.4 1219.23 408.04C1219.42 408.669 1219.72 409.096 1220.14 409.32C1220.57 409.544 1221.19 409.656 1222 409.656ZM1227.75 399.208H1229.42L1231.75 408.712L1234.46 399.208H1236.01L1238.68 408.712L1241.03 399.208H1242.68L1239.72 411H1238.03L1235.23 401.496L1232.41 411H1230.71L1227.75 399.208ZM1244.49 399.208H1245.8L1251.58 408.248V399.208H1253.18V411H1251.88L1246.11 401.96V411H1244.49V399.208ZM1262.85 399.208H1264.89L1268.83 411H1267.15L1266.11 407.912H1261.6L1260.57 411H1258.91L1262.85 399.208ZM1265.71 406.456L1263.85 400.6L1261.98 406.456H1265.71ZM1270.46 399.208H1275.24C1276.15 399.208 1276.9 399.475 1277.5 400.008C1278.11 400.541 1278.41 401.56 1278.41 403.064C1278.41 404.579 1278.1 405.619 1277.48 406.184C1276.86 406.739 1276.11 407.016 1275.23 407.016C1274.89 407.016 1274.39 406.995 1273.72 406.952C1273.06 406.909 1272.51 406.867 1272.07 406.824V411H1270.46V399.208ZM1275 405.576C1276.2 405.576 1276.79 404.744 1276.79 403.08C1276.79 401.459 1276.23 400.648 1275.1 400.648H1272.07V405.576H1275ZM1280.21 399.208H1284.99C1285.9 399.208 1286.65 399.475 1287.25 400.008C1287.86 400.541 1288.16 401.56 1288.16 403.064C1288.16 404.579 1287.85 405.619 1287.23 406.184C1286.61 406.739 1285.86 407.016 1284.98 407.016C1284.64 407.016 1284.14 406.995 1283.47 406.952C1282.81 406.909 1282.26 406.867 1281.82 406.824V411H1280.21V399.208ZM1284.75 405.576C1285.95 405.576 1286.54 404.744 1286.54 403.08C1286.54 401.459 1285.98 400.648 1284.85 400.648H1281.82V405.576H1284.75Z" fill="white"/>
<rect x="1.5" y="158.5" width="380" height="285" rx="21.5" fill="url(#paint6_linear)" stroke="#00ABFE" stroke-width="3"/>
<path d="M65.984 400.064C64.992 400.064 64.224 399.808 63.68 399.296C63.1467 398.773 62.88 398.011 62.88 397.008V391.248C62.88 390.213 63.1573 389.424 63.712 388.88C64.2667 388.336 65.0293 388.064 66 388.064H68.464C69.4667 388.064 70.2187 388.347 70.72 388.912C71.2213 389.467 71.472 390.245 71.472 391.248V397.008C71.472 398 71.2053 398.757 70.672 399.28C70.1493 399.803 69.4133 400.064 68.464 400.064H65.984ZM66.544 397.936H67.824C68.6773 397.936 69.104 397.509 69.104 396.656V391.472C69.104 391.003 68.9973 390.672 68.784 390.48C68.5707 390.288 68.2827 390.192 67.92 390.192H66.464C65.6533 390.192 65.248 390.619 65.248 391.472V396.64C65.248 397.099 65.36 397.429 65.584 397.632C65.808 397.835 66.128 397.936 66.544 397.936ZM74.9514 400V390.32L72.8554 390.592V389.072L75.2074 388.048H77.3194V400H74.9514ZM87.2278 396.016V394.704H91.9798V396.016H87.2278ZM97.793 400V388.208H102.561C103.542 388.208 104.321 388.443 104.897 388.912C105.473 389.381 105.884 390.059 106.129 390.944C106.385 391.819 106.513 392.875 106.513 394.112C106.513 396 106.182 397.456 105.521 398.48C104.86 399.493 103.873 400 102.561 400H97.793ZM99.409 398.56H102.417C103.292 398.56 103.921 398.165 104.305 397.376C104.7 396.587 104.897 395.499 104.897 394.112C104.897 392.981 104.806 392.096 104.625 391.456C104.454 390.805 104.188 390.341 103.825 390.064C103.462 389.787 102.993 389.648 102.417 389.648H99.409V398.56ZM111.183 400.064C110.916 400.075 110.633 400.053 110.335 400C110.036 399.957 109.748 399.861 109.471 399.712C109.204 399.552 108.985 399.312 108.815 398.992C108.644 398.672 108.559 398.235 108.559 397.68V390.672C108.559 390.043 108.681 389.547 108.927 389.184C109.172 388.821 109.481 388.571 109.855 388.432C110.228 388.283 110.612 388.208 111.007 388.208C112.041 388.219 112.959 388.24 113.759 388.272C114.559 388.304 115.3 388.336 115.983 388.368V389.696H111.439C111.044 389.696 110.735 389.797 110.511 390C110.287 390.203 110.175 390.523 110.175 390.96V393.408L115.263 393.504V394.752L110.175 394.864V397.28C110.175 397.643 110.233 397.915 110.351 398.096C110.479 398.277 110.639 398.4 110.831 398.464C111.033 398.528 111.247 398.56 111.471 398.56H115.983V399.888C115.247 399.941 114.457 399.984 113.615 400.016C112.772 400.048 111.961 400.064 111.183 400.064ZM117.996 400V388.208H122.78C123.132 388.208 123.495 388.256 123.868 388.352C124.241 388.437 124.583 388.613 124.892 388.88C125.212 389.147 125.468 389.536 125.66 390.048C125.852 390.549 125.948 391.221 125.948 392.064C125.948 392.907 125.847 393.589 125.644 394.112C125.452 394.635 125.196 395.035 124.876 395.312C124.556 395.589 124.209 395.776 123.836 395.872C123.463 395.968 123.105 396.016 122.764 396.016C122.593 396.016 122.359 396.011 122.06 396C121.772 395.989 121.468 395.973 121.148 395.952C120.828 395.931 120.529 395.909 120.252 395.888C119.975 395.867 119.761 395.845 119.612 395.824V400H117.996ZM119.612 394.576H122.54C122.881 394.576 123.185 394.501 123.452 394.352C123.729 394.203 123.943 393.947 124.092 393.584C124.252 393.211 124.332 392.709 124.332 392.08C124.332 391.451 124.252 390.96 124.092 390.608C123.943 390.256 123.74 390.011 123.484 389.872C123.228 389.723 122.945 389.648 122.636 389.648H119.612V394.576ZM130.242 400C129.485 400 128.877 399.819 128.418 399.456C127.97 399.093 127.746 398.443 127.746 397.504V388.208H129.362V397.264C129.362 397.787 129.485 398.128 129.73 398.288C129.986 398.448 130.285 398.528 130.626 398.528H134.706V400H130.242ZM140.551 400.096C139.783 400.096 139.106 400.027 138.519 399.888C137.943 399.739 137.458 399.456 137.063 399.04C136.679 398.624 136.391 398.027 136.199 397.248C136.007 396.459 135.911 395.424 135.911 394.144C135.911 392.864 136.007 391.829 136.199 391.04C136.402 390.24 136.695 389.632 137.079 389.216C137.474 388.789 137.959 388.501 138.535 388.352C139.122 388.192 139.794 388.112 140.551 388.112C141.33 388.112 142.007 388.192 142.583 388.352C143.17 388.501 143.655 388.789 144.039 389.216C144.434 389.632 144.727 390.24 144.919 391.04C145.111 391.829 145.207 392.864 145.207 394.144C145.207 395.424 145.106 396.459 144.903 397.248C144.711 398.027 144.423 398.624 144.039 399.04C143.655 399.456 143.17 399.739 142.583 399.888C142.007 400.027 141.33 400.096 140.551 400.096ZM140.551 398.656C141.106 398.656 141.575 398.603 141.959 398.496C142.354 398.379 142.669 398.165 142.903 397.856C143.149 397.536 143.325 397.077 143.431 396.48C143.538 395.883 143.591 395.104 143.591 394.144C143.591 393.141 143.538 392.336 143.431 391.728C143.325 391.109 143.149 390.645 142.903 390.336C142.669 390.027 142.354 389.819 141.959 389.712C141.575 389.605 141.106 389.552 140.551 389.552C140.029 389.552 139.575 389.605 139.191 389.712C138.807 389.819 138.493 390.027 138.247 390.336C138.002 390.645 137.815 391.109 137.687 391.728C137.57 392.336 137.511 393.141 137.511 394.144C137.511 395.104 137.559 395.883 137.655 396.48C137.762 397.077 137.933 397.536 138.167 397.856C138.402 398.165 138.711 398.379 139.095 398.496C139.49 398.603 139.975 398.656 140.551 398.656ZM150.004 400V396.192L146.324 388.208H148.004L150.836 394.56L153.684 388.208H155.3L151.62 396.192V400H150.004ZM165.257 400V388.128H170.377C170.771 388.128 171.171 388.176 171.577 388.272C171.993 388.368 172.377 388.555 172.729 388.832C173.081 389.109 173.363 389.525 173.577 390.08C173.79 390.635 173.897 391.376 173.897 392.304C173.897 393.232 173.79 393.984 173.577 394.56C173.363 395.125 173.086 395.552 172.745 395.84C172.414 396.128 172.051 396.325 171.657 396.432C171.262 396.528 170.878 396.576 170.505 396.576C170.249 396.576 169.955 396.56 169.625 396.528C169.305 396.485 169.001 396.443 168.713 396.4C168.425 396.347 168.195 396.309 168.025 396.288V400H165.257ZM168.025 394.096H170.073C170.435 394.096 170.702 393.957 170.873 393.68C171.043 393.392 171.129 392.939 171.129 392.32C171.129 391.733 171.038 391.301 170.857 391.024C170.686 390.747 170.43 390.608 170.089 390.608H168.025V394.096ZM178.327 400.096C178.061 400.096 177.757 400.069 177.415 400.016C177.074 399.963 176.743 399.851 176.423 399.68C176.103 399.499 175.837 399.227 175.623 398.864C175.41 398.491 175.303 397.989 175.303 397.36V390.976C175.303 390.229 175.447 389.653 175.735 389.248C176.034 388.832 176.402 388.544 176.839 388.384C177.277 388.213 177.714 388.128 178.151 388.128C179.421 388.139 180.455 388.165 181.255 388.208C182.055 388.251 182.749 388.299 183.335 388.352V390.688H178.983C178.375 390.688 178.071 390.965 178.071 391.52V392.832L182.551 392.992V395.168L178.071 395.312V396.56C178.071 396.912 178.151 397.157 178.311 397.296C178.471 397.435 178.669 397.504 178.903 397.504H183.335V399.824C182.866 399.877 182.343 399.925 181.767 399.968C181.191 400.011 180.605 400.037 180.007 400.048C179.41 400.069 178.85 400.085 178.327 400.096ZM184.913 400V388.128H189.905C190.566 388.128 191.158 388.24 191.681 388.464C192.214 388.688 192.63 389.083 192.929 389.648C193.238 390.213 193.393 391.008 193.393 392.032C193.393 392.725 193.313 393.291 193.153 393.728C192.993 394.155 192.779 394.491 192.513 394.736C192.246 394.981 191.963 395.179 191.665 395.328L193.793 400H190.977L189.201 395.776C188.977 395.776 188.726 395.776 188.449 395.776C188.171 395.765 187.915 395.76 187.681 395.76V400H184.913ZM187.681 393.568H189.409C189.793 393.568 190.091 393.461 190.305 393.248C190.518 393.024 190.625 392.624 190.625 392.048C190.625 391.483 190.518 391.104 190.305 390.912C190.091 390.709 189.793 390.608 189.409 390.608H187.681V393.568ZM198.717 400.096C198.056 400.096 197.389 400.059 196.717 399.984C196.056 399.899 195.464 399.792 194.941 399.664V397.472C195.443 397.525 196.029 397.563 196.701 397.584C197.373 397.605 197.997 397.616 198.573 397.616C199.139 397.616 199.571 397.547 199.869 397.408C200.179 397.269 200.333 397.008 200.333 396.624V396.32C200.333 396.032 200.237 395.813 200.045 395.664C199.864 395.515 199.629 395.44 199.341 395.44H198.413C197.219 395.44 196.312 395.179 195.693 394.656C195.075 394.133 194.765 393.253 194.765 392.016V391.456C194.765 390.293 195.101 389.435 195.773 388.88C196.456 388.315 197.443 388.032 198.733 388.032C199.427 388.032 200.093 388.08 200.733 388.176C201.373 388.272 201.923 388.373 202.381 388.48V390.656C201.891 390.624 201.341 390.592 200.733 390.56C200.125 390.528 199.571 390.512 199.069 390.512C198.557 390.512 198.147 390.581 197.837 390.72C197.539 390.859 197.389 391.152 197.389 391.6V391.824C197.389 392.485 197.789 392.816 198.589 392.816H199.693C200.419 392.816 201.021 392.955 201.501 393.232C201.992 393.499 202.355 393.872 202.589 394.352C202.835 394.821 202.957 395.355 202.957 395.952V396.544C202.957 397.525 202.781 398.272 202.429 398.784C202.088 399.296 201.597 399.643 200.957 399.824C200.317 400.005 199.571 400.096 198.717 400.096ZM209.241 400.096C208.42 400.096 207.695 400.016 207.065 399.856C206.447 399.696 205.929 399.403 205.513 398.976C205.097 398.549 204.783 397.941 204.569 397.152C204.356 396.363 204.249 395.333 204.249 394.064C204.249 392.805 204.356 391.781 204.569 390.992C204.783 390.192 205.097 389.579 205.513 389.152C205.929 388.725 206.447 388.432 207.065 388.272C207.695 388.101 208.42 388.016 209.241 388.016C210.063 388.016 210.783 388.101 211.401 388.272C212.031 388.432 212.553 388.725 212.969 389.152C213.385 389.579 213.7 390.192 213.913 390.992C214.127 391.781 214.233 392.805 214.233 394.064C214.233 395.333 214.127 396.363 213.913 397.152C213.7 397.941 213.385 398.549 212.969 398.976C212.553 399.403 212.031 399.696 211.401 399.856C210.783 400.016 210.063 400.096 209.241 400.096ZM209.241 397.616C209.817 397.616 210.265 397.525 210.585 397.344C210.916 397.152 211.145 396.805 211.273 396.304C211.401 395.792 211.465 395.045 211.465 394.064C211.465 393.307 211.428 392.693 211.353 392.224C211.289 391.755 211.172 391.397 211.001 391.152C210.841 390.896 210.617 390.725 210.329 390.64C210.041 390.544 209.679 390.496 209.241 390.496C208.815 390.496 208.457 390.544 208.169 390.64C207.881 390.725 207.652 390.896 207.481 391.152C207.321 391.397 207.204 391.755 207.129 392.224C207.055 392.693 207.017 393.307 207.017 394.064C207.017 395.045 207.081 395.792 207.209 396.304C207.337 396.805 207.561 397.152 207.881 397.344C208.201 397.525 208.655 397.616 209.241 397.616ZM215.867 400V388.128H218.059L222.603 395.312V388.128H225.371V400H223.163L218.619 392.832V400H215.867ZM226.426 400L230.042 388.128H233.498L237.114 400H234.25L233.642 397.84H229.866L229.274 400H226.426ZM230.506 395.36H233.002L231.754 390.496L230.506 395.36ZM241.201 400C240.188 400 239.441 399.771 238.961 399.312C238.481 398.853 238.241 398.096 238.241 397.04V388.128H241.009V396.576C241.009 396.917 241.089 397.163 241.249 397.312C241.42 397.451 241.649 397.52 241.937 397.52H245.537V400H241.201ZM254.546 400.096C253.884 400.096 253.218 400.059 252.546 399.984C251.884 399.899 251.292 399.792 250.77 399.664V397.472C251.271 397.525 251.858 397.563 252.53 397.584C253.202 397.605 253.826 397.616 254.402 397.616C254.967 397.616 255.399 397.547 255.698 397.408C256.007 397.269 256.162 397.008 256.162 396.624V396.32C256.162 396.032 256.066 395.813 255.874 395.664C255.692 395.515 255.458 395.44 255.17 395.44H254.242C253.047 395.44 252.14 395.179 251.522 394.656C250.903 394.133 250.594 393.253 250.594 392.016V391.456C250.594 390.293 250.93 389.435 251.602 388.88C252.284 388.315 253.271 388.032 254.562 388.032C255.255 388.032 255.922 388.08 256.562 388.176C257.202 388.272 257.751 388.373 258.21 388.48V390.656C257.719 390.624 257.17 390.592 256.562 390.56C255.954 390.528 255.399 390.512 254.898 390.512C254.386 390.512 253.975 390.581 253.666 390.72C253.367 390.859 253.218 391.152 253.218 391.6V391.824C253.218 392.485 253.618 392.816 254.418 392.816H255.522C256.247 392.816 256.85 392.955 257.33 393.232C257.82 393.499 258.183 393.872 258.418 394.352C258.663 394.821 258.786 395.355 258.786 395.952V396.544C258.786 397.525 258.61 398.272 258.258 398.784C257.916 399.296 257.426 399.643 256.786 399.824C256.146 400.005 255.399 400.096 254.546 400.096ZM263.406 400.096C263.139 400.096 262.835 400.069 262.494 400.016C262.152 399.963 261.822 399.851 261.502 399.68C261.182 399.499 260.915 399.227 260.702 398.864C260.488 398.491 260.382 397.989 260.382 397.36V390.976C260.382 390.229 260.526 389.653 260.814 389.248C261.112 388.832 261.48 388.544 261.918 388.384C262.355 388.213 262.792 388.128 263.23 388.128C264.499 388.139 265.534 388.165 266.334 388.208C267.134 388.251 267.827 388.299 268.414 388.352V390.688H264.062C263.454 390.688 263.15 390.965 263.15 391.52V392.832L267.63 392.992V395.168L263.15 395.312V396.56C263.15 396.912 263.23 397.157 263.39 397.296C263.55 397.435 263.747 397.504 263.982 397.504H268.414V399.824C267.944 399.877 267.422 399.925 266.846 399.968C266.27 400.011 265.683 400.037 265.086 400.048C264.488 400.069 263.928 400.085 263.406 400.096ZM269.991 400V388.128H274.983C275.644 388.128 276.236 388.24 276.759 388.464C277.292 388.688 277.708 389.083 278.007 389.648C278.316 390.213 278.471 391.008 278.471 392.032C278.471 392.725 278.391 393.291 278.231 393.728C278.071 394.155 277.858 394.491 277.591 394.736C277.324 394.981 277.042 395.179 276.743 395.328L278.871 400H276.055L274.279 395.776C274.055 395.776 273.804 395.776 273.527 395.776C273.25 395.765 272.994 395.76 272.759 395.76V400H269.991ZM272.759 393.568H274.487C274.871 393.568 275.17 393.461 275.383 393.248C275.596 393.024 275.703 392.624 275.703 392.048C275.703 391.483 275.596 391.104 275.383 390.912C275.17 390.709 274.871 390.608 274.487 390.608H272.759V393.568ZM282.964 400L279.348 388.128H282.212L284.708 397.008L287.204 388.128H290.036L286.42 400H282.964ZM291.163 400V388.128H293.931V400H291.163ZM299.851 400.096C299.168 400.096 298.56 400.016 298.027 399.856C297.494 399.696 297.04 399.403 296.667 398.976C296.294 398.549 296.006 397.941 295.803 397.152C295.611 396.352 295.515 395.312 295.515 394.032C295.515 392.795 295.616 391.787 295.819 391.008C296.032 390.219 296.326 389.611 296.699 389.184C297.083 388.747 297.542 388.443 298.075 388.272C298.608 388.101 299.206 388.016 299.867 388.016C300.763 388.016 301.531 388.085 302.171 388.224C302.822 388.363 303.323 388.496 303.675 388.624V390.768C303.376 390.704 302.939 390.645 302.363 390.592C301.798 390.528 301.163 390.496 300.459 390.496C300.054 390.496 299.712 390.544 299.435 390.64C299.158 390.725 298.934 390.891 298.763 391.136C298.592 391.371 298.47 391.728 298.395 392.208C298.32 392.677 298.283 393.291 298.283 394.048C298.283 395.008 298.342 395.744 298.459 396.256C298.576 396.768 298.79 397.125 299.099 397.328C299.419 397.52 299.878 397.616 300.475 397.616C301.286 397.616 301.942 397.6 302.443 397.568C302.955 397.536 303.366 397.499 303.675 397.456V399.6C303.259 399.76 302.742 399.883 302.123 399.968C301.515 400.053 300.758 400.096 299.851 400.096ZM308.093 400.096C307.826 400.096 307.522 400.069 307.181 400.016C306.84 399.963 306.509 399.851 306.189 399.68C305.869 399.499 305.602 399.227 305.389 398.864C305.176 398.491 305.069 397.989 305.069 397.36V390.976C305.069 390.229 305.213 389.653 305.501 389.248C305.8 388.832 306.168 388.544 306.605 388.384C307.042 388.213 307.48 388.128 307.917 388.128C309.186 388.139 310.221 388.165 311.021 388.208C311.821 388.251 312.514 388.299 313.101 388.352V390.688H308.749C308.141 390.688 307.837 390.965 307.837 391.52V392.832L312.317 392.992V395.168L307.837 395.312V396.56C307.837 396.912 307.917 397.157 308.077 397.296C308.237 397.435 308.434 397.504 308.669 397.504H313.101V399.824C312.632 399.877 312.109 399.925 311.533 399.968C310.957 400.011 310.37 400.037 309.773 400.048C309.176 400.069 308.616 400.085 308.093 400.096ZM318.342 400.096C317.681 400.096 317.014 400.059 316.342 399.984C315.681 399.899 315.089 399.792 314.566 399.664V397.472C315.068 397.525 315.654 397.563 316.326 397.584C316.998 397.605 317.622 397.616 318.198 397.616C318.764 397.616 319.196 397.547 319.494 397.408C319.804 397.269 319.958 397.008 319.958 396.624V396.32C319.958 396.032 319.862 395.813 319.67 395.664C319.489 395.515 319.254 395.44 318.966 395.44H318.038C316.844 395.44 315.937 395.179 315.318 394.656C314.7 394.133 314.39 393.253 314.39 392.016V391.456C314.39 390.293 314.726 389.435 315.398 388.88C316.081 388.315 317.068 388.032 318.358 388.032C319.052 388.032 319.718 388.08 320.358 388.176C320.998 388.272 321.548 388.373 322.006 388.48V390.656C321.516 390.624 320.966 390.592 320.358 390.56C319.75 390.528 319.196 390.512 318.694 390.512C318.182 390.512 317.772 390.581 317.462 390.72C317.164 390.859 317.014 391.152 317.014 391.6V391.824C317.014 392.485 317.414 392.816 318.214 392.816H319.318C320.044 392.816 320.646 392.955 321.126 393.232C321.617 393.499 321.98 393.872 322.214 394.352C322.46 394.821 322.582 395.355 322.582 395.952V396.544C322.582 397.525 322.406 398.272 322.054 398.784C321.713 399.296 321.222 399.643 320.582 399.824C319.942 400.005 319.196 400.096 318.342 400.096Z" fill="white"/>
<path d="M149.825 236.8C144.849 236.8 140.8 240.849 140.8 245.825C140.8 250.801 144.849 254.85 149.825 254.85C154.801 254.85 158.85 250.801 158.85 245.825C158.85 240.849 154.801 236.8 149.825 236.8ZM149.825 250.683C147.147 250.683 144.967 248.505 144.967 245.825C144.967 243.145 147.147 240.967 149.825 240.967C152.503 240.967 154.683 243.145 154.683 245.825C154.683 248.505 152.503 250.683 149.825 250.683Z" fill="white" stroke="white" stroke-width="0.2"/>
<path d="M228.167 244.933C229.317 244.933 230.25 244.001 230.25 242.85C230.25 241.699 229.317 240.767 228.167 240.767C227.016 240.767 226.083 241.699 226.083 242.85C226.083 244.001 227.016 244.933 228.167 244.933Z" fill="white" stroke="white" stroke-width="0.2"/>
<path d="M220.233 244.933C221.384 244.933 222.317 244.001 222.317 242.85C222.317 241.699 221.384 240.767 220.233 240.767C219.083 240.767 218.15 241.699 218.15 242.85C218.15 244.001 219.083 244.933 220.233 244.933Z" fill="white" stroke="white" stroke-width="0.2"/>
<path d="M232.133 250.883C233.284 250.883 234.217 249.951 234.217 248.8C234.217 247.649 233.284 246.717 232.133 246.717C230.983 246.717 230.05 247.649 230.05 248.8C230.05 249.951 230.983 250.883 232.133 250.883Z" fill="white" stroke="white" stroke-width="0.2"/>
<path d="M224.2 250.883C225.351 250.883 226.283 249.951 226.283 248.8C226.283 247.649 225.351 246.717 224.2 246.717C223.049 246.717 222.117 247.649 222.117 248.8C222.117 249.951 223.049 250.883 224.2 250.883Z" fill="white" stroke="white" stroke-width="0.2"/>
<path d="M212.3 244.933C213.451 244.933 214.383 244.001 214.383 242.85C214.383 241.699 213.451 240.767 212.3 240.767C211.149 240.767 210.217 241.699 210.217 242.85C210.217 244.001 211.149 244.933 212.3 244.933Z" fill="white" stroke="white" stroke-width="0.2"/>
<path d="M216.267 250.883C217.417 250.883 218.35 249.951 218.35 248.8C218.35 247.649 217.417 246.717 216.267 246.717C215.116 246.717 214.183 247.649 214.183 248.8C214.183 249.951 215.116 250.883 216.267 250.883Z" fill="white" stroke="white" stroke-width="0.2"/>
<path d="M204.367 244.933C205.517 244.933 206.45 244.001 206.45 242.85C206.45 241.699 205.517 240.767 204.367 240.767C203.216 240.767 202.283 241.699 202.283 242.85C202.283 244.001 203.216 244.933 204.367 244.933Z" fill="white" stroke="white" stroke-width="0.2"/>
<path d="M208.333 250.883C209.484 250.883 210.417 249.951 210.417 248.8C210.417 247.649 209.484 246.717 208.333 246.717C207.183 246.717 206.25 247.649 206.25 248.8C206.25 249.951 207.183 250.883 208.333 250.883Z" fill="white" stroke="white" stroke-width="0.2"/>
<path d="M196.433 244.933C197.584 244.933 198.517 244.001 198.517 242.85C198.517 241.699 197.584 240.767 196.433 240.767C195.283 240.767 194.35 241.699 194.35 242.85C194.35 244.001 195.283 244.933 196.433 244.933Z" fill="white" stroke="white" stroke-width="0.2"/>
<path d="M200.4 250.883C201.551 250.883 202.483 249.951 202.483 248.8C202.483 247.649 201.551 246.717 200.4 246.717C199.249 246.717 198.317 247.649 198.317 248.8C198.317 249.951 199.249 250.883 200.4 250.883Z" fill="white" stroke="white" stroke-width="0.2"/>
<path d="M138.139 262.581H138.039V262.582C135.288 262.529 133.067 260.274 133.067 257.511V234.139C133.067 231.342 135.342 229.067 138.139 229.067H238.859C241.658 229.067 243.933 231.342 243.933 234.139V257.509C243.933 260.306 241.658 262.581 238.861 262.581H138.139ZM248.1 257.511V234.139C248.1 229.044 243.956 224.9 238.861 224.9H138.139C133.044 224.9 128.9 229.044 128.9 234.139V257.509C128.9 260.41 130.267 262.972 132.364 264.665C130.267 266.359 128.9 268.923 128.9 271.823V295.192C128.9 298.093 130.267 300.655 132.364 302.348C130.267 304.043 128.9 306.607 128.9 309.506V332.875C128.9 337.972 133.044 342.117 138.139 342.117H238.859C243.954 342.117 248.098 337.972 248.098 332.877V309.506C248.098 306.605 246.731 304.043 244.634 302.35C246.733 300.657 248.1 298.093 248.1 295.194V271.823C248.1 268.921 246.733 266.359 244.636 264.667C246.733 262.974 248.1 260.41 248.1 257.511ZM243.933 309.506V332.875C243.933 335.672 241.658 337.948 238.861 337.948H138.139C135.342 337.95 133.067 335.674 133.067 332.877V309.506C133.067 306.709 135.342 304.433 138.139 304.433H238.859C241.658 304.433 243.933 306.709 243.933 309.506ZM243.933 271.823V295.192C243.933 297.989 241.658 300.265 238.861 300.265H138.139C135.342 300.267 133.067 297.991 133.067 295.194V271.823C133.067 269.026 135.342 266.75 138.139 266.75H238.859C241.658 266.75 243.933 269.026 243.933 271.823Z" fill="white" stroke="white" stroke-width="0.2"/>
<path d="M149.825 292.533C154.801 292.533 158.85 288.484 158.85 283.508C158.85 278.532 154.801 274.483 149.825 274.483C144.849 274.483 140.8 278.532 140.8 283.508C140.8 288.484 144.849 292.533 149.825 292.533ZM149.825 278.65C152.503 278.65 154.683 280.829 154.683 283.508C154.683 286.188 152.503 288.367 149.825 288.367C147.147 288.367 144.967 286.188 144.967 283.508C144.967 280.829 147.147 278.65 149.825 278.65Z" fill="white" stroke="white" stroke-width="0.2"/>
<path d="M228.167 282.617C229.317 282.617 230.25 281.684 230.25 280.533C230.25 279.383 229.317 278.45 228.167 278.45C227.016 278.45 226.083 279.383 226.083 280.533C226.083 281.684 227.016 282.617 228.167 282.617Z" fill="white" stroke="white" stroke-width="0.2"/>
<path d="M220.233 282.617C221.384 282.617 222.317 281.684 222.317 280.533C222.317 279.383 221.384 278.45 220.233 278.45C219.083 278.45 218.15 279.383 218.15 280.533C218.15 281.684 219.083 282.617 220.233 282.617Z" fill="white" stroke="white" stroke-width="0.2"/>
<path d="M232.133 288.567C233.284 288.567 234.217 287.634 234.217 286.483C234.217 285.333 233.284 284.4 232.133 284.4C230.983 284.4 230.05 285.333 230.05 286.483C230.05 287.634 230.983 288.567 232.133 288.567Z" fill="white" stroke="white" stroke-width="0.2"/>
<path d="M224.2 288.567C225.351 288.567 226.283 287.634 226.283 286.483C226.283 285.333 225.351 284.4 224.2 284.4C223.049 284.4 222.117 285.333 222.117 286.483C222.117 287.634 223.049 288.567 224.2 288.567Z" fill="white" stroke="white" stroke-width="0.2"/>
<path d="M212.3 282.617C213.451 282.617 214.383 281.684 214.383 280.533C214.383 279.383 213.451 278.45 212.3 278.45C211.149 278.45 210.217 279.383 210.217 280.533C210.217 281.684 211.149 282.617 212.3 282.617Z" fill="white" stroke="white" stroke-width="0.2"/>
<path d="M216.267 288.567C217.417 288.567 218.35 287.634 218.35 286.483C218.35 285.333 217.417 284.4 216.267 284.4C215.116 284.4 214.183 285.333 214.183 286.483C214.183 287.634 215.116 288.567 216.267 288.567Z" fill="white" stroke="white" stroke-width="0.2"/>
<path d="M204.367 282.617C205.517 282.617 206.45 281.684 206.45 280.533C206.45 279.383 205.517 278.45 204.367 278.45C203.216 278.45 202.283 279.383 202.283 280.533C202.283 281.684 203.216 282.617 204.367 282.617Z" fill="white" stroke="white" stroke-width="0.2"/>
<path d="M208.333 288.567C209.484 288.567 210.417 287.634 210.417 286.483C210.417 285.333 209.484 284.4 208.333 284.4C207.183 284.4 206.25 285.333 206.25 286.483C206.25 287.634 207.183 288.567 208.333 288.567Z" fill="white" stroke="white" stroke-width="0.2"/>
<path d="M196.433 282.617C197.584 282.617 198.517 281.684 198.517 280.533C198.517 279.383 197.584 278.45 196.433 278.45C195.283 278.45 194.35 279.383 194.35 280.533C194.35 281.684 195.283 282.617 196.433 282.617Z" fill="white" stroke="white" stroke-width="0.2"/>
<path d="M200.4 288.567C201.551 288.567 202.483 287.634 202.483 286.483C202.483 285.333 201.551 284.4 200.4 284.4C199.249 284.4 198.317 285.333 198.317 286.483C198.317 287.634 199.249 288.567 200.4 288.567Z" fill="white" stroke="white" stroke-width="0.2"/>
<path d="M149.825 330.217C154.801 330.217 158.85 326.168 158.85 321.192C158.85 316.216 154.801 312.167 149.825 312.167C144.849 312.167 140.8 316.216 140.8 321.192C140.8 326.168 144.849 330.217 149.825 330.217ZM149.825 316.333C152.503 316.333 154.683 318.512 154.683 321.192C154.683 323.871 152.503 326.05 149.825 326.05C147.147 326.05 144.967 323.871 144.967 321.192C144.967 318.512 147.147 316.333 149.825 316.333Z" fill="white" stroke="white" stroke-width="0.2"/>
<path d="M228.167 320.3C229.317 320.3 230.25 319.367 230.25 318.217C230.25 317.066 229.317 316.133 228.167 316.133C227.016 316.133 226.083 317.066 226.083 318.217C226.083 319.367 227.016 320.3 228.167 320.3Z" fill="white" stroke="white" stroke-width="0.2"/>
<path d="M220.233 320.3C221.384 320.3 222.317 319.367 222.317 318.217C222.317 317.066 221.384 316.133 220.233 316.133C219.083 316.133 218.15 317.066 218.15 318.217C218.15 319.367 219.083 320.3 220.233 320.3Z" fill="white" stroke="white" stroke-width="0.2"/>
<path d="M232.133 326.25C233.284 326.25 234.217 325.317 234.217 324.167C234.217 323.016 233.284 322.083 232.133 322.083C230.983 322.083 230.05 323.016 230.05 324.167C230.05 325.317 230.983 326.25 232.133 326.25Z" fill="white" stroke="white" stroke-width="0.2"/>
<path d="M224.2 326.25C225.351 326.25 226.283 325.317 226.283 324.167C226.283 323.016 225.351 322.083 224.2 322.083C223.049 322.083 222.117 323.016 222.117 324.167C222.117 325.317 223.049 326.25 224.2 326.25Z" fill="white" stroke="white" stroke-width="0.2"/>
<path d="M212.3 320.3C213.451 320.3 214.383 319.367 214.383 318.217C214.383 317.066 213.451 316.133 212.3 316.133C211.149 316.133 210.217 317.066 210.217 318.217C210.217 319.367 211.149 320.3 212.3 320.3Z" fill="white" stroke="white" stroke-width="0.2"/>
<path d="M216.267 326.25C217.417 326.25 218.35 325.317 218.35 324.167C218.35 323.016 217.417 322.083 216.267 322.083C215.116 322.083 214.183 323.016 214.183 324.167C214.183 325.317 215.116 326.25 216.267 326.25Z" fill="white" stroke="white" stroke-width="0.2"/>
<path d="M204.367 320.3C205.517 320.3 206.45 319.367 206.45 318.217C206.45 317.066 205.517 316.133 204.367 316.133C203.216 316.133 202.283 317.066 202.283 318.217C202.283 319.367 203.216 320.3 204.367 320.3Z" fill="white" stroke="white" stroke-width="0.2"/>
<path d="M208.333 326.25C209.484 326.25 210.417 325.317 210.417 324.167C210.417 323.016 209.484 322.083 208.333 322.083C207.183 322.083 206.25 323.016 206.25 324.167C206.25 325.317 207.183 326.25 208.333 326.25Z" fill="white" stroke="white" stroke-width="0.2"/>
<path d="M196.433 320.3C197.584 320.3 198.517 319.367 198.517 318.217C198.517 317.066 197.584 316.133 196.433 316.133C195.283 316.133 194.35 317.066 194.35 318.217C194.35 319.367 195.283 320.3 196.433 320.3Z" fill="white" stroke="white" stroke-width="0.2"/>
<path d="M200.4 326.25C201.551 326.25 202.483 325.317 202.483 324.167C202.483 323.016 201.551 322.083 200.4 322.083C199.249 322.083 198.317 323.016 198.317 324.167C198.317 325.317 199.249 326.25 200.4 326.25Z" fill="white" stroke="white" stroke-width="0.2"/>
<path d="M599.992 390.064C598.989 390.064 598.221 389.803 597.688 389.28C597.154 388.757 596.888 388 596.888 387.008V381.248C596.888 380.224 597.16 379.44 597.704 378.896C598.258 378.341 599.026 378.064 600.008 378.064H602.472C603.453 378.064 604.2 378.341 604.712 378.896C605.224 379.451 605.48 380.235 605.48 381.248V387.008C605.48 387.989 605.213 388.747 604.68 389.28C604.157 389.803 603.421 390.064 602.472 390.064H599.992ZM601.832 387.936C602.685 387.936 603.112 387.509 603.112 386.656V381.472C603.112 380.619 602.717 380.192 601.928 380.192H600.472C600.077 380.192 599.773 380.304 599.56 380.528C599.357 380.741 599.256 381.056 599.256 381.472V386.64C599.256 387.504 599.688 387.936 600.552 387.936H601.832ZM607.103 388.096L611.055 384.176C611.546 383.707 611.898 383.28 612.111 382.896C612.335 382.512 612.447 382.107 612.447 381.68C612.447 381.232 612.309 380.891 612.031 380.656C611.765 380.421 611.322 380.304 610.703 380.304H607.375V378.448C608.058 378.331 608.687 378.24 609.263 378.176C609.85 378.101 610.485 378.064 611.167 378.064C612.49 378.064 613.429 378.336 613.983 378.88C614.538 379.413 614.815 380.219 614.815 381.296C614.815 382.064 614.661 382.752 614.351 383.36C614.053 383.957 613.573 384.576 612.911 385.216L610.255 387.856H615.183V390H607.103V388.096ZM620.392 384.704H625.144V386.016H620.392V384.704ZM634.861 390.096C633.848 390.096 633.042 389.941 632.445 389.632C631.858 389.312 631.416 388.72 631.117 387.856C630.818 386.981 630.669 385.717 630.669 384.064C630.669 382.496 630.824 381.28 631.133 380.416C631.442 379.552 631.901 378.955 632.509 378.624C633.117 378.283 633.922 378.112 634.925 378.112C635.48 378.112 636.077 378.16 636.717 378.256C637.357 378.341 637.922 378.448 638.413 378.576V379.792C638.072 379.739 637.602 379.685 637.005 379.632C636.408 379.579 635.81 379.552 635.213 379.552C634.456 379.552 633.869 379.675 633.453 379.92C633.048 380.155 632.749 380.597 632.557 381.248C632.365 381.888 632.269 382.832 632.269 384.08C632.269 385.36 632.36 386.325 632.541 386.976C632.722 387.616 633.016 388.059 633.421 388.304C633.826 388.539 634.418 388.656 635.197 388.656C636.488 388.656 637.56 388.592 638.413 388.464V389.696C637.346 389.963 636.162 390.096 634.861 390.096ZM644.465 390.096C643.345 390.096 642.46 389.947 641.809 389.648C641.159 389.349 640.663 388.773 640.321 387.92C639.991 387.067 639.825 385.808 639.825 384.144C639.825 382.48 639.996 381.216 640.337 380.352C640.679 379.477 641.175 378.885 641.825 378.576C642.476 378.267 643.356 378.112 644.465 378.112C645.596 378.112 646.487 378.267 647.137 378.576C647.788 378.885 648.279 379.477 648.609 380.352C648.951 381.216 649.121 382.48 649.121 384.144C649.121 385.808 648.951 387.067 648.609 387.92C648.279 388.773 647.788 389.349 647.137 389.648C646.487 389.947 645.596 390.096 644.465 390.096ZM644.465 388.656C645.255 388.656 645.863 388.544 646.289 388.32C646.716 388.096 647.025 387.664 647.217 387.024C647.409 386.384 647.505 385.424 647.505 384.144C647.505 382.811 647.409 381.819 647.217 381.168C647.025 380.517 646.716 380.085 646.289 379.872C645.873 379.659 645.265 379.552 644.465 379.552C643.697 379.552 643.1 379.664 642.673 379.888C642.257 380.101 641.943 380.533 641.729 381.184C641.527 381.835 641.425 382.821 641.425 384.144C641.425 385.435 641.516 386.4 641.697 387.04C641.889 387.669 642.193 388.096 642.609 388.32C643.036 388.544 643.655 388.656 644.465 388.656ZM651.336 378.208H652.648L658.424 387.248V378.208H660.024V390H658.728L652.952 380.96V390H651.336V378.208ZM662.367 378.208H663.679L669.455 387.248V378.208H671.055V390H669.759L663.983 380.96V390H662.367V378.208ZM675.751 390.064C675.047 390.064 674.449 389.904 673.959 389.584C673.468 389.264 673.223 388.629 673.223 387.68V380.672C673.223 379.808 673.457 379.184 673.927 378.8C674.396 378.405 674.961 378.208 675.623 378.208C676.892 378.208 678.327 378.251 679.927 378.336L680.647 378.368V379.696H676.103C675.26 379.696 674.839 380.117 674.839 380.96V383.408L679.927 383.504V384.752L674.839 384.864V387.28C674.839 387.781 674.956 388.123 675.191 388.304C675.425 388.475 675.74 388.56 676.135 388.56H680.647V389.888C678.812 390.005 677.18 390.064 675.751 390.064ZM686.564 390.096C685.551 390.096 684.746 389.941 684.148 389.632C683.562 389.312 683.119 388.72 682.82 387.856C682.522 386.981 682.372 385.717 682.372 384.064C682.372 382.496 682.527 381.28 682.836 380.416C683.146 379.552 683.604 378.955 684.212 378.624C684.82 378.283 685.626 378.112 686.628 378.112C687.183 378.112 687.78 378.16 688.42 378.256C689.06 378.341 689.626 378.448 690.116 378.576V379.792C689.775 379.739 689.306 379.685 688.708 379.632C688.111 379.579 687.514 379.552 686.916 379.552C686.159 379.552 685.572 379.675 685.156 379.92C684.751 380.155 684.452 380.597 684.26 381.248C684.068 381.888 683.972 382.832 683.972 384.08C683.972 385.36 684.063 386.325 684.244 386.976C684.426 387.616 684.719 388.059 685.124 388.304C685.53 388.539 686.122 388.656 686.9 388.656C688.191 388.656 689.263 388.592 690.116 388.464V389.696C689.05 389.963 687.866 390.096 686.564 390.096ZM694.581 379.648H691.061V378.208H699.717V379.648H696.197V390H694.581V379.648ZM708.642 378.208H710.69L714.626 390H712.946L711.906 386.912H707.394L706.37 390H704.706L708.642 378.208ZM711.506 385.456L709.65 379.6L707.778 385.456H711.506ZM724.424 390.096C723.41 390.096 722.605 389.941 722.008 389.632C721.421 389.312 720.978 388.72 720.68 387.856C720.381 386.981 720.232 385.717 720.232 384.064C720.232 382.496 720.386 381.28 720.696 380.416C721.005 379.552 721.464 378.955 722.072 378.624C722.68 378.283 723.485 378.112 724.488 378.112C725.042 378.112 725.64 378.16 726.28 378.256C726.92 378.341 727.485 378.448 727.976 378.576V379.792C727.634 379.739 727.165 379.685 726.568 379.632C725.97 379.579 725.373 379.552 724.776 379.552C724.018 379.552 723.432 379.675 723.016 379.92C722.61 380.155 722.312 380.597 722.12 381.248C721.928 381.888 721.832 382.832 721.832 384.08C721.832 385.36 721.922 386.325 722.104 386.976C722.285 387.616 722.578 388.059 722.984 388.304C723.389 388.539 723.981 388.656 724.76 388.656C726.05 388.656 727.122 388.592 727.976 388.464V389.696C726.909 389.963 725.725 390.096 724.424 390.096ZM732.328 390C731.517 390 730.899 389.808 730.472 389.424C730.045 389.04 729.832 388.4 729.832 387.504V378.208H731.448V387.264C731.448 387.744 731.56 388.075 731.784 388.256C732.008 388.437 732.317 388.528 732.712 388.528H736.792V390H732.328ZM738.363 378.208H739.979V390H738.363V378.208ZM744.844 390.064C744.14 390.064 743.543 389.904 743.052 389.584C742.562 389.264 742.316 388.629 742.316 387.68V380.672C742.316 379.808 742.551 379.184 743.02 378.8C743.49 378.405 744.055 378.208 744.716 378.208C745.986 378.208 747.42 378.251 749.02 378.336L749.74 378.368V379.696H745.196C744.354 379.696 743.932 380.117 743.932 380.96V383.408L749.02 383.504V384.752L743.932 384.864V387.28C743.932 387.781 744.05 388.123 744.284 388.304C744.519 388.475 744.834 388.56 745.228 388.56H749.74V389.888C747.906 390.005 746.274 390.064 744.844 390.064ZM751.93 378.208H753.242L759.018 387.248V378.208H760.618V390H759.322L753.546 380.96V390H751.93V378.208ZM765.393 379.648H761.873V378.208H770.529V379.648H767.009V390H765.393V379.648ZM771.865 390.016C771.79 390.016 771.726 389.989 771.673 389.936C771.619 389.883 771.593 389.819 771.593 389.744V388.352C771.593 388.16 771.683 388.064 771.865 388.064H772.777C772.969 388.064 773.065 388.16 773.065 388.352V389.744C773.065 389.925 772.969 390.016 772.777 390.016H771.865ZM771.865 383.376C771.79 383.376 771.726 383.349 771.673 383.296C771.619 383.243 771.593 383.179 771.593 383.104V381.712C771.593 381.52 771.683 381.424 771.865 381.424H772.777C772.969 381.424 773.065 381.52 773.065 381.712V383.104C773.065 383.285 772.969 383.376 772.777 383.376H771.865ZM577.59 399.128H580.454L582.134 406.888L584.118 399.128H586.614L588.582 406.888L590.262 399.128H593.126L590.342 411H587.558L585.366 403.224L583.158 411H580.374L577.59 399.128ZM598.765 411.096C597.581 411.096 596.631 410.936 595.917 410.616C595.213 410.296 594.679 409.704 594.317 408.84C593.954 407.965 593.773 406.707 593.773 405.064C593.773 403.421 593.954 402.163 594.317 401.288C594.679 400.413 595.213 399.816 595.917 399.496C596.631 399.176 597.581 399.016 598.765 399.016C599.949 399.016 600.893 399.176 601.597 399.496C602.311 399.816 602.85 400.413 603.213 401.288C603.575 402.163 603.757 403.421 603.757 405.064C603.757 406.707 603.575 407.965 603.213 408.84C602.85 409.704 602.311 410.296 601.597 410.616C600.893 410.936 599.949 411.096 598.765 411.096ZM598.765 408.616C599.373 408.616 599.831 408.525 600.141 408.344C600.45 408.152 600.669 407.805 600.797 407.304C600.925 406.803 600.989 406.056 600.989 405.064C600.989 404.04 600.925 403.277 600.797 402.776C600.669 402.275 600.45 401.939 600.141 401.768C599.842 401.587 599.383 401.496 598.765 401.496C598.157 401.496 597.698 401.587 597.389 401.768C597.09 401.939 596.871 402.275 596.733 402.776C596.605 403.277 596.541 404.04 596.541 405.064C596.541 406.056 596.605 406.803 596.733 407.304C596.861 407.805 597.079 408.152 597.389 408.344C597.698 408.525 598.157 408.616 598.765 408.616ZM605.342 399.128H610.334C611.433 399.128 612.286 399.421 612.894 400.008C613.513 400.584 613.822 401.592 613.822 403.032C613.822 403.992 613.668 404.712 613.358 405.192C613.06 405.672 612.638 406.051 612.094 406.328L614.222 411H611.406L609.63 406.776C609.332 406.765 608.825 406.76 608.11 406.76V411H605.342V399.128ZM609.838 404.568C610.244 404.568 610.548 404.456 610.75 404.232C610.953 403.997 611.054 403.603 611.054 403.048C611.054 402.504 610.953 402.131 610.75 401.928C610.548 401.715 610.244 401.608 609.838 401.608H608.11V404.568H609.838ZM615.483 399.128H618.251V403.88H619.643L621.787 399.128H624.715L621.835 405.096L624.843 411H621.915L619.643 406.36H618.251V411H615.483V399.128ZM629.71 411.096C629.048 411.096 628.382 411.059 627.71 410.984C627.048 410.909 626.456 410.803 625.934 410.664V408.472C626.947 408.568 628.158 408.616 629.566 408.616C630.163 408.616 630.606 408.547 630.894 408.408C631.182 408.259 631.326 407.997 631.326 407.624V407.32C631.326 407.043 631.235 406.829 631.054 406.68C630.872 406.52 630.632 406.44 630.334 406.44H629.406C628.179 406.44 627.262 406.173 626.654 405.64C626.056 405.096 625.758 404.221 625.758 403.016V402.456C625.758 401.304 626.094 400.445 626.766 399.88C627.438 399.315 628.424 399.032 629.726 399.032C630.846 399.032 632.062 399.181 633.374 399.48V401.656C631.891 401.56 630.787 401.512 630.062 401.512C629.496 401.512 629.075 401.592 628.798 401.752C628.52 401.901 628.382 402.184 628.382 402.6V402.824C628.382 403.485 628.782 403.816 629.582 403.816H630.686C631.742 403.816 632.547 404.104 633.102 404.68C633.667 405.256 633.95 406.013 633.95 406.952V407.544C633.95 408.493 633.779 409.229 633.438 409.752C633.107 410.264 632.638 410.616 632.03 410.808C631.422 411 630.648 411.096 629.71 411.096ZM637.978 401.608H634.858V399.128H643.85V401.608H640.73V411H637.978V401.608ZM647.081 399.128H650.537L654.153 411H651.289L650.681 408.84H646.905L646.313 411H643.465L647.081 399.128ZM650.041 406.36L648.793 401.496L647.545 406.36H650.041ZM656.915 401.608H653.795V399.128H662.787V401.608H659.667V411H656.915V401.608ZM663.983 399.128H666.751V411H663.983V399.128ZM673.327 411.096C672.143 411.096 671.194 410.936 670.479 410.616C669.775 410.296 669.242 409.704 668.879 408.84C668.517 407.965 668.335 406.707 668.335 405.064C668.335 403.421 668.517 402.163 668.879 401.288C669.242 400.413 669.775 399.816 670.479 399.496C671.194 399.176 672.143 399.016 673.327 399.016C674.511 399.016 675.455 399.176 676.159 399.496C676.874 399.816 677.413 400.413 677.775 401.288C678.138 402.163 678.319 403.421 678.319 405.064C678.319 406.707 678.138 407.965 677.775 408.84C677.413 409.704 676.874 410.296 676.159 410.616C675.455 410.936 674.511 411.096 673.327 411.096ZM673.327 408.616C673.935 408.616 674.394 408.525 674.703 408.344C675.013 408.152 675.231 407.805 675.359 407.304C675.487 406.803 675.551 406.056 675.551 405.064C675.551 404.04 675.487 403.277 675.359 402.776C675.231 402.275 675.013 401.939 674.703 401.768C674.405 401.587 673.946 401.496 673.327 401.496C672.719 401.496 672.261 401.587 671.951 401.768C671.653 401.939 671.434 402.275 671.295 402.776C671.167 403.277 671.103 404.04 671.103 405.064C671.103 406.056 671.167 406.803 671.295 407.304C671.423 407.805 671.642 408.152 671.951 408.344C672.261 408.525 672.719 408.616 673.327 408.616ZM679.953 399.128H682.145L686.689 406.312V399.128H689.457V411H687.249L682.705 403.832V411H679.953V399.128ZM692.112 412.504C691.92 412.504 691.733 412.483 691.552 412.44C691.381 412.408 691.274 412.387 691.232 412.376V411.496C691.402 411.496 691.52 411.469 691.584 411.416C691.658 411.373 691.696 411.288 691.696 411.16V410.808H691.536C691.429 410.808 691.338 410.776 691.264 410.712C691.2 410.648 691.168 410.552 691.168 410.424V408.952C691.168 408.685 691.29 408.552 691.536 408.552H693.104C693.349 408.552 693.472 408.685 693.472 408.952V411.224C693.472 411.704 693.338 412.035 693.072 412.216C692.816 412.408 692.496 412.504 692.112 412.504ZM709.472 411L708.624 403.976L706.832 411H704.24L702.448 404.072L701.648 411H698.976L700.368 399.128H702.992L705.568 407.816L708.128 399.128H710.72L712.128 411H709.472ZM718.077 411.096C716.893 411.096 715.944 410.936 715.229 410.616C714.525 410.296 713.992 409.704 713.629 408.84C713.267 407.965 713.085 406.707 713.085 405.064C713.085 403.421 713.267 402.163 713.629 401.288C713.992 400.413 714.525 399.816 715.229 399.496C715.944 399.176 716.893 399.016 718.077 399.016C719.261 399.016 720.205 399.176 720.909 399.496C721.624 399.816 722.163 400.413 722.525 401.288C722.888 402.163 723.069 403.421 723.069 405.064C723.069 406.707 722.888 407.965 722.525 408.84C722.163 409.704 721.624 410.296 720.909 410.616C720.205 410.936 719.261 411.096 718.077 411.096ZM718.077 408.616C718.685 408.616 719.144 408.525 719.453 408.344C719.763 408.152 719.981 407.805 720.109 407.304C720.237 406.803 720.301 406.056 720.301 405.064C720.301 404.04 720.237 403.277 720.109 402.776C719.981 402.275 719.763 401.939 719.453 401.768C719.155 401.587 718.696 401.496 718.077 401.496C717.469 401.496 717.011 401.587 716.701 401.768C716.403 401.939 716.184 402.275 716.045 402.776C715.917 403.277 715.853 404.04 715.853 405.064C715.853 406.056 715.917 406.803 716.045 407.304C716.173 407.805 716.392 408.152 716.701 408.344C717.011 408.525 717.469 408.616 718.077 408.616ZM724.655 399.128H729.455C731.791 399.128 732.959 400.179 732.959 402.28C732.959 402.973 732.82 403.539 732.543 403.976C732.266 404.413 731.86 404.701 731.327 404.84C731.903 404.979 732.378 405.293 732.751 405.784C733.135 406.275 733.327 406.925 733.327 407.736C733.327 408.899 733.023 409.736 732.415 410.248C731.818 410.749 730.906 411 729.679 411H724.655V399.128ZM729.455 403.912C729.732 403.912 729.946 403.805 730.095 403.592C730.255 403.379 730.335 403.101 730.335 402.76C730.335 402.355 730.25 402.061 730.079 401.88C729.908 401.699 729.695 401.608 729.439 401.608H727.423V403.912H729.455ZM729.599 408.52C729.951 408.52 730.223 408.413 730.415 408.2C730.607 407.987 730.703 407.667 730.703 407.24C730.703 406.856 730.602 406.557 730.399 406.344C730.207 406.12 729.94 406.008 729.599 406.008H727.423V408.52H729.599ZM734.827 399.128H737.595V411H734.827V399.128ZM742.443 411C741.43 411 740.683 410.765 740.203 410.296C739.723 409.827 739.483 409.075 739.483 408.04V399.128H742.251V407.576C742.251 408.205 742.56 408.52 743.179 408.52H746.779V411H742.443ZM751.085 411.096C749.069 411.096 748.061 410.184 748.061 408.36V401.976C748.061 400.963 748.339 400.237 748.893 399.8C749.459 399.352 750.131 399.128 750.909 399.128C752.68 399.139 754.408 399.213 756.093 399.352V401.688H751.741C751.453 401.688 751.229 401.757 751.069 401.896C750.909 402.035 750.829 402.243 750.829 402.52V403.832L755.309 403.992V406.168L750.829 406.312V407.56C750.829 407.88 750.904 408.12 751.053 408.28C751.213 408.429 751.416 408.504 751.661 408.504H756.093V410.824C754.813 410.984 753.144 411.075 751.085 411.096ZM758.487 412.504C758.295 412.504 758.108 412.483 757.927 412.44C757.756 412.408 757.649 412.387 757.607 412.376V411.496C757.777 411.496 757.895 411.469 757.959 411.416C758.033 411.373 758.071 411.288 758.071 411.16V410.808H757.911C757.804 410.808 757.713 410.776 757.639 410.712C757.575 410.648 757.543 410.552 757.543 410.424V408.952C757.543 408.685 757.665 408.552 757.911 408.552H759.479C759.724 408.552 759.847 408.685 759.847 408.952V411.224C759.847 411.704 759.713 412.035 759.447 412.216C759.191 412.408 758.871 412.504 758.487 412.504ZM768.423 411.064C767.719 411.064 767.121 410.904 766.631 410.584C766.14 410.264 765.895 409.629 765.895 408.68V401.672C765.895 400.808 766.129 400.184 766.599 399.8C767.068 399.405 767.633 399.208 768.295 399.208C769.564 399.208 770.999 399.251 772.599 399.336L773.319 399.368V400.696H768.775C767.932 400.696 767.511 401.117 767.511 401.96V404.408L772.599 404.504V405.752L767.511 405.864V408.28C767.511 408.781 767.628 409.123 767.863 409.304C768.097 409.475 768.412 409.56 768.807 409.56H773.319V410.888C771.484 411.005 769.852 411.064 768.423 411.064ZM777.94 400.648H774.42V399.208H783.076V400.648H779.556V411H777.94V400.648ZM788.33 411.096C787.316 411.096 786.511 410.941 785.914 410.632C785.327 410.312 784.884 409.72 784.586 408.856C784.287 407.981 784.138 406.717 784.138 405.064C784.138 403.496 784.292 402.28 784.602 401.416C784.911 400.552 785.37 399.955 785.978 399.624C786.586 399.283 787.391 399.112 788.394 399.112C788.948 399.112 789.546 399.16 790.186 399.256C790.826 399.341 791.391 399.448 791.882 399.576V400.792C791.54 400.739 791.071 400.685 790.474 400.632C789.876 400.579 789.279 400.552 788.682 400.552C787.924 400.552 787.338 400.675 786.922 400.92C786.516 401.155 786.218 401.597 786.026 402.248C785.834 402.888 785.738 403.832 785.738 405.08C785.738 406.36 785.828 407.325 786.01 407.976C786.191 408.616 786.484 409.059 786.89 409.304C787.295 409.539 787.887 409.656 788.666 409.656C789.956 409.656 791.028 409.592 791.882 409.464V410.696C790.815 410.963 789.631 411.096 788.33 411.096Z" fill="white"/>
<path d="M766.929 284H790.5C792.669 284.003 794.426 285.76 794.429 287.929L794.495 303.797C794.497 304.185 794.183 304.5 793.795 304.5H793.624C793.238 304.5 792.925 304.188 792.924 303.803L792.857 287.929C792.857 286.627 791.802 285.571 790.5 285.571H766.929C765.627 285.571 764.571 286.627 764.571 287.929V324.071C764.571 325.373 765.627 326.429 766.929 326.429H790.5C791.802 326.429 792.857 325.373 792.857 324.071L792.926 306.197C792.927 305.812 793.24 305.5 793.626 305.5H793.797C794.185 305.5 794.499 305.815 794.497 306.203L794.429 324.071C794.426 325.938 793.114 327.546 791.286 327.921L786.571 328H770.857L766.143 327.921C764.315 327.546 763.002 325.938 763 324.071V287.929C763.003 285.76 764.76 284.003 766.929 284Z" fill="white"/>
<path d="M778.714 299.714C771.771 299.714 766.143 305.343 766.143 312.286C766.151 319.225 771.775 324.849 778.714 324.857C785.657 324.857 791.286 319.229 791.286 312.286C791.286 305.343 785.657 299.714 778.714 299.714ZM778.714 323.286C772.639 323.286 767.714 318.361 767.714 312.286C767.721 306.213 772.642 301.292 778.714 301.286C784.789 301.286 789.714 306.211 789.714 312.286C789.714 318.361 784.789 323.286 778.714 323.286Z" fill="white"/>
<path d="M778.714 302.857C773.507 302.857 769.286 307.078 769.286 312.286C769.291 317.491 773.509 321.709 778.714 321.714C783.922 321.714 788.143 317.493 788.143 312.286C788.143 307.078 783.922 302.857 778.714 302.857ZM778.714 320.143C774.375 320.143 770.857 316.625 770.857 312.286C770.862 307.948 774.377 304.433 778.714 304.429C783.054 304.429 786.571 307.946 786.571 312.286C786.571 316.625 783.054 320.143 778.714 320.143Z" fill="white"/>
<path d="M778.714 287.143C775.677 287.143 773.214 289.605 773.214 292.643C773.218 295.679 775.678 298.139 778.714 298.143C781.752 298.143 784.214 295.68 784.214 292.643C784.214 289.605 781.752 287.143 778.714 287.143ZM778.714 296.571C776.545 296.571 774.786 294.812 774.786 292.643C774.788 290.474 776.546 288.717 778.714 288.714C780.884 288.714 782.643 290.473 782.643 292.643C782.643 294.812 780.884 296.571 778.714 296.571Z" fill="white"/>
<path d="M778.714 290.286C777.412 290.286 776.357 291.341 776.357 292.643C776.357 293.945 777.412 295 778.714 295C780.016 295 781.071 293.945 781.071 292.643C781.071 291.341 780.016 290.286 778.714 290.286ZM778.714 293.429C778.28 293.429 777.929 293.077 777.929 292.643C777.929 292.209 778.28 291.857 778.714 291.857C779.148 291.857 779.5 292.209 779.5 292.643C779.5 293.077 779.148 293.429 778.714 293.429Z" fill="white"/>
<path d="M778.714 308.357C776.545 308.357 774.786 310.116 774.786 312.286C774.788 314.454 776.546 316.212 778.714 316.214C780.884 316.214 782.643 314.455 782.643 312.286C782.643 310.116 780.884 308.357 778.714 308.357ZM778.714 314.643C777.412 314.643 776.357 313.588 776.357 312.286C776.357 310.984 777.412 309.929 778.714 309.929C780.016 309.929 781.071 310.984 781.071 312.286C781.071 313.588 780.016 314.643 778.714 314.643Z" fill="white"/>
<path d="M721.971 325.291H720.695V293.934C720.695 291.213 718.482 289 715.761 289H680.994C680.464 289 680.034 289.43 680.034 289.96C680.034 290.49 680.464 290.919 680.994 290.919H715.761C717.423 290.919 718.776 292.272 718.776 293.934V325.291H662.736V293.934C662.736 292.272 664.088 290.919 665.75 290.919H677.156C677.686 290.919 678.115 290.49 678.115 289.96C678.115 289.43 677.686 289 677.156 289H665.75C663.03 289 660.816 291.213 660.816 293.934V325.291H659.541C658.691 325.291 658 325.982 658 326.831V329.059C658 331.232 659.768 333 661.941 333H679.766C680.296 333 680.726 332.57 680.726 332.04C680.726 331.51 680.296 331.081 679.766 331.081H661.941C660.826 331.081 659.919 330.174 659.919 329.059V327.21H721.592V329.059C721.592 330.174 720.685 331.081 719.571 331.081H683.605C683.075 331.081 682.645 331.51 682.645 332.04C682.645 332.57 683.075 333 683.605 333H719.571C721.744 333 723.511 331.232 723.511 329.059V326.831C723.511 325.982 722.82 325.291 721.971 325.291Z" fill="white"/>
<path d="M665.167 295.91V320.3C665.167 321.712 666.315 322.86 667.727 322.86H713.785C715.196 322.86 716.345 321.712 716.345 320.3V295.91C716.345 294.499 715.196 293.35 713.785 293.35H667.727C666.315 293.351 665.167 294.499 665.167 295.91ZM714.425 295.91V320.3C714.425 320.653 714.138 320.941 713.785 320.941H667.727C667.373 320.941 667.086 320.653 667.086 320.3V295.91C667.086 295.557 667.373 295.27 667.727 295.27H713.785C714.138 295.27 714.425 295.557 714.425 295.91Z" fill="white"/>
<path d="M592.8 312.4C593.908 312.4 594.99 312.072 595.911 311.456C596.832 310.841 597.55 309.966 597.974 308.943C598.398 307.92 598.508 306.794 598.292 305.708C598.076 304.621 597.543 303.623 596.76 302.84C595.977 302.057 594.979 301.524 593.893 301.308C592.806 301.092 591.68 301.202 590.657 301.626C589.634 302.05 588.759 302.768 588.144 303.689C587.528 304.61 587.2 305.692 587.2 306.8C587.202 308.285 587.792 309.708 588.842 310.758C589.892 311.808 591.315 312.398 592.8 312.4ZM592.8 302.8C593.591 302.8 594.364 303.035 595.022 303.474C595.68 303.914 596.193 304.538 596.496 305.269C596.798 306 596.877 306.804 596.723 307.58C596.569 308.356 596.188 309.069 595.628 309.628C595.069 310.188 594.356 310.569 593.58 310.723C592.804 310.878 592 310.798 591.269 310.496C590.538 310.193 589.914 309.68 589.474 309.022C589.035 308.365 588.8 307.591 588.8 306.8C588.801 305.74 589.223 304.723 589.973 303.973C590.723 303.223 591.739 302.801 592.8 302.8Z" fill="white"/>
<path d="M591.2 304.4V309.2L595.2 306.8L591.2 304.4Z" fill="white"/>
<path d="M586.031 315.6H599.569C601.354 315.6 603.07 314.907 604.355 313.668C605.64 312.428 606.393 310.739 606.457 308.955C606.521 307.171 605.891 305.431 604.698 304.103C603.505 302.775 601.844 301.961 600.063 301.833C599.682 300.537 598.961 299.367 597.975 298.444C596.989 297.52 595.773 296.878 594.455 296.583C593.137 296.288 591.764 296.351 590.478 296.765C589.193 297.18 588.041 297.931 587.144 298.941C587.081 298.944 587.019 298.948 586.957 298.953C585.854 299.042 584.807 299.475 583.963 300.191C583.12 300.907 582.522 301.87 582.254 302.943C581.013 303.756 580.067 304.949 579.557 306.342C579.048 307.736 579.002 309.257 579.426 310.679C579.851 312.101 580.723 313.348 581.912 314.235C583.102 315.121 584.547 315.6 586.031 315.6ZM583.369 304.134C583.469 304.076 583.556 303.996 583.622 303.9C583.689 303.805 583.734 303.696 583.754 303.582C583.895 302.778 584.299 302.045 584.902 301.496C585.505 300.946 586.274 300.613 587.087 300.547C587.182 300.54 587.281 300.536 587.382 300.536C587.419 300.536 587.457 300.536 587.495 300.537C587.619 300.541 587.741 300.515 587.854 300.464C587.966 300.412 588.065 300.335 588.142 300.238C588.851 299.353 589.797 298.688 590.871 298.321C591.944 297.954 593.1 297.9 594.202 298.166C595.305 298.432 596.309 299.007 597.097 299.823C597.884 300.639 598.423 301.663 598.65 302.775C598.687 302.955 598.785 303.118 598.928 303.235C599.071 303.352 599.249 303.415 599.434 303.415H599.57C600.973 303.415 602.319 303.973 603.312 304.965C604.304 305.958 604.862 307.304 604.862 308.708C604.862 310.111 604.304 311.457 603.312 312.45C602.319 313.442 600.973 314 599.57 314H586.031C584.867 314 583.736 313.617 582.813 312.909C581.889 312.202 581.224 311.21 580.921 310.087C580.618 308.964 580.694 307.772 581.136 306.696C581.579 305.62 582.363 304.72 583.369 304.134Z" fill="white"/>
<path d="M579.6 329.2H606C606.954 329.199 607.87 328.819 608.544 328.144C609.219 327.47 609.599 326.554 609.6 325.6V293.345C609.599 292.458 609.246 291.608 608.619 290.981C607.992 290.354 607.141 290.001 606.255 290H579.346C578.459 290.001 577.608 290.354 576.981 290.981C576.354 291.608 576.001 292.458 576 293.345V325.6C576.001 326.554 576.381 327.47 577.056 328.144C577.73 328.819 578.646 329.199 579.6 329.2ZM577.6 293.345C577.601 292.883 577.785 292.439 578.112 292.112C578.439 291.785 578.883 291.601 579.346 291.6H606.255C606.717 291.601 607.161 291.785 607.488 292.112C607.815 292.439 607.999 292.883 608 293.345V320.255C607.999 320.717 607.815 321.161 607.488 321.488C607.161 321.815 606.717 322 606.255 322H579.346C578.883 322 578.439 321.815 578.112 321.488C577.785 321.161 577.601 320.717 577.6 320.255V293.345ZM577.6 323.107C578.125 323.43 578.729 323.601 579.346 323.6H606.255C606.871 323.601 607.475 323.43 608 323.107V325.6C607.999 326.13 607.788 326.639 607.414 327.014C607.039 327.389 606.53 327.599 606 327.6H591.2V325.2H589.6V327.6H588V325.2H586.4V327.6H584.8V325.2H583.2V327.6H581.6V325.2H580V327.6H579.6C579.07 327.599 578.561 327.389 578.186 327.014C577.812 326.639 577.601 326.13 577.6 325.6V323.107Z" fill="white"/>
<path d="M604 325.2H605.6V326.8H604V325.2Z" fill="white"/>
<path d="M600.8 325.2H602.4V326.8H600.8V325.2Z" fill="white"/>
<path d="M597.6 325.2H599.2V326.8H597.6V325.2Z" fill="white"/>
<path d="M621.8 305.2H615C614.417 305.201 613.858 305.433 613.445 305.845C613.033 306.257 612.801 306.817 612.8 307.4V331.8C612.801 332.383 613.033 332.942 613.445 333.355C613.858 333.767 614.417 333.999 615 334H621.8C622.383 333.999 622.942 333.767 623.355 333.355C623.767 332.942 623.999 332.383 624 331.8V307.4C623.999 306.817 623.767 306.257 623.355 305.845C622.942 305.433 622.383 305.201 621.8 305.2ZM616.8 306.8H620L620.001 308.4H616.8V306.8ZM622.4 331.8C622.4 331.959 622.337 332.112 622.224 332.224C622.112 332.337 621.959 332.4 621.8 332.4H615C614.841 332.4 614.688 332.337 614.576 332.224C614.463 332.112 614.4 331.959 614.4 331.8V307.4C614.4 307.241 614.463 307.088 614.576 306.976C614.688 306.863 614.841 306.8 615 306.8H615.2V308.4C615.201 308.824 615.369 309.231 615.669 309.531C615.969 309.831 616.376 309.999 616.8 310H620C620.424 309.999 620.831 309.831 621.131 309.531C621.431 309.231 621.6 308.824 621.6 308.4V306.8H621.8C621.959 306.8 622.112 306.863 622.224 306.976C622.337 307.088 622.4 307.241 622.4 307.4V331.8Z" fill="white"/>
<path d="M618.4 311.875C617.794 311.875 617.202 312.054 616.699 312.391C616.195 312.727 615.802 313.206 615.571 313.765C615.339 314.325 615.278 314.941 615.396 315.535C615.514 316.129 615.806 316.675 616.234 317.103C616.59 317.459 617.029 317.722 617.511 317.868C617.993 318.014 618.503 318.039 618.997 317.941C619.491 317.843 619.954 317.624 620.343 317.305C620.732 316.985 621.037 316.575 621.229 316.109C621.422 315.644 621.497 315.138 621.448 314.637C621.399 314.136 621.226 313.654 620.947 313.236C620.667 312.817 620.288 312.474 619.844 312.236C619.4 311.999 618.904 311.875 618.4 311.875ZM619.434 315.972C619.16 316.246 618.788 316.399 618.4 316.399C618.012 316.399 617.64 316.246 617.366 315.972C617.161 315.767 617.022 315.506 616.965 315.223C616.909 314.939 616.938 314.645 617.049 314.377C617.159 314.11 617.347 313.882 617.587 313.721C617.828 313.56 618.111 313.474 618.4 313.474C618.689 313.474 618.972 313.56 619.213 313.721C619.453 313.882 619.641 314.11 619.751 314.377C619.862 314.645 619.891 314.939 619.835 315.223C619.778 315.506 619.639 315.767 619.434 315.972Z" fill="white"/>
<path d="M616 321.2H617.6V322.8H616V321.2Z" fill="white"/>
<path d="M619.2 321.2H620.8V322.8H619.2V321.2Z" fill="white"/>
<path d="M616 324.4H617.6V326H616V324.4Z" fill="white"/>
<path d="M619.2 324.4H620.8V326H619.2V324.4Z" fill="white"/>
<path d="M616 327.6H617.6V329.2H616V327.6Z" fill="white"/>
<path d="M619.2 327.6H620.8V329.2H619.2V327.6Z" fill="white"/>
<path d="M620 303.52C619.997 301.208 619.078 298.992 617.443 297.357C615.808 295.722 613.592 294.803 611.28 294.8V296.4C613.168 296.402 614.978 297.153 616.312 298.488C617.647 299.822 618.398 301.632 618.4 303.52H620Z" fill="white"/>
<path d="M615.354 303.52H616.954C616.952 302.016 616.354 300.573 615.29 299.51C614.227 298.446 612.784 297.848 611.28 297.846V299.446C612.36 299.447 613.396 299.877 614.16 300.641C614.923 301.404 615.353 302.44 615.354 303.52Z" fill="white"/>
<path d="M613.065 301.735C612.831 301.5 612.553 301.314 612.246 301.187C611.94 301.06 611.612 300.996 611.28 300.997V302.597C611.402 302.597 611.522 302.62 611.634 302.667C611.746 302.713 611.847 302.781 611.933 302.867C612.019 302.953 612.087 303.054 612.133 303.166C612.18 303.278 612.204 303.398 612.204 303.52H613.804C613.804 303.188 613.74 302.86 613.613 302.554C613.486 302.247 613.3 301.969 613.065 301.735Z" fill="white"/>
<path d="M771.201 237.729L771.236 237.694L771.201 237.729C771.507 238.035 772.003 238.035 772.309 237.729L772.273 237.694L772.309 237.729C772.615 237.423 772.615 236.927 772.309 236.621C770.426 234.739 767.379 234.739 765.497 236.621C765.191 236.927 765.191 237.423 765.497 237.729L765.532 237.694L765.497 237.729C765.803 238.035 766.299 238.035 766.605 237.729C767.875 236.459 769.931 236.459 771.201 237.729ZM763.882 235.007L763.847 234.971L763.882 235.007C766.657 232.232 771.148 232.231 773.923 235.007L773.959 234.971L773.923 235.007C774.229 235.313 774.725 235.312 775.031 235.007C775.337 234.701 775.337 234.205 775.031 233.899C773.572 232.44 771.684 231.566 769.652 231.393C769.398 229.512 767.938 228.01 766.079 227.692L765.083 220.523C764.879 219.056 763.609 217.95 762.128 217.95H752.515C751.034 217.95 749.763 219.056 749.56 220.523L749.18 223.257C749.122 223.389 749.1 223.53 749.121 223.68L748.564 227.692C746.515 228.042 744.95 229.83 744.95 231.978V248.022C744.95 250.17 746.515 251.958 748.564 252.308L749.121 256.32C749.1 256.47 749.122 256.611 749.18 256.743L749.56 259.477C749.763 260.944 751.034 262.05 752.515 262.05H762.128C763.609 262.05 764.879 260.944 765.083 259.477L766.079 252.308C768.128 251.958 769.692 250.17 769.692 248.022V244.308C769.692 243.876 769.342 243.525 768.909 243.525C768.477 243.525 768.126 243.876 768.126 244.308V248.022C768.126 249.557 766.878 250.805 765.344 250.805H749.299C747.765 250.805 746.517 249.557 746.517 248.022V231.978C746.517 230.443 747.765 229.195 749.299 229.195H760.318C760.75 229.195 761.101 228.845 761.101 228.412C761.101 227.979 760.75 227.629 760.318 227.629H750.154L750.609 224.356H755.121C755.554 224.356 755.905 224.005 755.905 223.573C755.905 223.14 755.554 222.789 755.121 222.789H750.826L751.111 220.738C751.208 220.042 751.812 219.517 752.515 219.517H762.128C762.831 219.517 763.434 220.042 763.531 220.738L764.488 227.629H764.007C763.574 227.629 763.223 227.979 763.223 228.412C763.223 228.845 763.574 229.195 764.007 229.195H765.344C766.68 229.195 767.799 230.143 768.065 231.401C766.066 231.591 764.212 232.461 762.775 233.899C762.469 234.205 762.469 234.701 762.775 235.007C763.08 235.312 763.576 235.312 763.882 235.007ZM769.91 239.019C769.353 238.462 768.452 238.462 767.895 239.019C767.338 239.576 767.338 240.478 767.895 241.035C768.793 241.932 770.328 241.288 770.328 240.027C770.328 239.647 770.179 239.288 769.91 239.019ZM763.531 259.262C763.434 259.958 762.831 260.483 762.128 260.483H752.515C751.812 260.483 751.208 259.958 751.111 259.262L750.826 257.211H755.121C755.554 257.211 755.905 256.86 755.905 256.427C755.905 255.995 755.554 255.644 755.121 255.644H750.609L750.154 252.371H764.488L763.531 259.262Z" fill="white" stroke="white" stroke-width="0.1"/>
<path d="M682.5 225C683.39 225 684.26 224.736 685 224.242C685.74 223.747 686.317 223.044 686.657 222.222C686.998 221.4 687.087 220.495 686.914 219.622C686.74 218.749 686.311 217.947 685.682 217.318C685.053 216.689 684.251 216.26 683.378 216.086C682.505 215.913 681.6 216.002 680.778 216.343C679.956 216.683 679.253 217.26 678.758 218C678.264 218.74 678 219.61 678 220.5C678.001 221.693 678.476 222.837 679.319 223.681C680.163 224.524 681.307 224.999 682.5 225ZM682.5 217.286C683.136 217.286 683.757 217.474 684.286 217.827C684.814 218.181 685.226 218.683 685.47 219.27C685.713 219.857 685.777 220.504 685.653 221.127C685.528 221.751 685.222 222.323 684.773 222.773C684.323 223.222 683.751 223.529 683.127 223.653C682.504 223.777 681.857 223.713 681.27 223.47C680.683 223.226 680.181 222.814 679.827 222.286C679.474 221.757 679.286 221.136 679.286 220.5C679.287 219.648 679.626 218.831 680.228 218.228C680.831 217.626 681.648 217.287 682.5 217.286Z" fill="white"/>
<path d="M681.214 218.571V222.428L684.429 220.5L681.214 218.571Z" fill="white"/>
<path fill-rule="evenodd" clip-rule="evenodd" d="M708.5 230.015H707.248V221.812C707.248 221.523 707.015 221.289 706.726 221.289C706.437 221.289 706.203 221.523 706.203 221.812V230.015H705.089V220.767C705.089 219.44 704.572 218.192 703.634 217.254C702.695 216.316 701.448 215.8 700.122 215.8C697.384 215.8 695.156 218.028 695.156 220.767V241.337C695.156 242.961 694.523 244.489 693.374 245.637C692.226 246.786 690.699 247.418 689.074 247.418C685.72 247.418 682.992 244.69 682.992 241.337L682.992 240.36H681.947L681.947 241.337C681.947 245.267 685.144 248.463 689.074 248.463C690.978 248.463 692.768 247.722 694.114 246.376C695.46 245.03 696.201 243.241 696.201 241.337V220.767C696.201 218.604 697.96 216.845 700.122 216.845C701.169 216.845 702.154 217.253 702.895 217.993C703.636 218.734 704.043 219.719 704.043 220.767V230.015H702.792C701.147 230.015 699.809 231.353 699.809 232.998V243.187C699.809 243.475 700.042 243.709 700.331 243.709H700.942V248.477C700.942 248.766 701.176 249 701.465 249H709.827C710.116 249 710.35 248.766 710.35 248.477V243.709H710.961C711.249 243.709 711.483 243.475 711.483 243.187V232.998C711.483 231.353 710.145 230.015 708.5 230.015ZM701.987 247.955H709.304H709.305V243.709H701.987V247.955ZM700.854 242.664H710.438L710.438 232.998C710.438 231.93 709.569 231.06 708.5 231.06H702.792C701.723 231.06 700.854 231.93 700.854 232.998V242.664Z" fill="white"/>
<path d="M684.107 240.36L684.107 241.337C684.107 244.076 686.335 246.304 689.074 246.304C690.402 246.304 691.649 245.787 692.586 244.849C693.524 243.911 694.041 242.664 694.041 241.337V220.767C694.041 217.413 696.769 214.685 700.122 214.685C701.746 214.685 703.273 215.317 704.422 216.466C705.339 217.382 705.928 218.537 706.128 219.806C706.173 220.091 706.44 220.287 706.726 220.241C707.011 220.197 707.205 219.929 707.161 219.644C706.926 218.155 706.235 216.801 705.161 215.727C703.814 214.381 702.025 213.64 700.122 213.64C696.193 213.64 692.996 216.837 692.996 220.767V241.337C692.996 242.384 692.588 243.369 691.847 244.11C691.107 244.851 690.122 245.258 689.074 245.258C686.911 245.258 685.152 243.499 685.152 241.337L685.152 240.36H684.107Z" fill="white"/>
<rect x="674" y="201" width="17" height="39" rx="3" stroke="white" stroke-width="1.5"/>
<path d="M638.581 225H621.548C620.608 225.001 619.706 225.375 619.04 226.04C618.375 226.706 618.001 227.608 618 228.548V265.452C618.001 266.392 618.375 267.294 619.04 267.96C619.706 268.625 620.608 268.999 621.548 269H638.581C639.521 268.999 640.423 268.625 641.089 267.96C641.754 267.294 642.128 266.392 642.129 265.452V228.548C642.128 227.608 641.754 226.706 641.089 226.04C640.423 225.375 639.521 225.001 638.581 225ZM634.876 226.419L634.45 228.548H625.679L625.253 226.419H634.876ZM640.71 265.452C640.709 266.016 640.485 266.557 640.085 266.956C639.686 267.355 639.145 267.58 638.581 267.581H621.548C620.984 267.58 620.443 267.355 620.044 266.956C619.644 266.557 619.42 266.016 619.419 265.452V228.548C619.42 227.984 619.644 227.443 620.044 227.044C620.443 226.645 620.984 226.42 621.548 226.419H623.805L624.401 229.397C624.433 229.558 624.52 229.703 624.647 229.807C624.774 229.911 624.933 229.968 625.097 229.968H635.032C635.196 229.968 635.355 229.911 635.482 229.807C635.609 229.703 635.696 229.558 635.728 229.397L636.324 226.419H638.581C639.145 226.42 639.686 226.645 640.085 227.044C640.485 227.443 640.709 227.984 640.71 228.548V265.452Z" fill="white" stroke="white" stroke-width="0.3"/>
<path d="M625.806 264.742H621.548C621.36 264.742 621.18 264.817 621.047 264.95C620.913 265.083 620.839 265.263 620.839 265.452C620.839 265.64 620.913 265.82 621.047 265.953C621.18 266.086 621.36 266.161 621.548 266.161H625.806C625.995 266.161 626.175 266.086 626.308 265.953C626.441 265.82 626.516 265.64 626.516 265.452C626.516 265.263 626.441 265.083 626.308 264.95C626.175 264.817 625.995 264.742 625.806 264.742Z" fill="white" stroke="white" stroke-width="0.3"/>
<path d="M628.645 264.742H627.935C627.747 264.742 627.567 264.817 627.434 264.95C627.301 265.083 627.226 265.263 627.226 265.452C627.226 265.64 627.301 265.82 627.434 265.953C627.567 266.086 627.747 266.161 627.935 266.161H628.645C628.833 266.161 629.014 266.086 629.147 265.953C629.28 265.82 629.355 265.64 629.355 265.452C629.355 265.263 629.28 265.083 629.147 264.95C629.014 264.817 628.833 264.742 628.645 264.742Z" fill="white" stroke="white" stroke-width="0.3"/>
<path d="M1161.25 290C1159.73 290 1158.5 288.768 1158.5 287.25V259.75C1158.5 258.232 1159.73 257 1161.25 257C1162.77 257 1164 258.232 1164 259.75V287.25C1164 288.768 1162.77 290 1161.25 290Z" fill="white"/>
<path d="M1210.75 290C1209.23 290 1208 288.768 1208 287.25V259.75C1208 258.232 1209.23 257 1210.75 257C1212.27 257 1213.5 258.232 1213.5 259.75V287.25C1213.5 288.768 1212.27 290 1210.75 290Z" fill="white"/>
<path d="M1188.75 290H1183.25C1178.7 290 1175 286.299 1175 281.75V265.25C1175 260.702 1178.7 257 1183.25 257H1188.75C1193.3 257 1197 260.702 1197 265.25V281.75C1197 286.299 1193.3 290 1188.75 290ZM1183.25 262.5C1181.74 262.5 1180.5 263.732 1180.5 265.25V281.75C1180.5 283.268 1181.74 284.5 1183.25 284.5H1188.75C1190.26 284.5 1191.5 283.268 1191.5 281.75V265.25C1191.5 263.732 1190.26 262.5 1188.75 262.5H1183.25Z" fill="white"/>
<path d="M1210.75 334C1209.23 334 1208 332.768 1208 331.25V303.75C1208 302.232 1209.23 301 1210.75 301C1212.27 301 1213.5 302.232 1213.5 303.75V331.25C1213.5 332.768 1212.27 334 1210.75 334Z" fill="white"/>
<path d="M1172.25 334H1166.75C1162.2 334 1158.5 330.299 1158.5 325.75V309.25C1158.5 304.701 1162.2 301 1166.75 301H1172.25C1176.8 301 1180.5 304.701 1180.5 309.25V325.75C1180.5 330.299 1176.8 334 1172.25 334ZM1166.75 306.5C1165.24 306.5 1164 307.732 1164 309.25V325.75C1164 327.268 1165.24 328.5 1166.75 328.5H1172.25C1173.76 328.5 1175 327.268 1175 325.75V309.25C1175 307.732 1173.76 306.5 1172.25 306.5H1166.75Z" fill="white"/>
<path d="M1194.25 334C1192.73 334 1191.5 332.768 1191.5 331.25V303.75C1191.5 302.232 1192.73 301 1194.25 301C1195.77 301 1197 302.232 1197 303.75V331.25C1197 332.768 1195.77 334 1194.25 334Z" fill="white"/>
<path d="M1150.25 301H1147.5C1132.34 301 1120 288.664 1120 273.5C1120 258.969 1131.32 247.04 1145.61 246.066C1149.41 227.058 1166.38 213 1186 213C1201.41 213 1215.6 221.679 1222.59 235.242C1239.21 236.986 1252 251.071 1252 268C1252 285.188 1239.1 299.301 1221.99 300.824C1220.61 300.945 1219.14 299.845 1219.01 298.327C1218.88 296.809 1220 295.478 1221.51 295.346C1235.75 294.081 1246.5 282.322 1246.5 268C1246.5 253.442 1235.15 241.408 1220.67 240.605C1219.65 240.55 1218.75 239.939 1218.32 239.021C1212.5 226.558 1199.82 218.5 1186 218.5C1168.32 218.5 1153.13 231.673 1150.66 249.135C1150.47 250.488 1149.31 251.5 1147.94 251.5C1135.37 251.5 1125.5 261.367 1125.5 273.5C1125.5 285.633 1135.37 295.5 1147.5 295.5H1150.25C1151.77 295.5 1153 296.732 1153 298.25C1153 299.768 1151.77 301 1150.25 301Z" fill="white"/>
<path d="M1252 421V32C1252 15.4315 1238.57 2 1222 2H128C111.431 2 98 15.4315 98 32V421" stroke="url(#paint7_linear)" stroke-opacity="0.2" stroke-width="4"/>
<defs>
<linearGradient id="paint0_linear" x1="685.5" y1="47" x2="685.5" y2="100" gradientUnits="userSpaceOnUse">
<stop stop-color="#616892"/>
<stop offset="1" stop-color="#707FA6"/>
</linearGradient>
<linearGradient id="paint1_linear" x1="656" y1="116" x2="686.974" y2="63.3904" gradientUnits="userSpaceOnUse">
<stop stop-color="#FF6E5D"/>
<stop offset="1" stop-color="#B84CB7"/>
<stop offset="1" stop-color="#FF00E6"/>
</linearGradient>
<linearGradient id="paint2_linear" x1="685.5" y1="160" x2="685.5" y2="442" gradientUnits="userSpaceOnUse">
<stop stop-color="#616892"/>
<stop offset="1" stop-color="#707FA6"/>
</linearGradient>
<linearGradient id="paint3_linear" x1="1179.5" y1="160" x2="1179.5" y2="442" gradientUnits="userSpaceOnUse">
<stop stop-color="#616892"/>
<stop offset="1" stop-color="#707FA6"/>
</linearGradient>
<linearGradient id="paint4_linear" x1="414" y1="356" x2="491.507" y2="333.576" gradientUnits="userSpaceOnUse">
<stop stop-color="#FF6E5D"/>
<stop offset="1" stop-color="#B84CB7"/>
<stop offset="1" stop-color="#FF00E6"/>
</linearGradient>
<linearGradient id="paint5_linear" x1="913" y1="356" x2="990.507" y2="333.576" gradientUnits="userSpaceOnUse">
<stop stop-color="#FF6E5D"/>
<stop offset="1" stop-color="#B84CB7"/>
<stop offset="1" stop-color="#FF00E6"/>
</linearGradient>
<linearGradient id="paint6_linear" x1="191.5" y1="160" x2="191.5" y2="442" gradientUnits="userSpaceOnUse">
<stop stop-color="#616892"/>
<stop offset="1" stop-color="#707FA6"/>
</linearGradient>
<linearGradient id="paint7_linear" x1="675" y1="2" x2="675" y2="491.349" gradientUnits="userSpaceOnUse">
<stop stop-color="#616892"/>
<stop offset="1" stop-color="#707FA6"/>
</linearGradient>
</defs>
</svg>
