<svg width="255" height="803" viewBox="0 0 255 803" fill="none" xmlns="http://www.w3.org/2000/svg">
<path d="M11.264 32.192C8.896 32.192 6.99733 31.872 5.568 31.232C4.16 30.592 3.09333 29.408 2.368 27.68C1.64267 25.9307 1.28 23.4133 1.28 20.128C1.28 16.8427 1.64267 14.3253 2.368 12.576C3.09333 10.8267 4.16 9.632 5.568 8.992C6.99733 8.352 8.896 8.032 11.264 8.032C13.632 8.032 15.52 8.352 16.928 8.992C18.3573 9.632 19.4347 10.8267 20.16 12.576C20.8853 14.3253 21.248 16.8427 21.248 20.128C21.248 23.4133 20.8853 25.9307 20.16 27.68C19.4347 29.408 18.3573 30.592 16.928 31.232C15.52 31.872 13.632 32.192 11.264 32.192ZM11.264 27.232C12.48 27.232 13.3973 27.0507 14.016 26.688C14.6347 26.304 15.072 25.6107 15.328 24.608C15.584 23.6053 15.712 22.112 15.712 20.128C15.712 18.08 15.584 16.5547 15.328 15.552C15.072 14.5493 14.6347 13.8773 14.016 13.536C13.4187 13.1733 12.5013 12.992 11.264 12.992C10.048 12.992 9.13067 13.1733 8.512 13.536C7.91467 13.8773 7.47733 14.5493 7.2 15.552C6.944 16.5547 6.816 18.08 6.816 20.128C6.816 22.112 6.944 23.6053 7.2 24.608C7.456 25.6107 7.89333 26.304 8.512 26.688C9.13067 27.0507 10.048 27.232 11.264 27.232ZM35.1825 8.256H40.9105L45.9025 26.016L50.8945 8.256H56.5585L49.3265 32H42.4145L35.1825 8.256ZM76.8485 32.192C72.8165 32.192 70.8005 30.368 70.8005 26.72V13.952C70.8005 11.9253 71.3552 10.4747 72.4645 9.6C73.5952 8.704 74.9392 8.256 76.4965 8.256C80.0378 8.27733 83.4938 8.42666 86.8645 8.704V13.376H78.1605C77.5845 13.376 77.1365 13.5147 76.8165 13.792C76.4965 14.0693 76.3365 14.4853 76.3365 15.04V17.664L85.2965 17.984V22.336L76.3365 22.624V25.12C76.3365 25.76 76.4858 26.24 76.7845 26.56C77.1045 26.8587 77.5098 27.008 78.0005 27.008H86.8645V31.648C84.3045 31.968 80.9658 32.1493 76.8485 32.192ZM102.819 8.256H112.803C115.001 8.256 116.707 8.84267 117.923 10.016C119.161 11.168 119.779 13.184 119.779 16.064C119.779 17.984 119.47 19.424 118.851 20.384C118.254 21.344 117.411 22.1013 116.323 22.656L120.579 32H114.947L111.395 23.552C110.798 23.5307 109.785 23.52 108.355 23.52V32H102.819V8.256ZM111.811 19.136C112.622 19.136 113.23 18.912 113.635 18.464C114.041 17.9947 114.243 17.2053 114.243 16.096C114.243 15.008 114.041 14.2613 113.635 13.856C113.23 13.4293 112.622 13.216 111.811 13.216H108.355V19.136H111.811ZM134.332 8.256H140.06L145.052 26.016L150.044 8.256H155.708L148.476 32H141.564L134.332 8.256ZM170.763 8.256H176.299V32H170.763V8.256ZM198.924 32.192C194.892 32.192 192.876 30.368 192.876 26.72V13.952C192.876 11.9253 193.43 10.4747 194.54 9.6C195.67 8.704 197.014 8.256 198.572 8.256C202.113 8.27733 205.569 8.42666 208.94 8.704V13.376H200.236C199.66 13.376 199.212 13.5147 198.892 13.792C198.572 14.0693 198.412 14.4853 198.412 15.04V17.664L207.372 17.984V22.336L198.412 22.624V25.12C198.412 25.76 198.561 26.24 198.86 26.56C199.18 26.8587 199.585 27.008 200.076 27.008H208.94V31.648C206.38 31.968 203.041 32.1493 198.924 32.192ZM223.326 8.256H229.054L232.414 23.776L236.382 8.256H241.374L245.31 23.776L248.67 8.256H254.398L248.83 32H243.262L238.878 16.448L234.462 32H228.894L223.326 8.256Z" fill="url(#paint0_linear)"/>
<rect x="102" y="43" width="40" height="11" fill="url(#paint1_linear)"/>
<rect x="7.5" y="106.5" width="241" height="181.027" rx="21.5" fill="url(#paint2_linear)" stroke="#00ABFE" stroke-width="3"/>
<path d="M54.984 245.064C53.9813 245.064 53.2133 244.803 52.68 244.28C52.1467 243.757 51.88 243 51.88 242.008V236.248C51.88 235.224 52.152 234.44 52.696 233.896C53.2507 233.341 54.0187 233.064 55 233.064H57.464C58.4453 233.064 59.192 233.341 59.704 233.896C60.216 234.451 60.472 235.235 60.472 236.248V242.008C60.472 242.989 60.2053 243.747 59.672 244.28C59.1493 244.803 58.4133 245.064 57.464 245.064H54.984ZM56.824 242.936C57.6773 242.936 58.104 242.509 58.104 241.656V236.472C58.104 235.619 57.7093 235.192 56.92 235.192H55.464C55.0693 235.192 54.7653 235.304 54.552 235.528C54.3493 235.741 54.248 236.056 54.248 236.472V241.64C54.248 242.504 54.68 242.936 55.544 242.936H56.824ZM63.9514 235.32L61.8554 235.592V234.072L64.2074 233.048H66.3194V245H63.9514V235.32ZM76.2278 239.704H80.9798V241.016H76.2278V239.704ZM86.793 233.208H91.561C92.9797 233.208 93.993 233.704 94.601 234.696C95.209 235.688 95.513 237.16 95.513 239.112C95.513 241.021 95.177 242.483 94.505 243.496C93.8437 244.499 92.8623 245 91.561 245H86.793V233.208ZM91.417 243.56C93.0703 243.56 93.897 242.077 93.897 239.112C93.897 237.992 93.8063 237.107 93.625 236.456C93.4543 235.805 93.1877 235.341 92.825 235.064C92.473 234.787 92.0037 234.648 91.417 234.648H88.409V243.56H91.417ZM100.087 245.064C99.3826 245.064 98.7853 244.904 98.2946 244.584C97.804 244.264 97.5586 243.629 97.5586 242.68V235.672C97.5586 234.808 97.7933 234.184 98.2626 233.8C98.732 233.405 99.2973 233.208 99.9586 233.208C101.228 233.208 102.663 233.251 104.263 233.336L104.983 233.368V234.696H100.439C99.596 234.696 99.1746 235.117 99.1746 235.96V238.408L104.263 238.504V239.752L99.1746 239.864V242.28C99.1746 242.781 99.292 243.123 99.5266 243.304C99.7613 243.475 100.076 243.56 100.471 243.56H104.983V244.888C103.148 245.005 101.516 245.064 100.087 245.064ZM106.996 233.208H111.78C112.687 233.208 113.439 233.475 114.036 234.008C114.644 234.541 114.948 235.56 114.948 237.064C114.948 238.579 114.639 239.619 114.02 240.184C113.401 240.739 112.649 241.016 111.764 241.016C111.433 241.016 110.932 240.995 110.26 240.952C109.599 240.909 109.049 240.867 108.612 240.824V245H106.996V233.208ZM111.54 239.576C112.735 239.576 113.332 238.744 113.332 237.08C113.332 235.459 112.767 234.648 111.636 234.648H108.612V239.576H111.54ZM119.242 245C118.431 245 117.813 244.808 117.386 244.424C116.959 244.04 116.746 243.4 116.746 242.504V233.208H118.362V242.264C118.362 242.744 118.474 243.075 118.698 243.256C118.922 243.437 119.231 243.528 119.626 243.528H123.706V245H119.242ZM129.551 245.096C128.431 245.096 127.546 244.947 126.895 244.648C126.245 244.349 125.749 243.773 125.407 242.92C125.077 242.067 124.911 240.808 124.911 239.144C124.911 237.48 125.082 236.216 125.423 235.352C125.765 234.477 126.261 233.885 126.911 233.576C127.562 233.267 128.442 233.112 129.551 233.112C130.682 233.112 131.573 233.267 132.223 233.576C132.874 233.885 133.365 234.477 133.695 235.352C134.037 236.216 134.207 237.48 134.207 239.144C134.207 240.808 134.037 242.067 133.695 242.92C133.365 243.773 132.874 244.349 132.223 244.648C131.573 244.947 130.682 245.096 129.551 245.096ZM129.551 243.656C130.341 243.656 130.949 243.544 131.375 243.32C131.802 243.096 132.111 242.664 132.303 242.024C132.495 241.384 132.591 240.424 132.591 239.144C132.591 237.811 132.495 236.819 132.303 236.168C132.111 235.517 131.802 235.085 131.375 234.872C130.959 234.659 130.351 234.552 129.551 234.552C128.783 234.552 128.186 234.664 127.759 234.888C127.343 235.101 127.029 235.533 126.815 236.184C126.613 236.835 126.511 237.821 126.511 239.144C126.511 240.435 126.602 241.4 126.783 242.04C126.975 242.669 127.279 243.096 127.695 243.32C128.122 243.544 128.741 243.656 129.551 243.656ZM139.004 241.192L135.324 233.208H137.004L139.836 239.56L142.684 233.208H144.3L140.62 241.192V245H139.004V241.192ZM153.447 233.208H155.495L159.431 245H157.751L156.711 241.912H152.199L151.175 245H149.511L153.447 233.208ZM156.311 240.456L154.455 234.6L152.583 240.456H156.311ZM51.944 254.128H57.064C58.088 254.128 58.9307 254.411 59.592 254.976C60.2533 255.531 60.584 256.64 60.584 258.304C60.584 259.979 60.2587 261.109 59.608 261.696C58.9573 262.283 58.152 262.576 57.192 262.576C56.7333 262.576 56.2213 262.533 55.656 262.448C55.0907 262.352 54.776 262.299 54.712 262.288V266H51.944V254.128ZM56.76 260.096C57.1227 260.096 57.3893 259.957 57.56 259.68C57.7307 259.392 57.816 258.939 57.816 258.32C57.816 257.179 57.4693 256.608 56.776 256.608H54.712V260.096H56.76ZM65.0149 266.096C62.9989 266.096 61.9909 265.184 61.9909 263.36V256.976C61.9909 255.963 62.2682 255.237 62.8229 254.8C63.3882 254.352 64.0602 254.128 64.8389 254.128C66.6095 254.139 68.3375 254.213 70.0229 254.352V256.688H65.6709C65.3829 256.688 65.1589 256.757 64.9989 256.896C64.8389 257.035 64.7589 257.243 64.7589 257.52V258.832L69.2389 258.992V261.168L64.7589 261.312V262.56C64.7589 262.88 64.8335 263.12 64.9829 263.28C65.1429 263.429 65.3455 263.504 65.5909 263.504H70.0229V265.824C68.7429 265.984 67.0735 266.075 65.0149 266.096ZM71.6003 254.128H76.5923C77.6909 254.128 78.5443 254.421 79.1523 255.008C79.7709 255.584 80.0803 256.592 80.0803 258.032C80.0803 258.992 79.9256 259.712 79.6163 260.192C79.3176 260.672 78.8963 261.051 78.3523 261.328L80.4803 266H77.6643L75.8883 261.776C75.5896 261.765 75.0829 261.76 74.3683 261.76V266H71.6003V254.128ZM76.0963 259.568C76.5016 259.568 76.8056 259.456 77.0083 259.232C77.2109 258.997 77.3123 258.603 77.3123 258.048C77.3123 257.504 77.2109 257.131 77.0083 256.928C76.8056 256.715 76.5016 256.608 76.0963 256.608H74.3683V259.568H76.0963ZM85.4049 266.096C84.7435 266.096 84.0769 266.059 83.4049 265.984C82.7435 265.909 82.1515 265.803 81.6289 265.664V263.472C82.6422 263.568 83.8529 263.616 85.2609 263.616C85.8582 263.616 86.3009 263.547 86.5889 263.408C86.8769 263.259 87.0209 262.997 87.0209 262.624V262.32C87.0209 262.043 86.9302 261.829 86.7489 261.68C86.5675 261.52 86.3275 261.44 86.0289 261.44H85.1009C83.8742 261.44 82.9569 261.173 82.3489 260.64C81.7515 260.096 81.4529 259.221 81.4529 258.016V257.456C81.4529 256.304 81.7889 255.445 82.4609 254.88C83.1329 254.315 84.1195 254.032 85.4209 254.032C86.5409 254.032 87.7569 254.181 89.0689 254.48V256.656C87.5862 256.56 86.4822 256.512 85.7569 256.512C85.1915 256.512 84.7702 256.592 84.4929 256.752C84.2155 256.901 84.0769 257.184 84.0769 257.6V257.824C84.0769 258.485 84.4769 258.816 85.2769 258.816H86.3809C87.4369 258.816 88.2422 259.104 88.7969 259.68C89.3622 260.256 89.6449 261.013 89.6449 261.952V262.544C89.6449 263.493 89.4742 264.229 89.1329 264.752C88.8022 265.264 88.3329 265.616 87.7249 265.808C87.1169 266 86.3435 266.096 85.4049 266.096ZM95.9289 266.096C94.7449 266.096 93.7955 265.936 93.0809 265.616C92.3769 265.296 91.8435 264.704 91.4809 263.84C91.1182 262.965 90.9369 261.707 90.9369 260.064C90.9369 258.421 91.1182 257.163 91.4809 256.288C91.8435 255.413 92.3769 254.816 93.0809 254.496C93.7955 254.176 94.7449 254.016 95.9289 254.016C97.1129 254.016 98.0569 254.176 98.7609 254.496C99.4755 254.816 100.014 255.413 100.377 256.288C100.74 257.163 100.921 258.421 100.921 260.064C100.921 261.707 100.74 262.965 100.377 263.84C100.014 264.704 99.4755 265.296 98.7609 265.616C98.0569 265.936 97.1129 266.096 95.9289 266.096ZM95.9289 263.616C96.5369 263.616 96.9955 263.525 97.3049 263.344C97.6142 263.152 97.8329 262.805 97.9609 262.304C98.0889 261.803 98.1529 261.056 98.1529 260.064C98.1529 259.04 98.0889 258.277 97.9609 257.776C97.8329 257.275 97.6142 256.939 97.3049 256.768C97.0062 256.587 96.5475 256.496 95.9289 256.496C95.3209 256.496 94.8622 256.587 94.5529 256.768C94.2542 256.939 94.0355 257.275 93.8969 257.776C93.7689 258.277 93.7049 259.04 93.7049 260.064C93.7049 261.056 93.7689 261.803 93.8969 262.304C94.0249 262.805 94.2435 263.152 94.5529 263.344C94.8622 263.525 95.3209 263.616 95.9289 263.616ZM102.555 254.128H104.747L109.291 261.312V254.128H112.059V266H109.851L105.307 258.832V266H102.555V254.128ZM116.729 254.128H120.185L123.801 266H120.937L120.329 263.84H116.553L115.961 266H113.113L116.729 254.128ZM119.689 261.36L118.441 256.496L117.193 261.36H119.689ZM127.888 266C126.875 266 126.128 265.765 125.648 265.296C125.168 264.827 124.928 264.075 124.928 263.04V254.128H127.696V262.576C127.696 263.205 128.006 263.52 128.624 263.52H132.224V266H127.888ZM141.233 266.096C140.572 266.096 139.905 266.059 139.233 265.984C138.572 265.909 137.98 265.803 137.457 265.664V263.472C138.47 263.568 139.681 263.616 141.089 263.616C141.686 263.616 142.129 263.547 142.417 263.408C142.705 263.259 142.849 262.997 142.849 262.624V262.32C142.849 262.043 142.758 261.829 142.577 261.68C142.396 261.52 142.156 261.44 141.857 261.44H140.929C139.702 261.44 138.785 261.173 138.177 260.64C137.58 260.096 137.281 259.221 137.281 258.016V257.456C137.281 256.304 137.617 255.445 138.289 254.88C138.961 254.315 139.948 254.032 141.249 254.032C142.369 254.032 143.585 254.181 144.897 254.48V256.656C143.414 256.56 142.31 256.512 141.585 256.512C141.02 256.512 140.598 256.592 140.321 256.752C140.044 256.901 139.905 257.184 139.905 257.6V257.824C139.905 258.485 140.305 258.816 141.105 258.816H142.209C143.265 258.816 144.07 259.104 144.625 259.68C145.19 260.256 145.473 261.013 145.473 261.952V262.544C145.473 263.493 145.302 264.229 144.961 264.752C144.63 265.264 144.161 265.616 143.553 265.808C142.945 266 142.172 266.096 141.233 266.096ZM150.093 266.096C148.077 266.096 147.069 265.184 147.069 263.36V256.976C147.069 255.963 147.346 255.237 147.901 254.8C148.466 254.352 149.138 254.128 149.917 254.128C151.688 254.139 153.416 254.213 155.101 254.352V256.688H150.749C150.461 256.688 150.237 256.757 150.077 256.896C149.917 257.035 149.837 257.243 149.837 257.52V258.832L154.317 258.992V261.168L149.837 261.312V262.56C149.837 262.88 149.912 263.12 150.061 263.28C150.221 263.429 150.424 263.504 150.669 263.504H155.101V265.824C153.821 265.984 152.152 266.075 150.093 266.096ZM156.678 254.128H161.67C162.769 254.128 163.622 254.421 164.23 255.008C164.849 255.584 165.158 256.592 165.158 258.032C165.158 258.992 165.004 259.712 164.694 260.192C164.396 260.672 163.974 261.051 163.43 261.328L165.558 266H162.742L160.966 261.776C160.668 261.765 160.161 261.76 159.446 261.76V266H156.678V254.128ZM161.174 259.568C161.58 259.568 161.884 259.456 162.086 259.232C162.289 258.997 162.39 258.603 162.39 258.048C162.39 257.504 162.289 257.131 162.086 256.928C161.884 256.715 161.58 256.608 161.174 256.608H159.446V259.568H161.174ZM166.035 254.128H168.899L171.395 263.008L173.891 254.128H176.723L173.107 266H169.651L166.035 254.128ZM180.468 266.096C178.452 266.096 177.444 265.184 177.444 263.36V256.976C177.444 255.963 177.721 255.237 178.276 254.8C178.841 254.352 179.513 254.128 180.292 254.128C182.063 254.139 183.791 254.213 185.476 254.352V256.688H181.124C180.836 256.688 180.612 256.757 180.452 256.896C180.292 257.035 180.212 257.243 180.212 257.52V258.832L184.692 258.992V261.168L180.212 261.312V262.56C180.212 262.88 180.287 263.12 180.436 263.28C180.596 263.429 180.799 263.504 181.044 263.504H185.476V265.824C184.196 265.984 182.527 266.075 180.468 266.096ZM187.053 254.128H192.045C193.144 254.128 193.997 254.421 194.605 255.008C195.224 255.584 195.533 256.592 195.533 258.032C195.533 258.992 195.379 259.712 195.069 260.192C194.771 260.672 194.349 261.051 193.805 261.328L195.933 266H193.117L191.341 261.776C191.043 261.765 190.536 261.76 189.821 261.76V266H187.053V254.128ZM191.549 259.568C191.955 259.568 192.259 259.456 192.461 259.232C192.664 258.997 192.765 258.603 192.765 258.048C192.765 257.504 192.664 257.131 192.461 256.928C192.259 256.715 191.955 256.608 191.549 256.608H189.821V259.568H191.549Z" fill="white"/>
<path d="M100.147 147.412C96.9853 147.412 94.4126 149.985 94.4126 153.147C94.4126 156.308 96.9853 158.881 100.147 158.881C103.309 158.881 105.881 156.308 105.881 153.147C105.881 149.985 103.309 147.412 100.147 147.412ZM100.147 156.177C98.4768 156.177 97.1167 154.818 97.1167 153.147C97.1167 151.475 98.4768 150.117 100.147 150.117C101.817 150.117 103.177 151.475 103.177 153.147C103.177 154.818 101.817 156.177 100.147 156.177Z" fill="white" stroke="white" stroke-width="0.2"/>
<path d="M149.604 152.621C150.351 152.621 150.956 152.015 150.956 151.269C150.956 150.522 150.351 149.917 149.604 149.917C148.857 149.917 148.252 150.522 148.252 151.269C148.252 152.015 148.857 152.621 149.604 152.621Z" fill="white" stroke="white" stroke-width="0.2"/>
<path d="M144.596 152.621C145.342 152.621 145.948 152.015 145.948 151.269C145.948 150.522 145.342 149.917 144.596 149.917C143.849 149.917 143.244 150.522 143.244 151.269C143.244 152.015 143.849 152.621 144.596 152.621Z" fill="white" stroke="white" stroke-width="0.2"/>
<path d="M152.108 156.377C152.855 156.377 153.46 155.772 153.46 155.025C153.46 154.278 152.855 153.673 152.108 153.673C151.361 153.673 150.756 154.278 150.756 155.025C150.756 155.772 151.361 156.377 152.108 156.377Z" fill="white" stroke="white" stroke-width="0.2"/>
<path d="M147.1 156.377C147.846 156.377 148.452 155.772 148.452 155.025C148.452 154.278 147.846 153.673 147.1 153.673C146.353 153.673 145.748 154.278 145.748 155.025C145.748 155.772 146.353 156.377 147.1 156.377Z" fill="white" stroke="white" stroke-width="0.2"/>
<path d="M139.587 152.621C140.334 152.621 140.939 152.015 140.939 151.269C140.939 150.522 140.334 149.917 139.587 149.917C138.841 149.917 138.235 150.522 138.235 151.269C138.235 152.015 138.841 152.621 139.587 152.621Z" fill="white" stroke="white" stroke-width="0.2"/>
<path d="M142.091 156.377C142.838 156.377 143.444 155.772 143.444 155.025C143.444 154.278 142.838 153.673 142.091 153.673C141.345 153.673 140.739 154.278 140.739 155.025C140.739 155.772 141.345 156.377 142.091 156.377Z" fill="white" stroke="white" stroke-width="0.2"/>
<path d="M134.579 152.621C135.326 152.621 135.931 152.015 135.931 151.269C135.931 150.522 135.326 149.917 134.579 149.917C133.832 149.917 133.227 150.522 133.227 151.269C133.227 152.015 133.832 152.621 134.579 152.621Z" fill="white" stroke="white" stroke-width="0.2"/>
<path d="M137.083 156.377C137.83 156.377 138.435 155.772 138.435 155.025C138.435 154.278 137.83 153.673 137.083 153.673C136.336 153.673 135.731 154.278 135.731 155.025C135.731 155.772 136.336 156.377 137.083 156.377Z" fill="white" stroke="white" stroke-width="0.2"/>
<path d="M129.571 152.621C130.317 152.621 130.923 152.015 130.923 151.269C130.923 150.522 130.317 149.917 129.571 149.917C128.824 149.917 128.219 150.522 128.219 151.269C128.219 152.015 128.824 152.621 129.571 152.621Z" fill="white" stroke="white" stroke-width="0.2"/>
<path d="M132.075 156.377C132.822 156.377 133.427 155.772 133.427 155.025C133.427 154.278 132.822 153.673 132.075 153.673C131.328 153.673 130.723 154.278 130.723 155.025C130.723 155.772 131.328 156.377 132.075 156.377Z" fill="white" stroke="white" stroke-width="0.2"/>
<path d="M92.7696 163.688H92.6799C90.976 163.641 89.6042 162.239 89.6042 160.524V145.77C89.6042 144.024 91.0243 142.604 92.7696 142.604H156.354C158.1 142.604 159.521 144.024 159.521 145.77V160.523C159.521 162.268 158.1 163.688 156.355 163.688H92.7696ZM162.225 160.524V145.77C162.225 142.533 159.592 139.9 156.355 139.9H92.7696C89.5328 139.9 86.9 142.533 86.9 145.77V160.523C86.9 162.35 87.7536 163.965 89.0653 165.04C87.7536 166.117 86.9 167.733 86.9 169.559V184.312C86.9 186.14 87.7536 187.755 89.0652 188.83C87.7536 189.906 86.9 191.523 86.9 193.349V208.102C86.9 211.34 89.5328 213.973 92.7696 213.973H156.354C159.591 213.973 162.223 211.34 162.223 208.103V193.349C162.223 191.521 161.37 189.906 160.058 188.831C161.371 187.756 162.225 186.14 162.225 184.314V169.559C162.225 167.732 161.371 166.117 160.059 165.042C161.371 163.966 162.225 162.35 162.225 160.524ZM159.521 193.349V208.102C159.521 209.847 158.1 211.267 156.355 211.267H92.7696C91.0243 211.268 89.6042 209.848 89.6042 208.103V193.349C89.6042 191.603 91.0243 190.183 92.7696 190.183H156.354C158.1 190.183 159.521 191.603 159.521 193.349ZM159.521 169.559V184.312C159.521 186.058 158.1 187.478 156.355 187.478H92.7696H92.7695C91.0243 187.479 89.6042 186.059 89.6042 184.314V169.559C89.6042 167.814 91.0243 166.394 92.7696 166.394H156.354C158.1 166.394 159.521 167.814 159.521 169.559Z" fill="white" stroke="white" stroke-width="0.2"/>
<path d="M100.147 182.671C103.309 182.671 105.881 180.098 105.881 176.936C105.881 173.775 103.309 171.202 100.147 171.202C96.9853 171.202 94.4126 173.775 94.4126 176.936C94.4126 180.098 96.9853 182.671 100.147 182.671ZM100.147 173.906C101.817 173.906 103.177 175.265 103.177 176.936C103.177 178.608 101.817 179.966 100.147 179.966C98.4768 179.966 97.1167 178.608 97.1167 176.936C97.1167 175.265 98.4768 173.906 100.147 173.906Z" fill="white" stroke="white" stroke-width="0.2"/>
<path d="M149.604 176.41C150.351 176.41 150.956 175.805 150.956 175.058C150.956 174.311 150.351 173.706 149.604 173.706C148.857 173.706 148.252 174.311 148.252 175.058C148.252 175.805 148.857 176.41 149.604 176.41Z" fill="white" stroke="white" stroke-width="0.2"/>
<path d="M144.596 176.41C145.342 176.41 145.948 175.805 145.948 175.058C145.948 174.311 145.342 173.706 144.596 173.706C143.849 173.706 143.244 174.311 143.244 175.058C143.244 175.805 143.849 176.41 144.596 176.41Z" fill="white" stroke="white" stroke-width="0.2"/>
<path d="M152.108 180.166C152.855 180.166 153.46 179.561 153.46 178.814C153.46 178.068 152.855 177.462 152.108 177.462C151.361 177.462 150.756 178.068 150.756 178.814C150.756 179.561 151.361 180.166 152.108 180.166Z" fill="white" stroke="white" stroke-width="0.2"/>
<path d="M147.1 180.166C147.846 180.166 148.452 179.561 148.452 178.814C148.452 178.068 147.846 177.462 147.1 177.462C146.353 177.462 145.748 178.068 145.748 178.814C145.748 179.561 146.353 180.166 147.1 180.166Z" fill="white" stroke="white" stroke-width="0.2"/>
<path d="M139.587 176.41C140.334 176.41 140.939 175.805 140.939 175.058C140.939 174.311 140.334 173.706 139.587 173.706C138.841 173.706 138.235 174.311 138.235 175.058C138.235 175.805 138.841 176.41 139.587 176.41Z" fill="white" stroke="white" stroke-width="0.2"/>
<path d="M142.091 180.166C142.838 180.166 143.444 179.561 143.444 178.814C143.444 178.068 142.838 177.462 142.091 177.462C141.345 177.462 140.739 178.068 140.739 178.814C140.739 179.561 141.345 180.166 142.091 180.166Z" fill="white" stroke="white" stroke-width="0.2"/>
<path d="M134.579 176.41C135.326 176.41 135.931 175.805 135.931 175.058C135.931 174.311 135.326 173.706 134.579 173.706C133.832 173.706 133.227 174.311 133.227 175.058C133.227 175.805 133.832 176.41 134.579 176.41Z" fill="white" stroke="white" stroke-width="0.2"/>
<path d="M137.083 180.166C137.83 180.166 138.435 179.561 138.435 178.814C138.435 178.068 137.83 177.462 137.083 177.462C136.336 177.462 135.731 178.068 135.731 178.814C135.731 179.561 136.336 180.166 137.083 180.166Z" fill="white" stroke="white" stroke-width="0.2"/>
<path d="M129.571 176.41C130.317 176.41 130.923 175.805 130.923 175.058C130.923 174.311 130.317 173.706 129.571 173.706C128.824 173.706 128.219 174.311 128.219 175.058C128.219 175.805 128.824 176.41 129.571 176.41Z" fill="white" stroke="white" stroke-width="0.2"/>
<path d="M132.075 180.166C132.822 180.166 133.427 179.561 133.427 178.814C133.427 178.068 132.822 177.462 132.075 177.462C131.328 177.462 130.723 178.068 130.723 178.814C130.723 179.561 131.328 180.166 132.075 180.166Z" fill="white" stroke="white" stroke-width="0.2"/>
<path d="M100.147 206.46C103.309 206.46 105.881 203.887 105.881 200.726C105.881 197.564 103.309 194.991 100.147 194.991C96.9853 194.991 94.4126 197.564 94.4126 200.726C94.4126 203.887 96.9853 206.46 100.147 206.46ZM100.147 197.696C101.817 197.696 103.177 199.054 103.177 200.726C103.177 202.397 101.817 203.756 100.147 203.756C98.4768 203.756 97.1167 202.397 97.1167 200.726C97.1167 199.054 98.4768 197.696 100.147 197.696Z" fill="white" stroke="white" stroke-width="0.2"/>
<path d="M149.604 200.2C150.351 200.2 150.956 199.594 150.956 198.848C150.956 198.101 150.351 197.496 149.604 197.496C148.857 197.496 148.252 198.101 148.252 198.848C148.252 199.594 148.857 200.2 149.604 200.2Z" fill="white" stroke="white" stroke-width="0.2"/>
<path d="M144.596 200.2C145.342 200.2 145.948 199.594 145.948 198.848C145.948 198.101 145.342 197.496 144.596 197.496C143.849 197.496 143.244 198.101 143.244 198.848C143.244 199.594 143.849 200.2 144.596 200.2Z" fill="white" stroke="white" stroke-width="0.2"/>
<path d="M152.108 203.956C152.855 203.956 153.46 203.351 153.46 202.604C153.46 201.857 152.855 201.252 152.108 201.252C151.361 201.252 150.756 201.857 150.756 202.604C150.756 203.351 151.361 203.956 152.108 203.956Z" fill="white" stroke="white" stroke-width="0.2"/>
<path d="M147.1 203.956C147.846 203.956 148.452 203.351 148.452 202.604C148.452 201.857 147.846 201.252 147.1 201.252C146.353 201.252 145.748 201.857 145.748 202.604C145.748 203.351 146.353 203.956 147.1 203.956Z" fill="white" stroke="white" stroke-width="0.2"/>
<path d="M139.587 200.2C140.334 200.2 140.939 199.594 140.939 198.848C140.939 198.101 140.334 197.496 139.587 197.496C138.841 197.496 138.235 198.101 138.235 198.848C138.235 199.594 138.841 200.2 139.587 200.2Z" fill="white" stroke="white" stroke-width="0.2"/>
<path d="M142.091 203.956C142.838 203.956 143.444 203.351 143.444 202.604C143.444 201.857 142.838 201.252 142.091 201.252C141.345 201.252 140.739 201.857 140.739 202.604C140.739 203.351 141.345 203.956 142.091 203.956Z" fill="white" stroke="white" stroke-width="0.2"/>
<path d="M134.579 200.2C135.326 200.2 135.931 199.594 135.931 198.848C135.931 198.101 135.326 197.496 134.579 197.496C133.832 197.496 133.227 198.101 133.227 198.848C133.227 199.594 133.832 200.2 134.579 200.2Z" fill="white" stroke="white" stroke-width="0.2"/>
<path d="M137.083 203.956C137.83 203.956 138.435 203.351 138.435 202.604C138.435 201.857 137.83 201.252 137.083 201.252C136.336 201.252 135.731 201.857 135.731 202.604C135.731 203.351 136.336 203.956 137.083 203.956Z" fill="white" stroke="white" stroke-width="0.2"/>
<path d="M129.571 200.2C130.317 200.2 130.923 199.594 130.923 198.848C130.923 198.101 130.317 197.496 129.571 197.496C128.824 197.496 128.219 198.101 128.219 198.848C128.219 199.594 128.824 200.2 129.571 200.2Z" fill="white" stroke="white" stroke-width="0.2"/>
<path d="M132.075 203.956C132.822 203.956 133.427 203.351 133.427 202.604C133.427 201.857 132.822 201.252 132.075 201.252C131.328 201.252 130.723 201.857 130.723 202.604C130.723 203.351 131.328 203.956 132.075 203.956Z" fill="white" stroke="white" stroke-width="0.2"/>
<path d="M104 313L128.5 327.357L153 313L153 324.031L128.5 338L104 323.976L104 313Z" fill="url(#paint3_linear)"/>
<path d="M102 570L126.5 584.357L151 570L151 581.031L126.5 595L102 580.976L102 570Z" fill="url(#paint4_linear)"/>
<rect x="7.5" y="363.5" width="241" height="181.027" rx="21.5" fill="url(#paint5_linear)" stroke="#00ABFE" stroke-width="3"/>
<path d="M41.4242 509.064C40.4215 509.064 39.6535 508.803 39.1202 508.28C38.5868 507.757 38.3202 507 38.3202 506.008V500.248C38.3202 499.224 38.5922 498.44 39.1362 497.896C39.6908 497.341 40.4588 497.064 41.4402 497.064H43.9042C44.8855 497.064 45.6322 497.341 46.1442 497.896C46.6562 498.451 46.9122 499.235 46.9122 500.248V506.008C46.9122 506.989 46.6455 507.747 46.1122 508.28C45.5895 508.803 44.8535 509.064 43.9042 509.064H41.4242ZM43.2642 506.936C44.1175 506.936 44.5442 506.509 44.5442 505.656V500.472C44.5442 499.619 44.1495 499.192 43.3602 499.192H41.9042C41.5095 499.192 41.2055 499.304 40.9922 499.528C40.7895 499.741 40.6882 500.056 40.6882 500.472V505.64C40.6882 506.504 41.1202 506.936 41.9842 506.936H43.2642ZM48.5355 507.096L52.4875 503.176C52.9782 502.707 53.3302 502.28 53.5435 501.896C53.7675 501.512 53.8795 501.107 53.8795 500.68C53.8795 500.232 53.7409 499.891 53.4635 499.656C53.1969 499.421 52.7542 499.304 52.1355 499.304H48.8075V497.448C49.4902 497.331 50.1195 497.24 50.6955 497.176C51.2822 497.101 51.9169 497.064 52.5995 497.064C53.9222 497.064 54.8609 497.336 55.4155 497.88C55.9702 498.413 56.2475 499.219 56.2475 500.296C56.2475 501.064 56.0929 501.752 55.7835 502.36C55.4849 502.957 55.0049 503.576 54.3435 504.216L51.6875 506.856H56.6155V509H48.5355V507.096ZM61.8242 503.704H66.5762V505.016H61.8242V503.704ZM76.2934 509.096C75.2801 509.096 74.4748 508.941 73.8774 508.632C73.2908 508.312 72.8481 507.72 72.5494 506.856C72.2508 505.981 72.1014 504.717 72.1014 503.064C72.1014 501.496 72.2561 500.28 72.5654 499.416C72.8748 498.552 73.3334 497.955 73.9414 497.624C74.5494 497.283 75.3548 497.112 76.3574 497.112C76.9121 497.112 77.5094 497.16 78.1494 497.256C78.7894 497.341 79.3548 497.448 79.8454 497.576V498.792C79.5041 498.739 79.0348 498.685 78.4374 498.632C77.8401 498.579 77.2428 498.552 76.6454 498.552C75.8881 498.552 75.3014 498.675 74.8854 498.92C74.4801 499.155 74.1814 499.597 73.9894 500.248C73.7974 500.888 73.7014 501.832 73.7014 503.08C73.7014 504.36 73.7921 505.325 73.9734 505.976C74.1548 506.616 74.4481 507.059 74.8534 507.304C75.2588 507.539 75.8508 507.656 76.6294 507.656C77.9201 507.656 78.9921 507.592 79.8454 507.464V508.696C78.7788 508.963 77.5948 509.096 76.2934 509.096ZM85.8977 509.096C84.7777 509.096 83.8923 508.947 83.2417 508.648C82.591 508.349 82.095 507.773 81.7537 506.92C81.423 506.067 81.2577 504.808 81.2577 503.144C81.2577 501.48 81.4283 500.216 81.7697 499.352C82.111 498.477 82.607 497.885 83.2577 497.576C83.9083 497.267 84.7883 497.112 85.8977 497.112C87.0283 497.112 87.919 497.267 88.5697 497.576C89.2203 497.885 89.711 498.477 90.0417 499.352C90.383 500.216 90.5537 501.48 90.5537 503.144C90.5537 504.808 90.383 506.067 90.0417 506.92C89.711 507.773 89.2203 508.349 88.5697 508.648C87.919 508.947 87.0283 509.096 85.8977 509.096ZM85.8977 507.656C86.687 507.656 87.295 507.544 87.7217 507.32C88.1483 507.096 88.4577 506.664 88.6497 506.024C88.8417 505.384 88.9377 504.424 88.9377 503.144C88.9377 501.811 88.8417 500.819 88.6497 500.168C88.4577 499.517 88.1483 499.085 87.7217 498.872C87.3057 498.659 86.6977 498.552 85.8977 498.552C85.1297 498.552 84.5323 498.664 84.1057 498.888C83.6897 499.101 83.375 499.533 83.1617 500.184C82.959 500.835 82.8577 501.821 82.8577 503.144C82.8577 504.435 82.9483 505.4 83.1297 506.04C83.3217 506.669 83.6257 507.096 84.0417 507.32C84.4683 507.544 85.087 507.656 85.8977 507.656ZM92.7685 497.208H94.0805L99.8565 506.248V497.208H101.457V509H100.161L94.3845 499.96V509H92.7685V497.208ZM103.8 497.208H105.112L110.888 506.248V497.208H112.488V509H111.192L105.416 499.96V509H103.8V497.208ZM117.183 509.064C116.479 509.064 115.882 508.904 115.391 508.584C114.9 508.264 114.655 507.629 114.655 506.68V499.672C114.655 498.808 114.89 498.184 115.359 497.8C115.828 497.405 116.394 497.208 117.055 497.208C118.324 497.208 119.759 497.251 121.359 497.336L122.079 497.368V498.696H117.535C116.692 498.696 116.271 499.117 116.271 499.96V502.408L121.359 502.504V503.752L116.271 503.864V506.28C116.271 506.781 116.388 507.123 116.623 507.304C116.858 507.475 117.172 507.56 117.567 507.56H122.079V508.888C120.244 509.005 118.612 509.064 117.183 509.064ZM127.997 509.096C126.983 509.096 126.178 508.941 125.581 508.632C124.994 508.312 124.551 507.72 124.253 506.856C123.954 505.981 123.805 504.717 123.805 503.064C123.805 501.496 123.959 500.28 124.269 499.416C124.578 498.552 125.037 497.955 125.645 497.624C126.253 497.283 127.058 497.112 128.061 497.112C128.615 497.112 129.213 497.16 129.853 497.256C130.493 497.341 131.058 497.448 131.549 497.576V498.792C131.207 498.739 130.738 498.685 130.141 498.632C129.543 498.579 128.946 498.552 128.349 498.552C127.591 498.552 127.005 498.675 126.589 498.92C126.183 499.155 125.885 499.597 125.693 500.248C125.501 500.888 125.405 501.832 125.405 503.08C125.405 504.36 125.495 505.325 125.677 505.976C125.858 506.616 126.151 507.059 126.557 507.304C126.962 507.539 127.554 507.656 128.333 507.656C129.623 507.656 130.695 507.592 131.549 507.464V508.696C130.482 508.963 129.298 509.096 127.997 509.096ZM136.013 498.648H132.493V497.208H141.149V498.648H137.629V509H136.013V498.648ZM150.075 497.208H152.123L156.059 509H154.379L153.339 505.912H148.827L147.803 509H146.139L150.075 497.208ZM152.939 504.456L151.083 498.6L149.211 504.456H152.939ZM165.856 509.096C164.843 509.096 164.037 508.941 163.44 508.632C162.853 508.312 162.411 507.72 162.112 506.856C161.813 505.981 161.664 504.717 161.664 503.064C161.664 501.496 161.819 500.28 162.128 499.416C162.437 498.552 162.896 497.955 163.504 497.624C164.112 497.283 164.917 497.112 165.92 497.112C166.475 497.112 167.072 497.16 167.712 497.256C168.352 497.341 168.917 497.448 169.408 497.576V498.792C169.067 498.739 168.597 498.685 168 498.632C167.403 498.579 166.805 498.552 166.208 498.552C165.451 498.552 164.864 498.675 164.448 498.92C164.043 499.155 163.744 499.597 163.552 500.248C163.36 500.888 163.264 501.832 163.264 503.08C163.264 504.36 163.355 505.325 163.536 505.976C163.717 506.616 164.011 507.059 164.416 507.304C164.821 507.539 165.413 507.656 166.192 507.656C167.483 507.656 168.555 507.592 169.408 507.464V508.696C168.341 508.963 167.157 509.096 165.856 509.096ZM173.76 509C172.95 509 172.331 508.808 171.904 508.424C171.478 508.04 171.264 507.4 171.264 506.504V497.208H172.88V506.264C172.88 506.744 172.992 507.075 173.216 507.256C173.44 507.437 173.75 507.528 174.144 507.528H178.224V509H173.76ZM179.796 497.208H181.412V509H179.796V497.208ZM186.277 509.064C185.573 509.064 184.975 508.904 184.485 508.584C183.994 508.264 183.749 507.629 183.749 506.68V499.672C183.749 498.808 183.983 498.184 184.453 497.8C184.922 497.405 185.487 497.208 186.149 497.208C187.418 497.208 188.853 497.251 190.453 497.336L191.173 497.368V498.696H186.629C185.786 498.696 185.365 499.117 185.365 499.96V502.408L190.453 502.504V503.752L185.365 503.864V506.28C185.365 506.781 185.482 507.123 185.717 507.304C185.951 507.475 186.266 507.56 186.661 507.56H191.173V508.888C189.338 509.005 187.706 509.064 186.277 509.064ZM193.362 497.208H194.674L200.45 506.248V497.208H202.05V509H200.754L194.978 499.96V509H193.362V497.208ZM206.826 498.648H203.306V497.208H211.962V498.648H208.442V509H206.826V498.648ZM213.297 509.016C213.223 509.016 213.159 508.989 213.105 508.936C213.052 508.883 213.025 508.819 213.025 508.744V507.352C213.025 507.16 213.116 507.064 213.297 507.064H214.209C214.401 507.064 214.497 507.16 214.497 507.352V508.744C214.497 508.925 214.401 509.016 214.209 509.016H213.297ZM213.297 502.376C213.223 502.376 213.159 502.349 213.105 502.296C213.052 502.243 213.025 502.179 213.025 502.104V500.712C213.025 500.52 213.116 500.424 213.297 500.424H214.209C214.401 500.424 214.497 500.52 214.497 500.712V502.104C214.497 502.285 214.401 502.376 214.209 502.376H213.297ZM36.9439 518.128H39.8079L41.4879 525.888L43.4719 518.128H45.9679L47.9359 525.888L49.6159 518.128H52.4799L49.6959 530H46.9119L44.7199 522.224L42.5119 530H39.7279L36.9439 518.128ZM58.119 530.096C56.935 530.096 55.9857 529.936 55.271 529.616C54.567 529.296 54.0337 528.704 53.671 527.84C53.3084 526.965 53.127 525.707 53.127 524.064C53.127 522.421 53.3084 521.163 53.671 520.288C54.0337 519.413 54.567 518.816 55.271 518.496C55.9857 518.176 56.935 518.016 58.119 518.016C59.303 518.016 60.247 518.176 60.951 518.496C61.6657 518.816 62.2044 519.413 62.567 520.288C62.9297 521.163 63.111 522.421 63.111 524.064C63.111 525.707 62.9297 526.965 62.567 527.84C62.2044 528.704 61.6657 529.296 60.951 529.616C60.247 529.936 59.303 530.096 58.119 530.096ZM58.119 527.616C58.727 527.616 59.1857 527.525 59.495 527.344C59.8044 527.152 60.023 526.805 60.151 526.304C60.279 525.803 60.343 525.056 60.343 524.064C60.343 523.04 60.279 522.277 60.151 521.776C60.023 521.275 59.8044 520.939 59.495 520.768C59.1964 520.587 58.7377 520.496 58.119 520.496C57.511 520.496 57.0524 520.587 56.743 520.768C56.4444 520.939 56.2257 521.275 56.087 521.776C55.959 522.277 55.895 523.04 55.895 524.064C55.895 525.056 55.959 525.803 56.087 526.304C56.215 526.805 56.4337 527.152 56.743 527.344C57.0524 527.525 57.511 527.616 58.119 527.616ZM64.6967 518.128H69.6887C70.7873 518.128 71.6407 518.421 72.2487 519.008C72.8673 519.584 73.1767 520.592 73.1767 522.032C73.1767 522.992 73.022 523.712 72.7127 524.192C72.414 524.672 71.9927 525.051 71.4487 525.328L73.5767 530H70.7607L68.9847 525.776C68.686 525.765 68.1793 525.76 67.4647 525.76V530H64.6967V518.128ZM69.1927 523.568C69.598 523.568 69.902 523.456 70.1047 523.232C70.3073 522.997 70.4087 522.603 70.4087 522.048C70.4087 521.504 70.3073 521.131 70.1047 520.928C69.902 520.715 69.598 520.608 69.1927 520.608H67.4647V523.568H69.1927ZM74.8373 518.128H77.6053V522.88H78.9973L81.1413 518.128H84.0693L81.1893 524.096L84.1973 530H81.2693L78.9973 525.36H77.6053V530H74.8373V518.128ZM89.0638 530.096C88.4025 530.096 87.7358 530.059 87.0638 529.984C86.4025 529.909 85.8105 529.803 85.2878 529.664V527.472C86.3011 527.568 87.5118 527.616 88.9198 527.616C89.5171 527.616 89.9598 527.547 90.2478 527.408C90.5358 527.259 90.6798 526.997 90.6798 526.624V526.32C90.6798 526.043 90.5891 525.829 90.4078 525.68C90.2265 525.52 89.9865 525.44 89.6878 525.44H88.7598C87.5331 525.44 86.6158 525.173 86.0078 524.64C85.4105 524.096 85.1118 523.221 85.1118 522.016V521.456C85.1118 520.304 85.4478 519.445 86.1198 518.88C86.7918 518.315 87.7785 518.032 89.0798 518.032C90.1998 518.032 91.4158 518.181 92.7278 518.48V520.656C91.2451 520.56 90.1411 520.512 89.4158 520.512C88.8505 520.512 88.4291 520.592 88.1518 520.752C87.8745 520.901 87.7358 521.184 87.7358 521.6V521.824C87.7358 522.485 88.1358 522.816 88.9358 522.816H90.0398C91.0958 522.816 91.9011 523.104 92.4558 523.68C93.0211 524.256 93.3038 525.013 93.3038 525.952V526.544C93.3038 527.493 93.1331 528.229 92.7918 528.752C92.4611 529.264 91.9918 529.616 91.3838 529.808C90.7758 530 90.0025 530.096 89.0638 530.096ZM97.3318 520.608H94.2118V518.128H103.204V520.608H100.084V530H97.3318V520.608ZM106.435 518.128H109.891L113.507 530H110.643L110.035 527.84H106.259L105.667 530H102.819L106.435 518.128ZM109.395 525.36L108.147 520.496L106.899 525.36H109.395ZM116.269 520.608H113.149V518.128H122.141V520.608H119.021V530H116.269V520.608ZM123.337 518.128H126.105V530H123.337V518.128ZM132.682 530.096C131.498 530.096 130.548 529.936 129.834 529.616C129.13 529.296 128.596 528.704 128.234 527.84C127.871 526.965 127.69 525.707 127.69 524.064C127.69 522.421 127.871 521.163 128.234 520.288C128.596 519.413 129.13 518.816 129.834 518.496C130.548 518.176 131.498 518.016 132.682 518.016C133.866 518.016 134.81 518.176 135.514 518.496C136.228 518.816 136.767 519.413 137.13 520.288C137.492 521.163 137.674 522.421 137.674 524.064C137.674 525.707 137.492 526.965 137.13 527.84C136.767 528.704 136.228 529.296 135.514 529.616C134.81 529.936 133.866 530.096 132.682 530.096ZM132.682 527.616C133.29 527.616 133.748 527.525 134.058 527.344C134.367 527.152 134.586 526.805 134.714 526.304C134.842 525.803 134.906 525.056 134.906 524.064C134.906 523.04 134.842 522.277 134.714 521.776C134.586 521.275 134.367 520.939 134.058 520.768C133.759 520.587 133.3 520.496 132.682 520.496C132.074 520.496 131.615 520.587 131.306 520.768C131.007 520.939 130.788 521.275 130.65 521.776C130.522 522.277 130.458 523.04 130.458 524.064C130.458 525.056 130.522 525.803 130.65 526.304C130.778 526.805 130.996 527.152 131.306 527.344C131.615 527.525 132.074 527.616 132.682 527.616ZM139.307 518.128H141.499L146.043 525.312V518.128H148.811V530H146.603L142.059 522.832V530H139.307V518.128ZM151.466 531.504C151.274 531.504 151.087 531.483 150.906 531.44C150.735 531.408 150.628 531.387 150.586 531.376V530.496C150.756 530.496 150.874 530.469 150.938 530.416C151.012 530.373 151.05 530.288 151.05 530.16V529.808H150.89C150.783 529.808 150.692 529.776 150.618 529.712C150.554 529.648 150.522 529.552 150.522 529.424V527.952C150.522 527.685 150.644 527.552 150.89 527.552H152.458C152.703 527.552 152.826 527.685 152.826 527.952V530.224C152.826 530.704 152.692 531.035 152.426 531.216C152.17 531.408 151.85 531.504 151.466 531.504ZM168.826 530L167.978 522.976L166.186 530H163.594L161.802 523.072L161.002 530H158.33L159.722 518.128H162.346L164.922 526.816L167.482 518.128H170.074L171.482 530H168.826ZM177.432 530.096C176.248 530.096 175.298 529.936 174.584 529.616C173.88 529.296 173.346 528.704 172.984 527.84C172.621 526.965 172.44 525.707 172.44 524.064C172.44 522.421 172.621 521.163 172.984 520.288C173.346 519.413 173.88 518.816 174.584 518.496C175.298 518.176 176.248 518.016 177.432 518.016C178.616 518.016 179.56 518.176 180.264 518.496C180.978 518.816 181.517 519.413 181.88 520.288C182.242 521.163 182.424 522.421 182.424 524.064C182.424 525.707 182.242 526.965 181.88 527.84C181.517 528.704 180.978 529.296 180.264 529.616C179.56 529.936 178.616 530.096 177.432 530.096ZM177.432 527.616C178.04 527.616 178.498 527.525 178.808 527.344C179.117 527.152 179.336 526.805 179.464 526.304C179.592 525.803 179.656 525.056 179.656 524.064C179.656 523.04 179.592 522.277 179.464 521.776C179.336 521.275 179.117 520.939 178.808 520.768C178.509 520.587 178.05 520.496 177.432 520.496C176.824 520.496 176.365 520.587 176.056 520.768C175.757 520.939 175.538 521.275 175.4 521.776C175.272 522.277 175.208 523.04 175.208 524.064C175.208 525.056 175.272 525.803 175.4 526.304C175.528 526.805 175.746 527.152 176.056 527.344C176.365 527.525 176.824 527.616 177.432 527.616ZM184.009 518.128H188.809C191.145 518.128 192.313 519.179 192.313 521.28C192.313 521.973 192.175 522.539 191.897 522.976C191.62 523.413 191.215 523.701 190.681 523.84C191.257 523.979 191.732 524.293 192.105 524.784C192.489 525.275 192.681 525.925 192.681 526.736C192.681 527.899 192.377 528.736 191.769 529.248C191.172 529.749 190.26 530 189.033 530H184.009V518.128ZM188.809 522.912C189.087 522.912 189.3 522.805 189.449 522.592C189.609 522.379 189.689 522.101 189.689 521.76C189.689 521.355 189.604 521.061 189.433 520.88C189.263 520.699 189.049 520.608 188.793 520.608H186.777V522.912H188.809ZM188.953 527.52C189.305 527.52 189.577 527.413 189.769 527.2C189.961 526.987 190.057 526.667 190.057 526.24C190.057 525.856 189.956 525.557 189.753 525.344C189.561 525.12 189.295 525.008 188.953 525.008H186.777V527.52H188.953ZM194.181 518.128H196.949V530H194.181V518.128ZM201.797 530C200.784 530 200.037 529.765 199.557 529.296C199.077 528.827 198.837 528.075 198.837 527.04V518.128H201.605V526.576C201.605 527.205 201.915 527.52 202.533 527.52H206.133V530H201.797ZM210.439 530.096C208.423 530.096 207.415 529.184 207.415 527.36V520.976C207.415 519.963 207.693 519.237 208.247 518.8C208.813 518.352 209.485 518.128 210.263 518.128C212.034 518.139 213.762 518.213 215.447 518.352V520.688H211.095C210.807 520.688 210.583 520.757 210.423 520.896C210.263 521.035 210.183 521.243 210.183 521.52V522.832L214.663 522.992V525.168L210.183 525.312V526.56C210.183 526.88 210.258 527.12 210.407 527.28C210.567 527.429 210.77 527.504 211.015 527.504H215.447V529.824C214.167 529.984 212.498 530.075 210.439 530.096Z" fill="white"/>
<path d="M179.406 443.281H194.287C195.656 443.283 196.765 444.392 196.767 445.761L196.808 455.725C196.809 455.999 196.587 456.223 196.312 456.223C196.039 456.223 195.817 456.002 195.816 455.729L195.775 445.761C195.775 444.939 195.108 444.273 194.287 444.273H179.406C178.584 444.273 177.918 444.939 177.918 445.761V468.578C177.918 469.4 178.584 470.066 179.406 470.066H194.287C195.108 470.066 195.775 469.4 195.775 468.578L195.818 457.348C195.819 457.075 196.041 456.854 196.314 456.854C196.588 456.854 196.811 457.077 196.81 457.352L196.767 468.578C196.765 469.756 195.936 470.771 194.783 471.009L191.806 471.058H181.886L178.91 471.009C177.756 470.771 176.927 469.756 176.926 468.578V445.761C176.927 444.392 178.037 443.283 179.406 443.281Z" fill="white"/>
<path d="M186.846 453.202C182.463 453.202 178.91 456.755 178.91 461.138C178.915 465.519 182.465 469.069 186.846 469.074C191.229 469.074 194.782 465.521 194.782 461.138C194.782 456.755 191.229 453.202 186.846 453.202ZM186.846 468.082C183.011 468.082 179.902 464.973 179.902 461.138C179.906 457.304 183.013 454.198 186.846 454.194C190.681 454.194 193.79 457.303 193.79 461.138C193.79 464.973 190.681 468.082 186.846 468.082Z" fill="white"/>
<path d="M186.846 455.186C183.559 455.186 180.894 457.851 180.894 461.138C180.897 464.424 183.56 467.087 186.846 467.09C190.133 467.09 192.798 464.425 192.798 461.138C192.798 457.851 190.133 455.186 186.846 455.186ZM186.846 466.098C184.107 466.098 181.886 463.877 181.886 461.138C181.889 458.4 184.108 456.181 186.846 456.178C189.586 456.178 191.806 458.398 191.806 461.138C191.806 463.877 189.586 466.098 186.846 466.098Z" fill="white"/>
<path d="M186.846 445.265C184.928 445.265 183.374 446.82 183.374 448.737C183.376 450.654 184.929 452.207 186.846 452.21C188.764 452.21 190.318 450.655 190.318 448.737C190.318 446.82 188.764 445.265 186.846 445.265ZM186.846 451.217C185.476 451.217 184.366 450.107 184.366 448.737C184.368 447.368 185.477 446.259 186.846 446.257C188.216 446.257 189.326 447.368 189.326 448.737C189.326 450.107 188.216 451.217 186.846 451.217Z" fill="white"/>
<path d="M186.846 447.249C186.024 447.249 185.358 447.916 185.358 448.737C185.358 449.559 186.024 450.225 186.846 450.225C187.668 450.225 188.334 449.559 188.334 448.737C188.334 447.916 187.668 447.249 186.846 447.249ZM186.846 449.233C186.572 449.233 186.35 449.011 186.35 448.737C186.35 448.463 186.572 448.241 186.846 448.241C187.12 448.241 187.342 448.463 187.342 448.737C187.342 449.011 187.12 449.233 186.846 449.233Z" fill="white"/>
<path d="M186.846 458.658C185.476 458.658 184.366 459.768 184.366 461.138C184.368 462.507 185.477 463.616 186.846 463.618C188.216 463.618 189.326 462.508 189.326 461.138C189.326 459.768 188.216 458.658 186.846 458.658ZM186.846 462.626C186.024 462.626 185.358 461.96 185.358 461.138C185.358 460.316 186.024 459.65 186.846 459.65C187.668 459.65 188.334 460.316 188.334 461.138C188.334 461.96 187.668 462.626 186.846 462.626Z" fill="white"/>
<path d="M151.024 469.348H150.219V449.552C150.219 447.835 148.821 446.438 147.104 446.438H125.155C124.821 446.438 124.55 446.709 124.55 447.043C124.55 447.378 124.821 447.649 125.155 447.649H147.104C148.153 447.649 149.007 448.503 149.007 449.552V469.348H113.629V449.552C113.629 448.503 114.483 447.649 115.532 447.649H122.732C123.067 447.649 123.338 447.378 123.338 447.043C123.338 446.709 123.067 446.438 122.732 446.438H115.532C113.815 446.438 112.417 447.835 112.417 449.552V469.348H111.612C111.076 469.348 110.639 469.784 110.639 470.321V471.727C110.639 473.099 111.755 474.215 113.127 474.215H124.38C124.715 474.215 124.986 473.944 124.986 473.609C124.986 473.274 124.715 473.003 124.38 473.003H113.127C112.423 473.003 111.851 472.431 111.851 471.727V470.56H150.785V471.727C150.785 472.431 150.213 473.003 149.509 473.003H126.804C126.469 473.003 126.198 473.274 126.198 473.609C126.198 473.944 126.469 474.215 126.804 474.215H149.509C150.881 474.215 151.997 473.099 151.997 471.727V470.321C151.997 469.784 151.56 469.348 151.024 469.348Z" fill="white"/>
<path d="M115.164 450.8V466.197C115.164 467.088 115.889 467.813 116.78 467.813H145.856C146.747 467.813 147.472 467.088 147.472 466.197V450.8C147.472 449.909 146.747 449.184 145.856 449.184H116.78C115.889 449.184 115.164 449.909 115.164 450.8ZM146.261 450.8V466.197C146.261 466.42 146.079 466.602 145.856 466.602H116.78C116.557 466.602 116.375 466.42 116.375 466.197V450.8C116.375 450.577 116.557 450.396 116.78 450.396H145.856C146.079 450.396 146.261 450.577 146.261 450.8Z" fill="white"/>
<path d="M69.4785 461.21C70.1777 461.21 70.8612 461.003 71.4426 460.614C72.024 460.226 72.4771 459.674 72.7447 459.028C73.0123 458.382 73.0823 457.671 72.9459 456.985C72.8095 456.299 72.4728 455.669 71.9783 455.175C71.4839 454.681 70.854 454.344 70.1682 454.207C69.4824 454.071 68.7716 454.141 68.1256 454.409C67.4796 454.676 66.9275 455.129 66.539 455.711C66.1506 456.292 65.9432 456.976 65.9432 457.675C65.9443 458.612 66.3171 459.511 66.9799 460.173C67.6426 460.836 68.5412 461.209 69.4785 461.21ZM69.4785 455.15C69.978 455.15 70.4662 455.298 70.8814 455.575C71.2967 455.853 71.6204 456.247 71.8115 456.708C72.0026 457.17 72.0526 457.678 71.9552 458.167C71.8578 458.657 71.6173 459.107 71.2641 459.46C70.9109 459.814 70.461 460.054 69.9712 460.152C69.4813 460.249 68.9736 460.199 68.5122 460.008C68.0507 459.817 67.6564 459.493 67.3789 459.078C67.1014 458.662 66.9533 458.174 66.9533 457.675C66.9541 457.005 67.2204 456.363 67.6938 455.89C68.1672 455.417 68.809 455.15 69.4785 455.15Z" fill="white"/>
<path d="M68.4684 456.16V459.19L70.9936 457.675L68.4684 456.16Z" fill="white"/>
<path d="M65.2051 463.23H73.7519C74.8789 463.23 75.962 462.793 76.7731 462.011C77.5842 461.228 78.06 460.161 78.1004 459.035C78.1408 457.909 77.7426 456.811 76.9897 455.972C76.2367 455.134 75.1878 454.62 74.0637 454.539C73.823 453.721 73.3678 452.982 72.7453 452.399C72.1227 451.817 71.3556 451.411 70.5234 451.225C69.6912 451.038 68.8244 451.078 68.0128 451.34C67.2012 451.602 66.4745 452.076 65.908 452.713C65.8683 452.715 65.8289 452.718 65.79 452.721C65.0937 452.777 64.4326 453.051 63.9 453.503C63.3673 453.955 62.9899 454.562 62.821 455.24C62.0373 455.753 61.4402 456.506 61.1185 457.386C60.7968 458.266 60.7678 459.226 61.0356 460.124C61.3035 461.021 61.854 461.809 62.6052 462.368C63.3565 462.928 64.2683 463.23 65.2051 463.23ZM63.5247 455.992C63.5881 455.955 63.6427 455.905 63.6847 455.844C63.7266 455.784 63.7549 455.715 63.7676 455.643C63.8569 455.136 64.1119 454.673 64.4927 454.326C64.8735 453.979 65.3585 453.769 65.8717 453.728C65.932 453.723 65.9943 453.72 66.0578 453.72C66.0816 453.72 66.1056 453.72 66.1296 453.721C66.2076 453.723 66.2851 453.707 66.3559 453.675C66.4267 453.642 66.4891 453.593 66.538 453.532C66.9855 452.973 67.583 452.553 68.2606 452.322C68.9382 452.09 69.6677 452.056 70.3638 452.224C71.0599 452.392 71.6937 452.755 72.191 453.27C72.6883 453.786 73.0284 454.432 73.1716 455.134C73.1948 455.248 73.2568 455.35 73.347 455.424C73.4372 455.498 73.5501 455.538 73.6666 455.538H73.7522C74.6383 455.538 75.4881 455.89 76.1147 456.517C76.7413 457.143 77.0933 457.993 77.0933 458.879C77.0933 459.765 76.7413 460.615 76.1147 461.242C75.4881 461.868 74.6383 462.22 73.7522 462.22H65.2051C64.4707 462.22 63.7567 461.978 63.1736 461.532C62.5905 461.085 62.1708 460.459 61.9795 459.75C61.7882 459.041 61.8359 458.288 62.1152 457.609C62.3945 456.93 62.8899 456.361 63.5247 455.992Z" fill="white"/>
<path d="M61.1454 471.816H77.8117C78.4142 471.815 78.9919 471.576 79.418 471.15C79.844 470.723 80.0837 470.146 80.0844 469.543V449.181C80.0837 448.621 79.861 448.084 79.465 447.688C79.0691 447.292 78.5323 447.07 77.9723 447.069H60.9847C60.4248 447.07 59.8879 447.292 59.492 447.688C59.0961 448.084 58.8733 448.621 58.8727 449.181V469.543C58.8733 470.146 59.113 470.723 59.5391 471.15C59.9651 471.576 60.5428 471.815 61.1454 471.816ZM59.8828 449.181C59.8831 448.889 59.9993 448.609 60.2059 448.402C60.4125 448.196 60.6926 448.079 60.9847 448.079H77.9723C78.2645 448.079 78.5446 448.196 78.7512 448.402C78.9577 448.609 79.0739 448.889 79.0743 449.181V466.169C79.0739 466.461 78.9577 466.741 78.7512 466.947C78.5446 467.154 78.2645 467.27 77.9723 467.271H60.9847C60.6926 467.27 60.4125 467.154 60.2059 466.947C59.9993 466.741 59.8831 466.461 59.8828 466.169V449.181ZM59.8828 467.97C60.2142 468.173 60.5957 468.281 60.9847 468.281H77.9723C78.3614 468.281 78.7429 468.173 79.0743 467.97V469.543C79.0739 469.878 78.9408 470.199 78.7041 470.436C78.4674 470.672 78.1464 470.805 77.8117 470.806H68.4684V469.291H67.4584V470.806H66.4483V469.291H65.4382V470.806H64.4281V469.291H63.418V470.806H62.408V469.291H61.3979V470.806H61.1454C60.8106 470.805 60.4897 470.672 60.253 470.436C60.0163 470.199 59.8831 469.878 59.8828 469.543V467.97Z" fill="white"/>
<path d="M76.5491 469.291H77.5592V470.301H76.5491V469.291Z" fill="white"/>
<path d="M74.5289 469.291H75.539V470.301H74.5289V469.291Z" fill="white"/>
<path d="M72.5088 469.291H73.5189V470.301H72.5088V469.291Z" fill="white"/>
<path d="M87.7863 456.665H83.4934C83.1252 456.665 82.7722 456.812 82.5118 457.072C82.2514 457.332 82.105 457.685 82.1046 458.054V473.457C82.105 473.825 82.2514 474.178 82.5118 474.439C82.7722 474.699 83.1252 474.846 83.4934 474.846H87.7863C88.1545 474.846 88.5075 474.699 88.7679 474.439C89.0282 474.178 89.1747 473.825 89.1751 473.457V458.054C89.1747 457.685 89.0282 457.332 88.7679 457.072C88.5075 456.812 88.1545 456.665 87.7863 456.665ZM84.6298 457.675H86.6499L86.6504 458.685H84.6298V457.675ZM88.165 473.457C88.1649 473.558 88.125 473.654 88.054 473.725C87.983 473.796 87.8867 473.836 87.7863 473.836H83.4934C83.393 473.836 83.2967 473.796 83.2257 473.725C83.1547 473.654 83.1147 473.558 83.1146 473.457V458.054C83.1147 457.953 83.1547 457.857 83.2257 457.786C83.2967 457.715 83.393 457.675 83.4934 457.675H83.6197V458.685C83.62 458.953 83.7265 459.209 83.9159 459.399C84.1052 459.588 84.362 459.695 84.6298 459.695H86.6499C86.9177 459.695 87.1744 459.588 87.3638 459.399C87.5532 459.209 87.6597 458.953 87.66 458.685V457.675H87.7863C87.8867 457.675 87.983 457.715 88.054 457.786C88.125 457.857 88.1649 457.953 88.165 458.054V473.457Z" fill="white"/>
<path d="M85.6398 460.878C85.2574 460.878 84.8836 460.992 84.5657 461.204C84.2477 461.417 83.9999 461.719 83.8535 462.072C83.7072 462.425 83.6689 462.814 83.7435 463.189C83.8181 463.564 84.0022 463.909 84.2726 464.179C84.4974 464.404 84.7743 464.57 85.0785 464.662C85.3828 464.754 85.7051 464.77 86.017 464.708C86.3288 464.646 86.6206 464.508 86.8663 464.306C87.1121 464.105 87.3044 463.845 87.4261 463.552C87.5477 463.258 87.5951 462.939 87.5639 462.622C87.5328 462.306 87.424 462.002 87.2474 461.738C87.0708 461.473 86.8316 461.257 86.5512 461.107C86.2708 460.957 85.9578 460.878 85.6398 460.878ZM86.2928 463.465C86.1195 463.638 85.8846 463.735 85.6398 463.735C85.395 463.735 85.1602 463.638 84.9869 463.465C84.8577 463.336 84.7697 463.171 84.7341 462.992C84.6985 462.813 84.7167 462.627 84.7866 462.458C84.8565 462.29 84.9749 462.145 85.1267 462.044C85.2786 461.942 85.4572 461.888 85.6398 461.888C85.8225 461.888 86.001 461.942 86.1529 462.044C86.3047 462.145 86.4231 462.29 86.493 462.458C86.5629 462.627 86.5812 462.813 86.5455 462.992C86.5099 463.171 86.4219 463.336 86.2928 463.465Z" fill="white"/>
<path d="M84.1247 466.766H85.1348V467.776H84.1247V466.766Z" fill="white"/>
<path d="M86.1448 466.766H87.1549V467.776H86.1448V466.766Z" fill="white"/>
<path d="M84.1247 468.786H85.1348V469.796H84.1247V468.786Z" fill="white"/>
<path d="M86.1448 468.786H87.1549V469.796H86.1448V468.786Z" fill="white"/>
<path d="M84.1247 470.806H85.1348V471.816H84.1247V470.806Z" fill="white"/>
<path d="M86.1448 470.806H87.1549V471.816H86.1448V470.806Z" fill="white"/>
<path d="M86.6499 455.604C86.6482 454.145 86.0677 452.745 85.0357 451.713C84.0037 450.681 82.6044 450.101 81.145 450.099V451.109C82.3367 451.111 83.4792 451.585 84.3219 452.427C85.1646 453.27 85.6385 454.412 85.6398 455.604H86.6499Z" fill="white"/>
<path d="M83.7169 455.604H84.727C84.726 454.654 84.3482 453.744 83.6767 453.072C83.0052 452.401 82.0947 452.023 81.145 452.022V453.032C81.8269 453.033 82.4806 453.304 82.9628 453.786C83.445 454.268 83.7162 454.922 83.7169 455.604Z" fill="white"/>
<path d="M82.2715 454.478C82.1239 454.329 81.9484 454.212 81.7551 454.132C81.5617 454.051 81.3545 454.01 81.1452 454.011V455.021C81.2217 455.021 81.2975 455.036 81.3682 455.065C81.4389 455.095 81.5032 455.138 81.5573 455.192C81.6114 455.246 81.6543 455.31 81.6836 455.381C81.7129 455.452 81.728 455.527 81.728 455.604H82.738C82.7386 455.395 82.6976 455.187 82.6176 454.994C82.5375 454.801 82.4199 454.625 82.2715 454.478Z" fill="white"/>
<path d="M180.003 414.872C179.644 415.231 179.644 415.811 180.003 416.17L180.038 416.135L180.003 416.17C180.582 416.749 181.57 416.333 181.57 415.521C181.57 415.276 181.475 415.045 181.301 414.872C180.942 414.513 180.362 414.513 180.003 414.872ZM180.003 414.872L180.038 414.907L180.003 414.872C180.003 414.872 180.003 414.872 180.003 414.872ZM178.489 413.358C178.289 413.558 178.289 413.883 178.489 414.083L178.489 414.083C178.689 414.284 179.014 414.284 179.214 414.083C180.009 413.288 181.295 413.289 182.09 414.083L182.125 414.048L178.524 413.393M178.489 413.358L178.524 413.393M178.489 413.358C178.489 413.358 178.489 413.358 178.489 413.358L178.524 413.393M178.489 413.358C179.684 412.162 181.62 412.162 182.815 413.358C183.016 413.558 183.016 413.883 182.815 414.083L182.78 414.048C182.961 413.867 182.961 413.574 182.78 413.393C181.604 412.217 179.7 412.217 178.524 413.393M177.496 412.365L177.496 412.365C179.24 410.62 182.064 410.62 183.808 412.365L183.844 412.329L183.808 412.365C184.009 412.565 184.334 412.565 184.534 412.365C184.734 412.164 184.734 411.84 184.534 411.639C183.613 410.719 182.423 410.165 181.141 410.053C180.975 408.869 180.056 407.924 178.886 407.718L178.259 403.205C178.129 402.27 177.319 401.565 176.375 401.565H170.306C169.362 401.565 168.552 402.27 168.422 403.206L168.472 403.212L168.422 403.206L168.183 404.929C168.146 405.014 168.132 405.105 168.145 405.201L167.796 407.718C166.5 407.946 165.512 409.079 165.512 410.439V420.569C165.512 421.929 166.5 423.062 167.796 423.29L168.145 425.807C168.132 425.903 168.146 425.994 168.183 426.079L168.422 427.802C168.552 428.738 169.362 429.443 170.306 429.443H176.375C177.319 429.443 178.129 428.738 178.259 427.802L178.886 423.29C180.181 423.062 181.169 421.929 181.169 420.568V418.224C181.169 417.941 180.939 417.711 180.656 417.711C180.373 417.711 180.143 417.941 180.143 418.224V420.569C180.143 421.527 179.363 422.306 178.405 422.306H168.276C167.318 422.306 166.538 421.527 166.538 420.569V410.439C166.538 409.481 167.318 408.701 168.276 408.701H175.232C175.516 408.701 175.745 408.472 175.745 408.188C175.745 407.905 175.516 407.676 175.232 407.676H168.837L169.119 405.646H171.952C172.235 405.646 172.465 405.417 172.465 405.133C172.465 404.85 172.235 404.62 171.952 404.62H169.262L169.439 403.347C169.498 402.916 169.872 402.591 170.306 402.591H176.375C176.81 402.591 177.183 402.916 177.243 403.347L177.844 407.676H177.561C177.278 407.676 177.048 407.905 177.048 408.188C177.048 408.472 177.278 408.701 177.561 408.701H178.405C179.233 408.701 179.927 409.283 180.101 410.059C178.843 410.184 177.676 410.734 176.77 411.639C176.57 411.84 176.57 412.164 176.77 412.365C176.971 412.565 177.295 412.565 177.496 412.365ZM177.243 427.661C177.183 428.092 176.81 428.417 176.375 428.417H170.306C169.872 428.417 169.498 428.092 169.439 427.661L169.262 426.387H171.952C172.235 426.387 172.465 426.158 172.465 425.875C172.465 425.591 172.235 425.362 171.952 425.362H169.119L168.837 423.332H177.844L177.243 427.661Z" fill="white" stroke="white" stroke-width="0.1"/>
<path d="M126.106 406.034C126.668 406.034 127.217 405.868 127.684 405.556C128.152 405.244 128.516 404.8 128.731 404.281C128.946 403.762 129.002 403.19 128.892 402.639C128.783 402.088 128.512 401.582 128.115 401.185C127.718 400.788 127.211 400.517 126.66 400.407C126.109 400.298 125.538 400.354 125.019 400.569C124.5 400.784 124.056 401.148 123.744 401.615C123.432 402.083 123.265 402.632 123.265 403.194C123.266 403.947 123.566 404.669 124.098 405.201C124.631 405.734 125.353 406.034 126.106 406.034ZM126.106 401.164C126.507 401.164 126.9 401.283 127.233 401.506C127.567 401.729 127.827 402.046 127.981 402.417C128.134 402.788 128.175 403.196 128.096 403.589C128.018 403.983 127.825 404.345 127.541 404.628C127.257 404.912 126.896 405.106 126.502 405.184C126.108 405.262 125.7 405.222 125.33 405.068C124.959 404.915 124.642 404.655 124.419 404.321C124.196 403.987 124.077 403.595 124.077 403.194C124.078 402.656 124.292 402.14 124.672 401.759C125.052 401.379 125.568 401.165 126.106 401.164Z" fill="white"/>
<path d="M125.294 401.976V404.411L127.324 403.194L125.294 401.976Z" fill="white"/>
<path fill-rule="evenodd" clip-rule="evenodd" d="M142.52 409.201H141.73V404.022C141.73 403.84 141.582 403.692 141.4 403.692C141.218 403.692 141.07 403.84 141.07 404.022V409.2H140.366V403.362C140.366 402.524 140.04 401.737 139.448 401.144C138.855 400.552 138.068 400.226 137.231 400.226C135.502 400.226 134.095 401.633 134.095 403.362V416.348C134.095 417.374 133.696 418.338 132.971 419.063C132.246 419.788 131.282 420.187 130.256 420.187C128.139 420.187 126.417 418.465 126.417 416.348L126.417 415.731H125.757L125.757 416.348C125.757 418.829 127.775 420.847 130.256 420.847C131.458 420.847 132.588 420.379 133.438 419.529C134.287 418.68 134.755 417.55 134.755 416.348V403.362C134.755 401.997 135.866 400.886 137.231 400.886C137.892 400.886 138.513 401.144 138.981 401.611C139.449 402.079 139.706 402.701 139.706 403.362V409.201H138.916C137.878 409.201 137.033 410.045 137.033 411.084V417.516C137.033 417.698 137.181 417.846 137.363 417.846H137.749V420.856C137.749 421.038 137.896 421.186 138.078 421.186H143.358C143.54 421.186 143.688 421.038 143.688 420.856V417.846H144.073C144.255 417.846 144.403 417.698 144.403 417.516V411.084C144.403 410.045 143.558 409.201 142.52 409.201ZM138.408 420.526H143.028H143.028V417.846H138.408V420.526ZM137.693 417.186H143.743L143.743 411.084C143.743 410.409 143.194 409.86 142.52 409.86H138.916C138.242 409.86 137.693 410.409 137.693 411.084V417.186Z" fill="white"/>
<path d="M127.121 415.731L127.121 416.348C127.121 418.077 128.527 419.483 130.256 419.483C131.094 419.483 131.882 419.157 132.473 418.565C133.066 417.973 133.392 417.186 133.392 416.348V403.362C133.392 401.245 135.114 399.523 137.231 399.523C138.256 399.523 139.22 399.922 139.945 400.647C140.524 401.225 140.896 401.955 141.022 402.756C141.051 402.936 141.219 403.059 141.4 403.03C141.58 403.002 141.703 402.833 141.674 402.653C141.526 401.713 141.09 400.858 140.412 400.18C139.562 399.331 138.432 398.863 137.231 398.863C134.75 398.863 132.732 400.881 132.732 403.362V416.348C132.732 417.009 132.474 417.631 132.007 418.099C131.54 418.566 130.918 418.824 130.256 418.824C128.891 418.824 127.78 417.713 127.78 416.348L127.78 415.731H127.121Z" fill="white"/>
<rect x="120.74" y="390.883" width="10.7321" height="24.6207" rx="3" stroke="white" stroke-width="1.5"/>
<path d="M98.3798 406.034H87.6274C87.0335 406.035 86.4641 406.271 86.0441 406.691C85.6242 407.111 85.3879 407.681 85.3873 408.275V431.572C85.3879 432.165 85.6242 432.735 86.0441 433.155C86.4641 433.575 87.0335 433.811 87.6274 433.812H98.3798C98.9737 433.811 99.5431 433.575 99.9631 433.155C100.383 432.735 100.619 432.165 100.62 431.572V408.275C100.619 407.681 100.383 407.111 99.9631 406.691C99.5431 406.271 98.9737 406.035 98.3798 406.034ZM96.0413 406.931L95.7725 408.275H90.2348L89.966 406.931H96.0413ZM99.7239 431.572C99.7235 431.928 99.5817 432.27 99.3298 432.522C99.0778 432.773 98.7362 432.915 98.3798 432.916H87.6274C87.271 432.915 86.9294 432.773 86.6774 432.522C86.4254 432.27 86.2837 431.928 86.2833 431.572V408.275C86.2837 407.918 86.4254 407.577 86.6774 407.325C86.9294 407.073 87.271 406.931 87.6274 406.931H89.0521L89.4281 408.81C89.4484 408.912 89.5033 409.003 89.5834 409.069C89.6635 409.135 89.7639 409.171 89.8675 409.171H96.1397C96.2433 409.171 96.3437 409.135 96.4238 409.069C96.5039 409.003 96.5588 408.912 96.5791 408.81L96.9551 406.931H98.3798C98.7362 406.931 99.0778 407.073 99.3298 407.325C99.5817 407.577 99.7235 407.918 99.7239 408.275V431.572Z" fill="white" stroke="white" stroke-width="0.3"/>
<path d="M90.3155 431.124H87.6274C87.5086 431.124 87.3946 431.171 87.3106 431.255C87.2266 431.339 87.1794 431.453 87.1794 431.572C87.1794 431.69 87.2266 431.804 87.3106 431.888C87.3946 431.972 87.5086 432.02 87.6274 432.02H90.3155C90.4343 432.02 90.5483 431.972 90.6323 431.888C90.7163 431.804 90.7635 431.69 90.7635 431.572C90.7635 431.453 90.7163 431.339 90.6323 431.255C90.5483 431.171 90.4343 431.124 90.3155 431.124Z" fill="white" stroke="white" stroke-width="0.3"/>
<path d="M92.1076 431.124H91.6596C91.5407 431.124 91.4268 431.171 91.3428 431.255C91.2587 431.339 91.2115 431.453 91.2115 431.572C91.2115 431.69 91.2587 431.804 91.3428 431.888C91.4268 431.972 91.5407 432.02 91.6596 432.02H92.1076C92.2264 432.02 92.3404 431.972 92.4244 431.888C92.5084 431.804 92.5556 431.69 92.5556 431.572C92.5556 431.453 92.5084 431.339 92.4244 431.255C92.3404 431.171 92.2264 431.124 92.1076 431.124Z" fill="white" stroke="white" stroke-width="0.3"/>
<rect x="7.5" y="619.5" width="241" height="181.027" rx="21.5" fill="url(#paint6_linear)" stroke="#00ABFE" stroke-width="3"/>
<path d="M51.0955 761.162C50.0928 761.162 49.3248 760.901 48.7915 760.378C48.2582 759.855 47.9915 759.098 47.9915 758.106V752.346C47.9915 751.322 48.2635 750.538 48.8075 749.994C49.3622 749.439 50.1302 749.162 51.1115 749.162H53.5755C54.5568 749.162 55.3035 749.439 55.8155 749.994C56.3275 750.549 56.5835 751.333 56.5835 752.346V758.106C56.5835 759.087 56.3168 759.845 55.7835 760.378C55.2608 760.901 54.5248 761.162 53.5755 761.162H51.0955ZM52.9355 759.034C53.7888 759.034 54.2155 758.607 54.2155 757.754V752.57C54.2155 751.717 53.8208 751.29 53.0315 751.29H51.5755C51.1808 751.29 50.8768 751.402 50.6635 751.626C50.4608 751.839 50.3595 752.154 50.3595 752.57V757.738C50.3595 758.602 50.7915 759.034 51.6555 759.034H52.9355ZM62.6069 761.194C60.9322 761.194 59.4229 761.082 58.0789 760.858V758.954H61.7109C62.3829 758.954 62.8629 758.874 63.1509 758.714C63.4496 758.554 63.5989 758.266 63.5989 757.85V757.354C63.5989 756.607 63.0816 756.213 62.0469 756.17L59.1349 756.058V754.234L61.9509 754.074C62.4522 754.053 62.8309 753.962 63.0869 753.802C63.3429 753.642 63.4709 753.391 63.4709 753.05V752.65C63.4709 752.223 63.3269 751.909 63.0389 751.706C62.7509 751.503 62.2816 751.402 61.6309 751.402H58.3349V749.514C59.9562 749.258 61.3696 749.141 62.5749 749.162C63.6202 749.173 64.4202 749.429 64.9749 749.93C65.5296 750.421 65.8069 751.141 65.8069 752.09V752.97C65.8069 753.557 65.6736 754.031 65.4069 754.394C65.1402 754.746 64.7829 754.997 64.3349 755.146C64.8042 755.285 65.1936 755.578 65.5029 756.026C65.8229 756.474 65.9829 757.023 65.9829 757.674V758.282C65.9829 759.221 65.6842 759.941 65.0869 760.442C64.5002 760.943 63.6736 761.194 62.6069 761.194ZM71.3861 755.802H76.1381V757.114H71.3861V755.802ZM86.2074 761.194C84.7674 761.194 83.6687 760.917 82.9114 760.362C82.1647 759.797 81.7914 758.81 81.7914 757.402V749.306H83.4074V757.386C83.4074 758.25 83.6421 758.858 84.1114 759.21C84.5807 759.562 85.2794 759.738 86.2074 759.738C87.1461 759.738 87.8501 759.562 88.3194 759.21C88.7887 758.858 89.0234 758.25 89.0234 757.386V749.306H90.6394V757.402C90.6394 758.81 90.2607 759.797 89.5034 760.362C88.7461 760.917 87.6474 761.194 86.2074 761.194ZM96.2188 761.194C95.6748 761.194 95.0401 761.162 94.3148 761.098C93.6001 761.045 93.0348 760.97 92.6188 760.874V759.626C93.5041 759.711 94.6828 759.754 96.1548 759.754C96.9121 759.754 97.4988 759.642 97.9148 759.418C98.3308 759.183 98.5388 758.762 98.5388 758.154V757.466C98.5388 756.474 98.0108 755.978 96.9548 755.978H95.7548C94.6988 755.978 93.8988 755.749 93.3548 755.29C92.8108 754.821 92.5388 754.058 92.5388 753.002V752.346C92.5388 751.258 92.8321 750.463 93.4188 749.962C94.0161 749.461 94.9014 749.21 96.0748 749.21C96.5868 749.21 97.1734 749.247 97.8348 749.322C98.4961 749.397 99.0614 749.477 99.5308 749.562V750.81L99.1948 750.794C97.8294 750.698 96.8481 750.65 96.2508 750.65C95.5254 750.65 94.9814 750.778 94.6188 751.034C94.2561 751.29 94.0748 751.754 94.0748 752.426V752.906C94.0748 753.461 94.2188 753.855 94.5068 754.09C94.8054 754.325 95.2481 754.442 95.8348 754.442H97.1308C98.0908 754.442 98.8214 754.703 99.3228 755.226C99.8241 755.738 100.075 756.421 100.075 757.274V758.106C100.075 759.269 99.7388 760.074 99.0668 760.522C98.3948 760.97 97.4454 761.194 96.2188 761.194ZM104.651 761.162C103.947 761.162 103.35 761.002 102.859 760.682C102.369 760.362 102.123 759.727 102.123 758.778V751.77C102.123 750.906 102.358 750.282 102.827 749.898C103.297 749.503 103.862 749.306 104.523 749.306C105.793 749.306 107.227 749.349 108.827 749.434L109.547 749.466V750.794H105.003C104.161 750.794 103.739 751.215 103.739 752.058V754.506L108.827 754.602V755.85L103.739 755.962V758.378C103.739 758.879 103.857 759.221 104.091 759.402C104.326 759.573 104.641 759.658 105.035 759.658H109.547V760.986C107.713 761.103 106.081 761.162 104.651 761.162ZM115.399 749.226H120.535C122.093 749.226 123.186 749.749 123.815 750.794C124.445 751.829 124.759 753.29 124.759 755.178C124.759 757.205 124.413 758.698 123.719 759.658C123.026 760.618 121.965 761.098 120.535 761.098H115.399V749.226ZM120.263 758.618C120.903 758.618 121.351 758.346 121.607 757.802C121.874 757.258 122.007 756.383 122.007 755.178C122.007 754.229 121.938 753.503 121.799 753.002C121.671 752.501 121.485 752.159 121.239 751.978C120.994 751.797 120.669 751.706 120.263 751.706H118.167V758.618H120.263ZM129.376 761.194C127.36 761.194 126.352 760.282 126.352 758.458V752.074C126.352 751.061 126.63 750.335 127.184 749.898C127.75 749.45 128.422 749.226 129.2 749.226C130.971 749.237 132.699 749.311 134.384 749.45V751.786H130.032C129.744 751.786 129.52 751.855 129.36 751.994C129.2 752.133 129.12 752.341 129.12 752.618V753.93L133.6 754.09V756.266L129.12 756.41V757.658C129.12 757.978 129.195 758.218 129.344 758.378C129.504 758.527 129.707 758.602 129.952 758.602H134.384V760.922C133.104 761.082 131.435 761.173 129.376 761.194ZM135.178 749.226H138.042L140.538 758.106L143.034 749.226H145.866L142.25 761.098H138.794L135.178 749.226ZM154.72 761.194C154.058 761.194 153.392 761.157 152.72 761.082C152.058 761.007 151.466 760.901 150.944 760.762V758.57C151.957 758.666 153.168 758.714 154.576 758.714C155.173 758.714 155.616 758.645 155.904 758.506C156.192 758.357 156.336 758.095 156.336 757.722V757.418C156.336 757.141 156.245 756.927 156.064 756.778C155.882 756.618 155.642 756.538 155.344 756.538H154.416C153.189 756.538 152.272 756.271 151.664 755.738C151.066 755.194 150.768 754.319 150.768 753.114V752.554C150.768 751.402 151.104 750.543 151.776 749.978C152.448 749.413 153.434 749.13 154.736 749.13C155.856 749.13 157.072 749.279 158.384 749.578V751.754C156.901 751.658 155.797 751.61 155.072 751.61C154.506 751.61 154.085 751.69 153.808 751.85C153.53 751.999 153.392 752.282 153.392 752.698V752.922C153.392 753.583 153.792 753.914 154.592 753.914H155.696C156.752 753.914 157.557 754.202 158.112 754.778C158.677 755.354 158.96 756.111 158.96 757.05V757.642C158.96 758.591 158.789 759.327 158.448 759.85C158.117 760.362 157.648 760.714 157.04 760.906C156.432 761.098 155.658 761.194 154.72 761.194ZM163.58 761.194C161.564 761.194 160.556 760.282 160.556 758.458V752.074C160.556 751.061 160.833 750.335 161.388 749.898C161.953 749.45 162.625 749.226 163.404 749.226C165.174 749.237 166.902 749.311 168.588 749.45V751.786H164.236C163.948 751.786 163.724 751.855 163.564 751.994C163.404 752.133 163.324 752.341 163.324 752.618V753.93L167.804 754.09V756.266L163.324 756.41V757.658C163.324 757.978 163.398 758.218 163.548 758.378C163.708 758.527 163.91 758.602 164.156 758.602H168.588V760.922C167.308 761.082 165.638 761.173 163.58 761.194ZM170.165 749.226H175.157C176.256 749.226 177.109 749.519 177.717 750.106C178.336 750.682 178.645 751.69 178.645 753.13C178.645 754.09 178.49 754.81 178.181 755.29C177.882 755.77 177.461 756.149 176.917 756.426L179.045 761.098H176.229L174.453 756.874C174.154 756.863 173.648 756.858 172.933 756.858V761.098H170.165V749.226ZM174.661 754.666C175.066 754.666 175.37 754.554 175.573 754.33C175.776 754.095 175.877 753.701 175.877 753.146C175.877 752.602 175.776 752.229 175.573 752.026C175.37 751.813 175.066 751.706 174.661 751.706H172.933V754.666H174.661ZM179.522 749.226H182.386L184.882 758.106L187.378 749.226H190.21L186.594 761.098H183.138L179.522 749.226ZM191.337 749.226H194.105V761.098H191.337V749.226ZM200.025 761.194C199.044 761.194 198.244 761.034 197.625 760.714C197.006 760.394 196.526 759.797 196.185 758.922C195.854 758.037 195.689 756.773 195.689 755.13C195.689 753.541 195.86 752.309 196.201 751.434C196.553 750.559 197.044 749.957 197.673 749.626C198.302 749.285 199.092 749.114 200.041 749.114C200.852 749.114 201.582 749.173 202.233 749.29C202.884 749.407 203.422 749.551 203.849 749.722V751.866C202.868 751.685 201.796 751.594 200.633 751.594C200.057 751.594 199.62 751.685 199.321 751.866C199.022 752.037 198.804 752.373 198.665 752.874C198.526 753.375 198.457 754.133 198.457 755.146C198.457 756.138 198.516 756.885 198.633 757.386C198.75 757.877 198.964 758.223 199.273 758.426C199.582 758.618 200.041 758.714 200.649 758.714C202.089 758.714 203.156 758.661 203.849 758.554V760.698C202.942 761.029 201.668 761.194 200.025 761.194ZM208.267 761.194C206.251 761.194 205.243 760.282 205.243 758.458V752.074C205.243 751.061 205.52 750.335 206.075 749.898C206.64 749.45 207.312 749.226 208.091 749.226C209.862 749.237 211.59 749.311 213.275 749.45V751.786H208.923C208.635 751.786 208.411 751.855 208.251 751.994C208.091 752.133 208.011 752.341 208.011 752.618V753.93L212.491 754.09V756.266L208.011 756.41V757.658C208.011 757.978 208.086 758.218 208.235 758.378C208.395 758.527 208.598 758.602 208.843 758.602H213.275V760.922C211.995 761.082 210.326 761.173 208.267 761.194ZM218.516 761.194C217.855 761.194 217.188 761.157 216.516 761.082C215.855 761.007 215.263 760.901 214.74 760.762V758.57C215.754 758.666 216.964 758.714 218.372 758.714C218.97 758.714 219.412 758.645 219.7 758.506C219.988 758.357 220.132 758.095 220.132 757.722V757.418C220.132 757.141 220.042 756.927 219.86 756.778C219.679 756.618 219.439 756.538 219.14 756.538H218.212C216.986 756.538 216.068 756.271 215.46 755.738C214.863 755.194 214.564 754.319 214.564 753.114V752.554C214.564 751.402 214.9 750.543 215.572 749.978C216.244 749.413 217.231 749.13 218.532 749.13C219.652 749.13 220.868 749.279 222.18 749.578V751.754C220.698 751.658 219.594 751.61 218.868 751.61C218.303 751.61 217.882 751.69 217.604 751.85C217.327 751.999 217.188 752.282 217.188 752.698V752.922C217.188 753.583 217.588 753.914 218.388 753.914H219.492C220.548 753.914 221.354 754.202 221.908 754.778C222.474 755.354 222.756 756.111 222.756 757.05V757.642C222.756 758.591 222.586 759.327 222.244 759.85C221.914 760.362 221.444 760.714 220.836 760.906C220.228 761.098 219.455 761.194 218.516 761.194ZM80.1922 771.746H76.6722V770.306H85.3282V771.746H81.8082V782.098H80.1922V771.746ZM91.0299 782.194C89.9099 782.194 89.0246 782.045 88.3739 781.746C87.7233 781.447 87.2273 780.871 86.8859 780.018C86.5553 779.165 86.3899 777.906 86.3899 776.242C86.3899 774.578 86.5606 773.314 86.9019 772.45C87.2433 771.575 87.7393 770.983 88.3899 770.674C89.0406 770.365 89.9206 770.21 91.0299 770.21C92.1606 770.21 93.0513 770.365 93.7019 770.674C94.3526 770.983 94.8433 771.575 95.1739 772.45C95.5153 773.314 95.6859 774.578 95.6859 776.242C95.6859 777.906 95.5153 779.165 95.1739 780.018C94.8433 780.871 94.3526 781.447 93.7019 781.746C93.0513 782.045 92.1606 782.194 91.0299 782.194ZM91.0299 780.754C91.8193 780.754 92.4273 780.642 92.8539 780.418C93.2806 780.194 93.5899 779.762 93.7819 779.122C93.9739 778.482 94.0699 777.522 94.0699 776.242C94.0699 774.909 93.9739 773.917 93.7819 773.266C93.5899 772.615 93.2806 772.183 92.8539 771.97C92.4379 771.757 91.8299 771.65 91.0299 771.65C90.2619 771.65 89.6646 771.762 89.2379 771.986C88.8219 772.199 88.5073 772.631 88.2939 773.282C88.0913 773.933 87.9899 774.919 87.9899 776.242C87.9899 777.533 88.0806 778.498 88.2619 779.138C88.4539 779.767 88.7579 780.194 89.1739 780.418C89.6006 780.642 90.2193 780.754 91.0299 780.754ZM105.894 782.194C104.881 782.194 104.076 782.039 103.478 781.73C102.892 781.41 102.449 780.818 102.15 779.954C101.852 779.079 101.702 777.815 101.702 776.162C101.702 774.594 101.857 773.378 102.166 772.514C102.476 771.65 102.934 771.053 103.542 770.722C104.15 770.381 104.956 770.21 105.958 770.21C106.513 770.21 107.11 770.258 107.75 770.354C108.39 770.439 108.956 770.546 109.446 770.674V771.89C109.105 771.837 108.636 771.783 108.038 771.73C107.441 771.677 106.844 771.65 106.246 771.65C105.489 771.65 104.902 771.773 104.486 772.018C104.081 772.253 103.782 772.695 103.59 773.346C103.398 773.986 103.302 774.93 103.302 776.178C103.302 777.458 103.393 778.423 103.574 779.074C103.756 779.714 104.049 780.157 104.454 780.402C104.86 780.637 105.452 780.754 106.23 780.754C107.521 780.754 108.593 780.69 109.446 780.562V781.794C108.38 782.061 107.196 782.194 105.894 782.194ZM115.499 782.194C114.379 782.194 113.493 782.045 112.843 781.746C112.192 781.447 111.696 780.871 111.355 780.018C111.024 779.165 110.859 777.906 110.859 776.242C110.859 774.578 111.029 773.314 111.371 772.45C111.712 771.575 112.208 770.983 112.859 770.674C113.509 770.365 114.389 770.21 115.499 770.21C116.629 770.21 117.52 770.365 118.171 770.674C118.821 770.983 119.312 771.575 119.643 772.45C119.984 773.314 120.155 774.578 120.155 776.242C120.155 777.906 119.984 779.165 119.643 780.018C119.312 780.871 118.821 781.447 118.171 781.746C117.52 782.045 116.629 782.194 115.499 782.194ZM115.499 780.754C116.288 780.754 116.896 780.642 117.323 780.418C117.749 780.194 118.059 779.762 118.251 779.122C118.443 778.482 118.539 777.522 118.539 776.242C118.539 774.909 118.443 773.917 118.251 773.266C118.059 772.615 117.749 772.183 117.323 771.97C116.907 771.757 116.299 771.65 115.499 771.65C114.731 771.65 114.133 771.762 113.707 771.986C113.291 772.199 112.976 772.631 112.763 773.282C112.56 773.933 112.459 774.919 112.459 776.242C112.459 777.533 112.549 778.498 112.731 779.138C112.923 779.767 113.227 780.194 113.643 780.418C114.069 780.642 114.688 780.754 115.499 780.754ZM122.37 770.306H123.682L129.458 779.346V770.306H131.058V782.098H129.762L123.986 773.058V782.098H122.37V770.306ZM135.833 771.746H132.313V770.306H140.969V771.746H137.449V782.098H135.833V771.746ZM142.397 770.306H147.117C148.077 770.306 148.839 770.562 149.405 771.074C149.981 771.575 150.269 772.509 150.269 773.874C150.269 774.973 150.066 775.757 149.661 776.226C149.266 776.695 148.759 777.015 148.141 777.186L150.493 782.098H148.861L146.685 777.41L144.493 777.378C144.375 777.367 144.215 777.362 144.013 777.362V782.098H142.397V770.306ZM146.861 776.114C147.437 776.114 147.879 775.954 148.189 775.634C148.509 775.314 148.669 774.727 148.669 773.874C148.669 773.053 148.509 772.493 148.189 772.194C147.869 771.895 147.426 771.746 146.861 771.746H144.013V776.114H146.861ZM152.225 770.306H153.841V782.098H152.225V770.306ZM156.178 770.306H160.562C162.653 770.306 163.698 771.319 163.698 773.346C163.698 774.05 163.543 774.631 163.234 775.09C162.935 775.549 162.541 775.842 162.05 775.97C162.594 776.109 163.074 776.413 163.49 776.882C163.906 777.351 164.114 778.002 164.114 778.834C164.114 780.018 163.831 780.861 163.266 781.362C162.701 781.853 161.858 782.098 160.738 782.098H156.178V770.306ZM160.61 775.426C161.079 775.426 161.453 775.25 161.73 774.898C162.018 774.546 162.162 774.071 162.162 773.474C162.162 772.322 161.623 771.746 160.546 771.746H157.794V775.426H160.61ZM160.69 780.658C161.298 780.658 161.762 780.503 162.082 780.194C162.413 779.874 162.578 779.33 162.578 778.562C162.578 777.975 162.397 777.517 162.034 777.186C161.682 776.845 161.234 776.674 160.69 776.674H157.794V780.658H160.69ZM170.215 782.194C168.775 782.194 167.677 781.917 166.919 781.362C166.173 780.797 165.799 779.81 165.799 778.402V770.306H167.415V778.386C167.415 779.25 167.65 779.858 168.119 780.21C168.589 780.562 169.287 780.738 170.215 780.738C171.154 780.738 171.858 780.562 172.327 780.21C172.797 779.858 173.031 779.25 173.031 778.386V770.306H174.647V778.402C174.647 779.81 174.269 780.797 173.511 781.362C172.754 781.917 171.655 782.194 170.215 782.194ZM179.427 771.746H175.907V770.306H184.563V771.746H181.043V782.098H179.427V771.746ZM188.362 782.162C187.658 782.162 187.061 782.002 186.57 781.682C186.08 781.362 185.834 780.727 185.834 779.778V772.77C185.834 771.906 186.069 771.282 186.538 770.898C187.008 770.503 187.573 770.306 188.234 770.306C189.504 770.306 190.938 770.349 192.538 770.434L193.258 770.466V771.794H188.714C187.872 771.794 187.45 772.215 187.45 773.058V775.506L192.538 775.602V776.85L187.45 776.962V779.378C187.45 779.879 187.568 780.221 187.802 780.402C188.037 780.573 188.352 780.658 188.746 780.658H193.258V781.986C191.424 782.103 189.792 782.162 188.362 782.162Z" fill="white"/>
<path d="M114.479 696.069C113.521 696.069 112.743 695.291 112.743 694.333V676.972C112.743 676.014 113.521 675.236 114.479 675.236C115.437 675.236 116.215 676.014 116.215 676.972V694.333C116.215 695.291 115.437 696.069 114.479 696.069Z" fill="white"/>
<path d="M145.728 696.069C144.77 696.069 143.992 695.291 143.992 694.333V676.972C143.992 676.014 144.77 675.236 145.728 675.236C146.687 675.236 147.464 676.014 147.464 676.972V694.333C147.464 695.291 146.687 696.069 145.728 696.069Z" fill="white"/>
<path d="M131.84 696.069H128.368C125.496 696.069 123.159 693.732 123.159 690.861V680.444C123.159 677.573 125.496 675.236 128.368 675.236H131.84C134.711 675.236 137.048 677.573 137.048 680.444V690.861C137.048 693.732 134.711 696.069 131.84 696.069ZM128.368 678.708C127.413 678.708 126.631 679.486 126.631 680.444V690.861C126.631 691.819 127.413 692.597 128.368 692.597H131.84C132.795 692.597 133.576 691.819 133.576 690.861V680.444C133.576 679.486 132.795 678.708 131.84 678.708H128.368Z" fill="white"/>
<path d="M145.728 723.846C144.77 723.846 143.992 723.068 143.992 722.11V704.749C143.992 703.791 144.77 703.013 145.728 703.013C146.687 703.013 147.464 703.791 147.464 704.749V722.11C147.464 723.068 146.687 723.846 145.728 723.846Z" fill="white"/>
<path d="M121.423 723.846H117.951C115.08 723.846 112.743 721.509 112.743 718.638V708.221C112.743 705.35 115.08 703.013 117.951 703.013H121.423C124.295 703.013 126.631 705.35 126.631 708.221V718.638C126.631 721.509 124.295 723.846 121.423 723.846ZM117.951 706.485C116.996 706.485 116.215 707.263 116.215 708.221V718.638C116.215 719.596 116.996 720.374 117.951 720.374H121.423C122.378 720.374 123.159 719.596 123.159 718.638V708.221C123.159 707.263 122.378 706.485 121.423 706.485H117.951Z" fill="white"/>
<path d="M135.312 723.846C134.354 723.846 133.576 723.068 133.576 722.11V704.749C133.576 703.791 134.354 703.013 135.312 703.013C136.27 703.013 137.048 703.791 137.048 704.749V722.11C137.048 723.068 136.27 723.846 135.312 723.846Z" fill="white"/>
<path d="M107.535 703.013H105.798C96.2257 703.013 88.4377 695.225 88.4377 685.653C88.4377 676.479 95.5868 668.948 104.604 668.333C107.007 656.334 117.718 647.459 130.104 647.459C139.829 647.459 148.787 652.938 153.204 661.5C163.697 662.601 171.769 671.493 171.769 682.18C171.769 693.031 163.624 701.94 152.825 702.902C151.95 702.979 151.027 702.284 150.943 701.326C150.86 700.368 151.565 699.527 152.52 699.444C161.513 698.645 168.297 691.222 168.297 682.18C168.297 672.99 161.134 665.393 151.988 664.886C151.346 664.851 150.78 664.465 150.509 663.886C146.836 656.018 138.829 650.931 130.104 650.931C118.941 650.931 109.35 659.247 107.795 670.271C107.673 671.125 106.941 671.764 106.076 671.764C98.1389 671.764 91.9098 677.993 91.9098 685.653C91.9098 693.312 98.1389 699.541 105.798 699.541H107.535C108.493 699.541 109.271 700.319 109.271 701.277C109.271 702.236 108.493 703.013 107.535 703.013Z" fill="white"/>
<defs>
<linearGradient id="paint0_linear" x1="127.5" y1="0" x2="127.5" y2="43" gradientUnits="userSpaceOnUse">
<stop stop-color="#616892"/>
<stop offset="1" stop-color="#707FA6"/>
</linearGradient>
<linearGradient id="paint1_linear" x1="102" y1="54" x2="123.607" y2="18.4124" gradientUnits="userSpaceOnUse">
<stop stop-color="#FF6E5D"/>
<stop offset="1" stop-color="#B84CB7"/>
<stop offset="1" stop-color="#FF00E6"/>
</linearGradient>
<linearGradient id="paint2_linear" x1="128" y1="108" x2="128" y2="286.027" gradientUnits="userSpaceOnUse">
<stop stop-color="#616892"/>
<stop offset="1" stop-color="#707FA6"/>
</linearGradient>
<linearGradient id="paint3_linear" x1="104" y1="313" x2="117.219" y2="350.314" gradientUnits="userSpaceOnUse">
<stop stop-color="#FF6E5D"/>
<stop offset="1" stop-color="#B84CB7"/>
<stop offset="1" stop-color="#FF00E6"/>
</linearGradient>
<linearGradient id="paint4_linear" x1="102" y1="570" x2="115.219" y2="607.314" gradientUnits="userSpaceOnUse">
<stop stop-color="#FF6E5D"/>
<stop offset="1" stop-color="#B84CB7"/>
<stop offset="1" stop-color="#FF00E6"/>
</linearGradient>
<linearGradient id="paint5_linear" x1="128" y1="365" x2="128" y2="543.027" gradientUnits="userSpaceOnUse">
<stop stop-color="#616892"/>
<stop offset="1" stop-color="#707FA6"/>
</linearGradient>
<linearGradient id="paint6_linear" x1="128" y1="621" x2="128" y2="799.027" gradientUnits="userSpaceOnUse">
<stop stop-color="#616892"/>
<stop offset="1" stop-color="#707FA6"/>
</linearGradient>
</defs>
</svg>
